%TF.GenerationSoftware,KiCad,Pcbnew,8.0.7*%
%TF.CreationDate,2025-01-23T14:45:19+09:00*%
%TF.ProjectId,I2C_LED_BTN_CH32V,4932435f-4c45-4445-9f42-544e5f434833,0.1.1*%
%TF.SameCoordinates,PX6331cc8PY6f00dec*%
%TF.FileFunction,Copper,L1,Top*%
%TF.FilePolarity,Positive*%
%FSLAX46Y46*%
G04 Gerber Fmt 4.6, Leading zero omitted, Abs format (unit mm)*
G04 Created by KiCad (PCBNEW 8.0.7) date 2025-01-23 14:45:19*
%MOMM*%
%LPD*%
G01*
G04 APERTURE LIST*
G04 Aperture macros list*
%AMRoundRect*
0 Rectangle with rounded corners*
0 $1 Rounding radius*
0 $2 $3 $4 $5 $6 $7 $8 $9 X,Y pos of 4 corners*
0 Add a 4 corners polygon primitive as box body*
4,1,4,$2,$3,$4,$5,$6,$7,$8,$9,$2,$3,0*
0 Add four circle primitives for the rounded corners*
1,1,$1+$1,$2,$3*
1,1,$1+$1,$4,$5*
1,1,$1+$1,$6,$7*
1,1,$1+$1,$8,$9*
0 Add four rect primitives between the rounded corners*
20,1,$1+$1,$2,$3,$4,$5,0*
20,1,$1+$1,$4,$5,$6,$7,0*
20,1,$1+$1,$6,$7,$8,$9,0*
20,1,$1+$1,$8,$9,$2,$3,0*%
G04 Aperture macros list end*
%TA.AperFunction,ComponentPad*%
%ADD10C,1.600000*%
%TD*%
%TA.AperFunction,ComponentPad*%
%ADD11O,1.600000X1.600000*%
%TD*%
%TA.AperFunction,ComponentPad*%
%ADD12C,2.000000*%
%TD*%
%TA.AperFunction,ComponentPad*%
%ADD13R,1.700000X1.700000*%
%TD*%
%TA.AperFunction,ComponentPad*%
%ADD14O,1.700000X1.700000*%
%TD*%
%TA.AperFunction,ComponentPad*%
%ADD15R,1.800000X1.800000*%
%TD*%
%TA.AperFunction,ComponentPad*%
%ADD16C,1.800000*%
%TD*%
%TA.AperFunction,ComponentPad*%
%ADD17RoundRect,0.250000X0.600000X0.725000X-0.600000X0.725000X-0.600000X-0.725000X0.600000X-0.725000X0*%
%TD*%
%TA.AperFunction,ComponentPad*%
%ADD18O,1.700000X1.950000*%
%TD*%
%TA.AperFunction,ComponentPad*%
%ADD19R,1.600000X1.600000*%
%TD*%
%TA.AperFunction,SMDPad,CuDef*%
%ADD20RoundRect,0.100000X-0.637500X-0.100000X0.637500X-0.100000X0.637500X0.100000X-0.637500X0.100000X0*%
%TD*%
%TA.AperFunction,ComponentPad*%
%ADD21RoundRect,0.250000X-0.600000X-0.725000X0.600000X-0.725000X0.600000X0.725000X-0.600000X0.725000X0*%
%TD*%
%TA.AperFunction,ViaPad*%
%ADD22C,0.600000*%
%TD*%
%TA.AperFunction,Conductor*%
%ADD23C,0.400000*%
%TD*%
%TA.AperFunction,Conductor*%
%ADD24C,0.300000*%
%TD*%
%TA.AperFunction,Conductor*%
%ADD25C,0.800000*%
%TD*%
%TA.AperFunction,Conductor*%
%ADD26C,0.200000*%
%TD*%
G04 APERTURE END LIST*
D10*
%TO.P,R1,1*%
%TO.N,+3.3V*%
X22987000Y50355500D03*
D11*
%TO.P,R1,2*%
%TO.N,Net-(D1-A)*%
X12827000Y50355500D03*
%TD*%
D12*
%TO.P,SW1,1,1*%
%TO.N,GND*%
X10997000Y17625500D03*
X4497000Y17625500D03*
%TO.P,SW1,2,2*%
%TO.N,Net-(U1-PC0)*%
X10997000Y22125500D03*
X4497000Y22125500D03*
%TD*%
D10*
%TO.P,C1,1*%
%TO.N,+3.3V*%
X23622000Y30035500D03*
%TO.P,C1,2*%
%TO.N,GND*%
X23622000Y32535500D03*
%TD*%
D13*
%TO.P,J2,1,Pin_1*%
%TO.N,GND*%
X19187000Y56070500D03*
D14*
%TO.P,J2,2,Pin_2*%
%TO.N,+3.3V*%
X21727000Y56070500D03*
%TO.P,J2,3,Pin_3*%
%TO.N,/I2C_SCL*%
X24267000Y56070500D03*
%TO.P,J2,4,Pin_4*%
%TO.N,/I2C_SDA*%
X26807000Y56070500D03*
%TD*%
D15*
%TO.P,D1,1,K*%
%TO.N,Net-(D1-K)*%
X5842000Y47815500D03*
D16*
%TO.P,D1,2,A*%
%TO.N,Net-(D1-A)*%
X5842000Y50355500D03*
%TD*%
D12*
%TO.P,SW3,1,1*%
%TO.N,GND*%
X41402000Y17625500D03*
X34902000Y17625500D03*
%TO.P,SW3,2,2*%
%TO.N,Net-(U1-PC4)*%
X41402000Y22125500D03*
X34902000Y22125500D03*
%TD*%
D17*
%TO.P,J1,1,Pin_1*%
%TO.N,GND*%
X26797000Y62865000D03*
D18*
%TO.P,J1,2,Pin_2*%
%TO.N,+3.3V*%
X24297000Y62865000D03*
%TO.P,J1,3,Pin_3*%
%TO.N,/I2C_SCL*%
X21797000Y62865000D03*
%TO.P,J1,4,Pin_4*%
%TO.N,/I2C_SDA*%
X19297000Y62865000D03*
%TD*%
D10*
%TO.P,R6,1*%
%TO.N,Net-(U1-PD0)*%
X19812000Y29400500D03*
D11*
%TO.P,R6,2*%
%TO.N,/BUZZER*%
X19812000Y39560500D03*
%TD*%
D10*
%TO.P,R2,1*%
%TO.N,+3.3V*%
X22987000Y42735500D03*
D11*
%TO.P,R2,2*%
%TO.N,Net-(D2-A)*%
X12827000Y42735500D03*
%TD*%
D13*
%TO.P,J8,1,Pin_1*%
%TO.N,PD4*%
X5207000Y26860500D03*
D14*
%TO.P,J8,2,Pin_2*%
%TO.N,PD5*%
X7747000Y26860500D03*
%TO.P,J8,3,Pin_3*%
%TO.N,PD6*%
X10287000Y26860500D03*
%TO.P,J8,4,Pin_4*%
%TO.N,PD7*%
X12827000Y26860500D03*
%TO.P,J8,5,Pin_5*%
%TO.N,GND*%
X15367000Y26860500D03*
%TO.P,J8,6,Pin_6*%
%TO.N,PD2*%
X15367000Y29400500D03*
%TO.P,J8,7,Pin_7*%
%TO.N,PD3*%
X12827000Y29400500D03*
%TO.P,J8,8,Pin_8*%
%TO.N,PA2*%
X10287000Y29400500D03*
%TO.P,J8,9,Pin_9*%
%TO.N,PA1*%
X7747000Y29400500D03*
%TO.P,J8,10,Pin_10*%
%TO.N,+3.3V*%
X5207000Y29400500D03*
%TD*%
D13*
%TO.P,J6,1,Pin_1*%
%TO.N,/BUZZER*%
X28067000Y44005500D03*
D14*
%TO.P,J6,2,Pin_2*%
%TO.N,GND*%
X28067000Y41465500D03*
%TD*%
D10*
%TO.P,R3,1*%
%TO.N,+3.3V*%
X12827000Y46545500D03*
D11*
%TO.P,R3,2*%
%TO.N,Net-(D3-A)*%
X22987000Y46545500D03*
%TD*%
D10*
%TO.P,R4,1*%
%TO.N,+3.3V*%
X4572000Y13525500D03*
D11*
%TO.P,R4,2*%
%TO.N,Net-(J4-Pin_1)*%
X14732000Y13525500D03*
%TD*%
D13*
%TO.P,J5,1,Pin_1*%
%TO.N,/SWIO*%
X29972000Y25590500D03*
D14*
%TO.P,J5,2,Pin_2*%
%TO.N,GND*%
X27432000Y25590500D03*
%TO.P,J5,3,Pin_3*%
%TO.N,+3.3V*%
X24892000Y25590500D03*
%TD*%
D12*
%TO.P,SW2,1,1*%
%TO.N,GND*%
X26237000Y15430500D03*
X19737000Y15430500D03*
%TO.P,SW2,2,2*%
%TO.N,Net-(U1-PC3)*%
X26237000Y19930500D03*
X19737000Y19930500D03*
%TD*%
D13*
%TO.P,J4,1,Pin_1*%
%TO.N,Net-(J4-Pin_1)*%
X12827000Y9080500D03*
D14*
%TO.P,J4,2,Pin_2*%
%TO.N,/I2C_SCL*%
X12827000Y6540500D03*
%TD*%
D15*
%TO.P,D3,1,K*%
%TO.N,Net-(D3-K)*%
X40132000Y50355500D03*
D16*
%TO.P,D3,2,A*%
%TO.N,Net-(D3-A)*%
X40132000Y52895500D03*
%TD*%
D13*
%TO.P,J3,1,Pin_1*%
%TO.N,Net-(J3-Pin_1)*%
X33147000Y9080500D03*
D14*
%TO.P,J3,2,Pin_2*%
%TO.N,/I2C_SDA*%
X33147000Y6540500D03*
%TD*%
D19*
%TO.P,C2,1*%
%TO.N,+3.3V*%
X32425000Y62230000D03*
D10*
%TO.P,C2,2*%
%TO.N,GND*%
X34925000Y62230000D03*
%TD*%
D20*
%TO.P,U1,1,PD4*%
%TO.N,PD4*%
X27109500Y37405500D03*
%TO.P,U1,2,PD5*%
%TO.N,PD5*%
X27109500Y36755500D03*
%TO.P,U1,3,PD6*%
%TO.N,PD6*%
X27109500Y36105500D03*
%TO.P,U1,4,PD7*%
%TO.N,PD7*%
X27109500Y35455500D03*
%TO.P,U1,5,PA1*%
%TO.N,PA1*%
X27109500Y34805500D03*
%TO.P,U1,6,PA2*%
%TO.N,PA2*%
X27109500Y34155500D03*
%TO.P,U1,7,VSS*%
%TO.N,GND*%
X27109500Y33505500D03*
%TO.P,U1,8,PD0*%
%TO.N,Net-(U1-PD0)*%
X27109500Y32855500D03*
%TO.P,U1,9,VDD*%
%TO.N,+3.3V*%
X27109500Y32205500D03*
%TO.P,U1,10,PC0*%
%TO.N,Net-(U1-PC0)*%
X27109500Y31555500D03*
%TO.P,U1,11,PC1*%
%TO.N,/I2C_SDA*%
X32834500Y31555500D03*
%TO.P,U1,12,PC2*%
%TO.N,/I2C_SCL*%
X32834500Y32205500D03*
%TO.P,U1,13,PC3*%
%TO.N,Net-(U1-PC3)*%
X32834500Y32855500D03*
%TO.P,U1,14,PC4*%
%TO.N,Net-(U1-PC4)*%
X32834500Y33505500D03*
%TO.P,U1,15,PC5*%
%TO.N,Net-(D3-K)*%
X32834500Y34155500D03*
%TO.P,U1,16,PC6*%
%TO.N,Net-(D2-K)*%
X32834500Y34805500D03*
%TO.P,U1,17,PC7*%
%TO.N,Net-(D1-K)*%
X32834500Y35455500D03*
%TO.P,U1,18,PD1*%
%TO.N,/SWIO*%
X32834500Y36105500D03*
%TO.P,U1,19,PD2*%
%TO.N,PD2*%
X32834500Y36755500D03*
%TO.P,U1,20,PD3*%
%TO.N,PD3*%
X32834500Y37405500D03*
%TD*%
D21*
%TO.P,J7,1,Pin_1*%
%TO.N,GND*%
X19237000Y8128000D03*
D18*
%TO.P,J7,2,Pin_2*%
%TO.N,+3.3V*%
X21737000Y8128000D03*
%TO.P,J7,3,Pin_3*%
%TO.N,/I2C_SCL*%
X24237000Y8128000D03*
%TO.P,J7,4,Pin_4*%
%TO.N,/I2C_SDA*%
X26737000Y8128000D03*
%TD*%
D10*
%TO.P,R5,1*%
%TO.N,+3.3V*%
X41402000Y13525500D03*
D11*
%TO.P,R5,2*%
%TO.N,Net-(J3-Pin_1)*%
X31242000Y13525500D03*
%TD*%
D15*
%TO.P,D2,1,K*%
%TO.N,Net-(D2-K)*%
X5842000Y37655500D03*
D16*
%TO.P,D2,2,A*%
%TO.N,Net-(D2-A)*%
X5842000Y40195500D03*
%TD*%
D22*
%TO.N,GND*%
X29210000Y45783500D03*
X29210000Y47307500D03*
X14605000Y39179500D03*
X16256000Y39179500D03*
%TO.N,+3.3V*%
X30607000Y48450500D03*
X32715063Y24100635D03*
X32512000Y48450500D03*
%TO.N,Net-(D3-K)*%
X34417000Y35115500D03*
%TO.N,/I2C_SCL*%
X30861000Y32067500D03*
%TO.N,/I2C_SDA*%
X31623000Y31559500D03*
%TO.N,/SWIO*%
X30607000Y36105500D03*
%TO.N,PD4*%
X6477000Y34480500D03*
%TO.N,PD5*%
X9017000Y34480500D03*
%TO.N,PD2*%
X17907000Y37655500D03*
%TO.N,PD3*%
X18542000Y38290500D03*
%TO.N,PD7*%
X14732000Y33845500D03*
%TO.N,PD6*%
X12192000Y34480500D03*
%TO.N,Net-(U1-PC0)*%
X17907000Y27495500D03*
%TO.N,Net-(U1-PC3)*%
X28702000Y32575500D03*
%TO.N,Net-(U1-PC4)*%
X34417000Y32575500D03*
%TD*%
D23*
%TO.N,GND*%
X39787000Y19240500D02*
X36517000Y19240500D01*
X2667000Y19875500D02*
X2667000Y38925500D01*
X25527000Y44640500D02*
X25527000Y45783500D01*
X12612000Y19240500D02*
X12612000Y22645000D01*
X26797000Y60515500D02*
X26797000Y62865000D01*
X4497000Y17625500D02*
X2667000Y19455500D01*
X17207000Y29335500D02*
X17207000Y26925500D01*
X15367000Y25400000D02*
X15367000Y26860500D01*
X10997000Y17625500D02*
X12112500Y16510000D01*
X34417000Y26225500D02*
X33147000Y27495500D01*
X27432000Y27495500D02*
X27432000Y25590500D01*
X2667000Y38925500D02*
X3937000Y38925500D01*
D24*
X14351000Y38925500D02*
X3937000Y38925500D01*
D23*
X29972000Y41465500D02*
X28067000Y41465500D01*
X23622000Y32535500D02*
X22392000Y31305500D01*
X29972000Y45783500D02*
X29972000Y41465500D01*
X16637000Y39560500D02*
X16637000Y44640500D01*
X29210000Y45783500D02*
X29972000Y45783500D01*
X2667000Y19455500D02*
X2667000Y19875500D01*
X19177000Y44640500D02*
X25527000Y44640500D01*
X29210000Y58102500D02*
X26797000Y60515500D01*
X16256000Y39179500D02*
X16637000Y39560500D01*
X36517000Y19240500D02*
X34902000Y17625500D01*
X18657500Y16510000D02*
X19737000Y15430500D01*
X29210000Y47307500D02*
X29210000Y58102500D01*
X30797500Y58102500D02*
X29210000Y58102500D01*
X41402000Y17625500D02*
X39787000Y19240500D01*
X19187000Y44650500D02*
X19177000Y44640500D01*
X10997000Y17625500D02*
X12612000Y19240500D01*
X17142000Y26860500D02*
X15367000Y26860500D01*
X33786500Y16510000D02*
X27316500Y16510000D01*
X33502000Y22705399D02*
X34417000Y23620399D01*
X27109500Y33505500D02*
X24592000Y33505500D01*
X34902000Y17625500D02*
X33502000Y19025500D01*
X34417000Y23620399D02*
X34417000Y26225500D01*
X12612000Y22645000D02*
X15367000Y25400000D01*
X12112500Y16510000D02*
X18657500Y16510000D01*
X19237000Y14930500D02*
X19237000Y8128000D01*
X34925000Y62230000D02*
X30797500Y58102500D01*
X33502000Y19025500D02*
X33502000Y22705399D01*
X4497000Y17625500D02*
X6112000Y19240500D01*
D24*
X14605000Y39179500D02*
X14351000Y38925500D01*
D23*
X21007000Y16700500D02*
X19237000Y14930500D01*
X17272000Y65595500D02*
X17272000Y60525500D01*
X34902000Y17625500D02*
X33786500Y16510000D01*
X22392000Y31305500D02*
X19177000Y31305500D01*
X19187000Y58610500D02*
X19187000Y56070500D01*
X25527000Y45783500D02*
X29210000Y45783500D01*
X26797000Y62865000D02*
X24066500Y65595500D01*
X26237000Y15430500D02*
X24967000Y16700500D01*
X6112000Y19240500D02*
X9382000Y19240500D01*
X19177000Y31305500D02*
X17207000Y29335500D01*
X16637000Y44640500D02*
X19177000Y44640500D01*
X17207000Y26925500D02*
X17142000Y26860500D01*
X19187000Y56070500D02*
X19187000Y44650500D01*
X24066500Y65595500D02*
X17272000Y65595500D01*
X24967000Y16700500D02*
X21007000Y16700500D01*
X24592000Y33505500D02*
X23622000Y32535500D01*
X17272000Y60525500D02*
X19187000Y58610500D01*
X33147000Y27495500D02*
X27432000Y27495500D01*
X9382000Y19240500D02*
X10997000Y17625500D01*
X27316500Y16510000D02*
X26237000Y15430500D01*
D25*
%TO.N,+3.3V*%
X32715063Y24100635D02*
X32680928Y24066500D01*
X32680928Y24066500D02*
X26416000Y24066500D01*
X32512000Y48450500D02*
X30607000Y48450500D01*
D23*
X27109500Y32205500D02*
X25792000Y32205500D01*
X25792000Y32205500D02*
X23622000Y30035500D01*
D25*
X26416000Y24066500D02*
X24892000Y25590500D01*
D24*
%TO.N,Net-(D1-A)*%
X12827000Y50355500D02*
X5842000Y50355500D01*
%TO.N,Net-(D1-K)*%
X28697000Y36390500D02*
X29669500Y35418000D01*
X28697000Y37901775D02*
X28697000Y36390500D01*
X21628497Y37005500D02*
X23413497Y38790500D01*
X27808275Y38790500D02*
X28697000Y37901775D01*
X29669500Y35418000D02*
X32797000Y35418000D01*
X32797000Y35418000D02*
X32834500Y35455500D01*
X15367000Y38925500D02*
X17287000Y37005500D01*
X23413497Y38790500D02*
X27808275Y38790500D01*
X17287000Y37005500D02*
X21628497Y37005500D01*
X15367000Y46545500D02*
X15367000Y38925500D01*
X5842000Y47815500D02*
X14097000Y47815500D01*
X14097000Y47815500D02*
X15367000Y46545500D01*
%TO.N,Net-(D2-K)*%
X28197000Y36394668D02*
X28161168Y36430500D01*
X29574893Y34805500D02*
X28197000Y36183393D01*
X7112000Y36385500D02*
X5842000Y37655500D01*
X23620604Y38290500D02*
X21715604Y36385500D01*
X28197000Y37694668D02*
X27601168Y38290500D01*
X28197000Y36466332D02*
X28197000Y37694668D01*
X5842000Y37655500D02*
X5842000Y38290500D01*
X21715604Y36385500D02*
X7112000Y36385500D01*
X32834500Y34805500D02*
X29574893Y34805500D01*
X28197000Y36183393D02*
X28197000Y36394668D01*
X28161168Y36430500D02*
X28197000Y36466332D01*
X27601168Y38290500D02*
X23620604Y38290500D01*
%TO.N,Net-(D2-A)*%
X7747000Y42735500D02*
X5842000Y40830500D01*
X5842000Y40830500D02*
X5842000Y40195500D01*
X12827000Y42735500D02*
X7747000Y42735500D01*
%TO.N,Net-(D3-K)*%
X34417000Y35011332D02*
X33561168Y34155500D01*
X34417000Y35115500D02*
X34417000Y35011332D01*
X33561168Y34155500D02*
X32834500Y34155500D01*
%TO.N,Net-(D3-A)*%
X32512000Y46545500D02*
X38862000Y52895500D01*
X38862000Y52895500D02*
X40132000Y52895500D01*
X22987000Y46545500D02*
X32512000Y46545500D01*
D26*
%TO.N,/I2C_SCL*%
X32834500Y32205500D02*
X30999000Y32205500D01*
X24237000Y7155500D02*
X22352000Y5270500D01*
X16002000Y5270500D02*
X14732000Y6540500D01*
X30999000Y32205500D02*
X30861000Y32067500D01*
X14732000Y6540500D02*
X12827000Y6540500D01*
X24237000Y8128000D02*
X24237000Y7155500D01*
X22352000Y5270500D02*
X16002000Y5270500D01*
%TO.N,/I2C_SDA*%
X32834500Y31555500D02*
X31627000Y31555500D01*
X30607000Y6540500D02*
X33147000Y6540500D01*
X21727000Y61150500D02*
X26807000Y56070500D01*
X19297000Y62865000D02*
X21011500Y61150500D01*
X21011500Y61150500D02*
X21727000Y61150500D01*
X31627000Y31555500D02*
X31623000Y31559500D01*
X26737000Y8128000D02*
X29019500Y8128000D01*
X29019500Y8128000D02*
X30607000Y6540500D01*
%TO.N,/SWIO*%
X30607000Y36105500D02*
X32834500Y36105500D01*
%TO.N,Net-(J4-Pin_1)*%
X12827000Y9080500D02*
X12827000Y11620500D01*
X12827000Y11620500D02*
X14732000Y13525500D01*
%TO.N,Net-(J3-Pin_1)*%
X33147000Y9080500D02*
X33147000Y11620500D01*
X33147000Y11620500D02*
X31242000Y13525500D01*
%TO.N,/BUZZER*%
X19812000Y39560500D02*
X22352000Y39560500D01*
X27432000Y44005500D02*
X28067000Y44005500D01*
X22352000Y39560500D02*
X22987000Y40195500D01*
X23622000Y40195500D02*
X27432000Y44005500D01*
X22987000Y40195500D02*
X23622000Y40195500D01*
%TO.N,PA1*%
X21717000Y33210500D02*
X11557000Y33210500D01*
X11557000Y33210500D02*
X7747000Y29400500D01*
X27109500Y34805500D02*
X23312000Y34805500D01*
X23312000Y34805500D02*
X21717000Y33210500D01*
%TO.N,PD4*%
X23372000Y37405500D02*
X21717000Y35750500D01*
X21717000Y35750500D02*
X7747000Y35750500D01*
X7747000Y35750500D02*
X6477000Y34480500D01*
X27109500Y37405500D02*
X23372000Y37405500D01*
%TO.N,PD5*%
X9652000Y35115500D02*
X9017000Y34480500D01*
X27109500Y36755500D02*
X23357000Y36755500D01*
X21717000Y35115500D02*
X9652000Y35115500D01*
X23357000Y36755500D02*
X21717000Y35115500D01*
%TO.N,PD2*%
X30479671Y36755500D02*
X32834500Y36755500D01*
X21642101Y37655500D02*
X23227101Y39240500D01*
X27994671Y39240500D02*
X30479671Y36755500D01*
X23227101Y39240500D02*
X27994671Y39240500D01*
X17907000Y37655500D02*
X21642101Y37655500D01*
%TO.N,PD3*%
X18542000Y38290500D02*
X21711415Y38290500D01*
X21711415Y38290500D02*
X23061415Y39640500D01*
X23061415Y39640500D02*
X28160357Y39640500D01*
X28160357Y39640500D02*
X30395357Y37405500D01*
X30395357Y37405500D02*
X32834500Y37405500D01*
%TO.N,PD7*%
X23327000Y35455500D02*
X27109500Y35455500D01*
X14732000Y33845500D02*
X21717000Y33845500D01*
X21717000Y33845500D02*
X23327000Y35455500D01*
%TO.N,PA2*%
X13462000Y32575500D02*
X21717000Y32575500D01*
X23297000Y34155500D02*
X27109500Y34155500D01*
X21717000Y32575500D02*
X23297000Y34155500D01*
X10287000Y29400500D02*
X13462000Y32575500D01*
%TO.N,PD6*%
X12192000Y34480500D02*
X21717000Y34480500D01*
X21717000Y34480500D02*
X23342000Y36105500D01*
X23342000Y36105500D02*
X27109500Y36105500D01*
%TO.N,Net-(U1-PD0)*%
X23221748Y31305500D02*
X21316748Y29400500D01*
X25590674Y32855500D02*
X24040674Y31305500D01*
X24040674Y31305500D02*
X23221748Y31305500D01*
X27109500Y32855500D02*
X25590674Y32855500D01*
X21316748Y29400500D02*
X19812000Y29400500D01*
%TO.N,Net-(U1-PC0)*%
X10997000Y22125500D02*
X4497000Y22125500D01*
X23828125Y28130500D02*
X18542000Y28130500D01*
X18542000Y28130500D02*
X17907000Y27495500D01*
X27109500Y31411875D02*
X23828125Y28130500D01*
X27109500Y31555500D02*
X27109500Y31411875D01*
%TO.N,Net-(U1-PC3)*%
X26237000Y19930500D02*
X19737000Y19930500D01*
X28982000Y32855500D02*
X32834500Y32855500D01*
X28702000Y32575500D02*
X28982000Y32855500D01*
%TO.N,Net-(U1-PC4)*%
X34417000Y32578956D02*
X33490456Y33505500D01*
X34902000Y22125500D02*
X41402000Y22125500D01*
X33490456Y33505500D02*
X32834500Y33505500D01*
X34417000Y32575500D02*
X34417000Y32578956D01*
%TD*%
%TA.AperFunction,Conductor*%
%TO.N,GND*%
G36*
X28216500Y35668211D02*
G01*
X29359681Y34525030D01*
X29439605Y34478886D01*
X29528749Y34455000D01*
X31805117Y34455000D01*
X31863308Y34436093D01*
X31899272Y34386593D01*
X31900645Y34330010D01*
X31899414Y34325487D01*
X31896500Y34300370D01*
X31896500Y34010641D01*
X31896501Y34010636D01*
X31899414Y33985510D01*
X31909166Y33963425D01*
X31933600Y33908086D01*
X31948500Y33874343D01*
X31946126Y33873295D01*
X31959537Y33827743D01*
X31946477Y33787551D01*
X31948500Y33786657D01*
X31944794Y33778266D01*
X31944794Y33778265D01*
X31913770Y33708002D01*
X31899414Y33675489D01*
X31896500Y33650370D01*
X31896500Y33360641D01*
X31896501Y33360636D01*
X31899414Y33335510D01*
X31917307Y33294988D01*
X31923515Y33234119D01*
X31892759Y33181225D01*
X31836787Y33156511D01*
X31826742Y33156000D01*
X28942435Y33156000D01*
X28866012Y33135522D01*
X28818196Y33107915D01*
X28818195Y33107915D01*
X28791869Y33092716D01*
X28791139Y33093980D01*
X28740462Y33076034D01*
X28737870Y33076000D01*
X28630035Y33076000D01*
X28491949Y33035454D01*
X28491942Y33035451D01*
X28418885Y32988500D01*
X28359710Y32972945D01*
X28302693Y32995144D01*
X28269614Y33046617D01*
X28273108Y33107703D01*
X28273898Y33109669D01*
X28331555Y33248869D01*
X28339011Y33305500D01*
X25879989Y33305500D01*
X25884936Y33267922D01*
X25873786Y33207761D01*
X25829403Y33165644D01*
X25786783Y33156000D01*
X25551109Y33156000D01*
X25474686Y33135522D01*
X25426871Y33107917D01*
X25426872Y33107916D01*
X25406160Y33095958D01*
X25063293Y32753092D01*
X25008777Y32725315D01*
X24948345Y32734886D01*
X24905080Y32778151D01*
X24897663Y32797473D01*
X24848266Y32981825D01*
X24752134Y33187982D01*
X24701026Y33260973D01*
X24022000Y32581947D01*
X24022000Y32588161D01*
X23994741Y32689894D01*
X23942080Y32781106D01*
X23867606Y32855580D01*
X23776394Y32908241D01*
X23674661Y32935500D01*
X23668446Y32935500D01*
X24347472Y33614528D01*
X24274480Y33665635D01*
X24273110Y33666274D01*
X24272679Y33666676D01*
X24270732Y33667800D01*
X24270991Y33668250D01*
X24228361Y33708002D01*
X24216685Y33768063D01*
X24242541Y33823516D01*
X24296054Y33853181D01*
X24314947Y33855000D01*
X25786782Y33855000D01*
X25844973Y33836093D01*
X25880937Y33786593D01*
X25884935Y33743078D01*
X25879987Y33705501D01*
X25879988Y33705500D01*
X28339011Y33705500D01*
X28339011Y33705501D01*
X28331556Y33762128D01*
X28331554Y33762136D01*
X28271100Y33908086D01*
X28271098Y33908090D01*
X28174929Y34033420D01*
X28174923Y34033426D01*
X28086231Y34101482D01*
X28051576Y34151907D01*
X28047499Y34180024D01*
X28047499Y34300361D01*
X28047499Y34300364D01*
X28044585Y34325491D01*
X27999206Y34428265D01*
X27999205Y34428266D01*
X27995500Y34436657D01*
X27997875Y34437706D01*
X27984462Y34483239D01*
X27997526Y34523449D01*
X27995500Y34524343D01*
X27999204Y34532734D01*
X27999206Y34532735D01*
X28044585Y34635509D01*
X28047500Y34660635D01*
X28047499Y34950364D01*
X28044585Y34975491D01*
X27999206Y35078265D01*
X27999205Y35078266D01*
X27995500Y35086657D01*
X27997875Y35087706D01*
X27984462Y35133239D01*
X27997526Y35173449D01*
X27995500Y35174343D01*
X27999204Y35182734D01*
X27999206Y35182735D01*
X28044585Y35285509D01*
X28047500Y35310635D01*
X28047499Y35598206D01*
X28066406Y35656395D01*
X28115906Y35692359D01*
X28177091Y35692360D01*
X28216500Y35668211D01*
G37*
%TD.AperFunction*%
%TA.AperFunction,Conductor*%
G36*
X27634433Y42916020D02*
G01*
X27671522Y42867358D01*
X27672925Y42806188D01*
X27638106Y42755877D01*
X27607427Y42740808D01*
X27607572Y42740410D01*
X27603887Y42739070D01*
X27603729Y42738991D01*
X27603518Y42738935D01*
X27603505Y42738930D01*
X27389432Y42639106D01*
X27389424Y42639102D01*
X27195926Y42503614D01*
X27028886Y42336574D01*
X26893398Y42143076D01*
X26893394Y42143068D01*
X26793570Y41928995D01*
X26736364Y41715500D01*
X27633988Y41715500D01*
X27601075Y41658493D01*
X27567000Y41531326D01*
X27567000Y41399674D01*
X27601075Y41272507D01*
X27633988Y41215500D01*
X26736364Y41215500D01*
X26793569Y41002011D01*
X26893399Y40787923D01*
X27028886Y40594427D01*
X27195926Y40427387D01*
X27389422Y40291900D01*
X27603510Y40192070D01*
X27814156Y40135627D01*
X27865470Y40102303D01*
X27887397Y40045181D01*
X27871561Y39986081D01*
X27824012Y39947576D01*
X27788533Y39941000D01*
X24031479Y39941000D01*
X23973288Y39959907D01*
X23937324Y40009407D01*
X23937324Y40070593D01*
X23961475Y40110004D01*
X24639394Y40787923D01*
X26738437Y42886968D01*
X26792952Y42914743D01*
X26806167Y42915936D01*
X27575825Y42933588D01*
X27634433Y42916020D01*
G37*
%TD.AperFunction*%
%TA.AperFunction,Conductor*%
G36*
X36281191Y70473593D02*
G01*
X36317155Y70424093D01*
X36322000Y70393500D01*
X36322000Y63690500D01*
X38862000Y61150500D01*
X45374500Y61150500D01*
X45432691Y61131593D01*
X45468655Y61082093D01*
X45473500Y61051500D01*
X45473500Y48415000D01*
X45454593Y48356809D01*
X45405093Y48320845D01*
X45374500Y48316000D01*
X42102892Y48316000D01*
X41971108Y48316000D01*
X41893200Y48295125D01*
X41843809Y48281891D01*
X41729690Y48216004D01*
X41636496Y48122810D01*
X41570609Y48008691D01*
X41570608Y48008686D01*
X41536500Y47881392D01*
X41536500Y37721392D01*
X41536500Y37589608D01*
X41566579Y37477349D01*
X41570609Y37462310D01*
X41636496Y37348191D01*
X41636498Y37348189D01*
X41636500Y37348186D01*
X41729686Y37255000D01*
X41729688Y37254999D01*
X41729690Y37254997D01*
X41843810Y37189110D01*
X41843808Y37189110D01*
X41843812Y37189109D01*
X41843814Y37189108D01*
X41971108Y37155000D01*
X45374500Y37155000D01*
X45432691Y37136093D01*
X45468655Y37086593D01*
X45473500Y37056000D01*
X45473500Y9814500D01*
X45454593Y9756309D01*
X45405093Y9720345D01*
X45374500Y9715500D01*
X38862000Y9715500D01*
X36322000Y7175500D01*
X36322000Y7175499D01*
X36322000Y599500D01*
X36303093Y541309D01*
X36253593Y505345D01*
X36223000Y500500D01*
X9751000Y500500D01*
X9692809Y519407D01*
X9656845Y568907D01*
X9652000Y599500D01*
X9652000Y6540504D01*
X11771417Y6540504D01*
X11771417Y6540497D01*
X11791698Y6334571D01*
X11791699Y6334566D01*
X11851768Y6136546D01*
X11949316Y5954048D01*
X12045611Y5836712D01*
X12080590Y5794090D01*
X12080595Y5794086D01*
X12240547Y5662817D01*
X12240548Y5662817D01*
X12240550Y5662815D01*
X12423046Y5565268D01*
X12560997Y5523422D01*
X12621065Y5505200D01*
X12621070Y5505199D01*
X12826997Y5484917D01*
X12827000Y5484917D01*
X12827003Y5484917D01*
X13032929Y5505199D01*
X13032934Y5505200D01*
X13230954Y5565268D01*
X13240918Y5570595D01*
X13252321Y5575790D01*
X13255171Y5576877D01*
X13255179Y5576879D01*
X14536394Y6215565D01*
X14596904Y6224604D01*
X14650562Y6196967D01*
X15761540Y5085989D01*
X15761539Y5085989D01*
X15817489Y5030040D01*
X15886007Y4990481D01*
X15886011Y4990479D01*
X15962435Y4970001D01*
X15962437Y4970000D01*
X15962438Y4970000D01*
X22391563Y4970000D01*
X22391563Y4970001D01*
X22467989Y4990479D01*
X22536511Y5030040D01*
X22592460Y5085989D01*
X24467164Y6960694D01*
X24517852Y6987785D01*
X24543420Y6992870D01*
X24734598Y7072059D01*
X24906655Y7187023D01*
X25052977Y7333345D01*
X25167941Y7505402D01*
X25247130Y7696580D01*
X25287500Y7899535D01*
X25287500Y8356465D01*
X25287499Y8356468D01*
X25686500Y8356468D01*
X25686500Y7899533D01*
X25726869Y7696582D01*
X25806058Y7505403D01*
X25907881Y7353013D01*
X25921023Y7333345D01*
X26067345Y7187023D01*
X26239402Y7072059D01*
X26430580Y6992870D01*
X26633535Y6952500D01*
X26633536Y6952500D01*
X26840464Y6952500D01*
X26840465Y6952500D01*
X27043420Y6992870D01*
X27234598Y7072059D01*
X27406655Y7187023D01*
X27552977Y7333345D01*
X27667941Y7505402D01*
X27747130Y7696580D01*
X27757321Y7747814D01*
X27787218Y7801198D01*
X27842783Y7826814D01*
X27854419Y7827500D01*
X28854021Y7827500D01*
X28912212Y7808593D01*
X28924025Y7798504D01*
X30366540Y6355989D01*
X30366539Y6355989D01*
X30422489Y6300040D01*
X30491007Y6260481D01*
X30491011Y6260479D01*
X30567435Y6240001D01*
X30567437Y6240000D01*
X30567438Y6240000D01*
X30646562Y6240000D01*
X31365281Y6240000D01*
X31409448Y6229602D01*
X32718820Y5576879D01*
X32725100Y5573880D01*
X32725831Y5573546D01*
X32725836Y5573545D01*
X32730658Y5571341D01*
X32730581Y5571174D01*
X32737825Y5568059D01*
X32743046Y5565268D01*
X32875059Y5525223D01*
X32941065Y5505200D01*
X32941070Y5505199D01*
X33146997Y5484917D01*
X33147000Y5484917D01*
X33147003Y5484917D01*
X33352929Y5505199D01*
X33352934Y5505200D01*
X33550954Y5565268D01*
X33733450Y5662815D01*
X33893410Y5794090D01*
X34024685Y5954050D01*
X34122232Y6136546D01*
X34182300Y6334566D01*
X34182301Y6334571D01*
X34202583Y6540497D01*
X34202583Y6540504D01*
X34182301Y6746430D01*
X34182300Y6746435D01*
X34159826Y6820522D01*
X34122232Y6944454D01*
X34024685Y7126950D01*
X33984841Y7175500D01*
X33893414Y7286905D01*
X33893410Y7286910D01*
X33893404Y7286915D01*
X33733452Y7418184D01*
X33550954Y7515732D01*
X33352934Y7575801D01*
X33352929Y7575802D01*
X33147003Y7596083D01*
X33146997Y7596083D01*
X32941070Y7575802D01*
X32941065Y7575801D01*
X32743051Y7515734D01*
X32743048Y7515733D01*
X32743046Y7515732D01*
X32733086Y7510410D01*
X32721710Y7505225D01*
X32718817Y7504122D01*
X31689671Y6991091D01*
X31440743Y6867000D01*
X31409447Y6851399D01*
X31365279Y6841000D01*
X30772479Y6841000D01*
X30714288Y6859907D01*
X30702475Y6869996D01*
X29976388Y7596083D01*
X29204011Y8368460D01*
X29204008Y8368462D01*
X29135492Y8408020D01*
X29135488Y8408022D01*
X29059064Y8428500D01*
X29059062Y8428500D01*
X27854419Y8428500D01*
X27796228Y8447407D01*
X27760264Y8496907D01*
X27757321Y8508186D01*
X27747130Y8559419D01*
X27715808Y8635036D01*
X27667941Y8750598D01*
X27552977Y8922655D01*
X27406655Y9068977D01*
X27406651Y9068980D01*
X27234597Y9183942D01*
X27043418Y9263131D01*
X26840467Y9303500D01*
X26840465Y9303500D01*
X26633535Y9303500D01*
X26633532Y9303500D01*
X26430581Y9263131D01*
X26239402Y9183942D01*
X26067348Y9068980D01*
X25921020Y8922652D01*
X25806058Y8750598D01*
X25726869Y8559419D01*
X25686500Y8356468D01*
X25287499Y8356468D01*
X25247130Y8559420D01*
X25167941Y8750598D01*
X25052977Y8922655D01*
X24906655Y9068977D01*
X24906651Y9068980D01*
X24734597Y9183942D01*
X24543418Y9263131D01*
X24340467Y9303500D01*
X24340465Y9303500D01*
X24133535Y9303500D01*
X24133532Y9303500D01*
X23930581Y9263131D01*
X23739402Y9183942D01*
X23567348Y9068980D01*
X23421020Y8922652D01*
X23306058Y8750598D01*
X23226869Y8559419D01*
X23186500Y8356468D01*
X23186500Y7899533D01*
X23226869Y7696582D01*
X23306058Y7505403D01*
X23407881Y7353013D01*
X23421023Y7333345D01*
X23567345Y7187023D01*
X23567348Y7187021D01*
X23632615Y7143411D01*
X23670495Y7095361D01*
X23672897Y7034223D01*
X23647618Y6991091D01*
X22256525Y5599996D01*
X22202008Y5572219D01*
X22186521Y5571000D01*
X16167479Y5571000D01*
X16109288Y5589907D01*
X16097475Y5599996D01*
X15560925Y6136546D01*
X14916511Y6780960D01*
X14869182Y6808285D01*
X14847989Y6820521D01*
X14847986Y6820522D01*
X14771564Y6841000D01*
X14771562Y6841000D01*
X14608720Y6841000D01*
X14564552Y6851399D01*
X14533256Y6867000D01*
X14197804Y7034223D01*
X13255198Y7504113D01*
X13248960Y7507093D01*
X13243409Y7509631D01*
X13243482Y7509792D01*
X13236222Y7512917D01*
X13230954Y7515732D01*
X13209195Y7522333D01*
X13032934Y7575801D01*
X13032929Y7575802D01*
X12827003Y7596083D01*
X12826997Y7596083D01*
X12621070Y7575802D01*
X12621065Y7575801D01*
X12423045Y7515732D01*
X12240547Y7418184D01*
X12080595Y7286915D01*
X12080585Y7286905D01*
X11949316Y7126953D01*
X11851768Y6944455D01*
X11791699Y6746435D01*
X11791698Y6746430D01*
X11771417Y6540504D01*
X9652000Y6540504D01*
X9652000Y7175499D01*
X9652000Y7175500D01*
X7112000Y9715500D01*
X7111999Y9715500D01*
X599500Y9715500D01*
X541309Y9734407D01*
X505345Y9783907D01*
X500500Y9814500D01*
X500500Y9937554D01*
X11776065Y9937554D01*
X11776500Y9932379D01*
X11776500Y8210754D01*
X11776501Y8210742D01*
X11788132Y8152273D01*
X11788133Y8152269D01*
X11832448Y8085948D01*
X11898769Y8041633D01*
X11943231Y8032789D01*
X11957241Y8030002D01*
X11957246Y8030002D01*
X11957252Y8030000D01*
X11957253Y8030000D01*
X13696747Y8030000D01*
X13696748Y8030000D01*
X13755231Y8041633D01*
X13821552Y8085948D01*
X13865867Y8152269D01*
X13877500Y8210752D01*
X13877500Y8902988D01*
X17887000Y8902988D01*
X17887000Y8378001D01*
X17887001Y8378000D01*
X18803988Y8378000D01*
X18771075Y8320993D01*
X18737000Y8193826D01*
X18737000Y8062174D01*
X18771075Y7935007D01*
X18803988Y7878000D01*
X17887002Y7878000D01*
X17887001Y7877999D01*
X17887001Y7353014D01*
X17897492Y7250313D01*
X17897495Y7250301D01*
X17952643Y7083876D01*
X18044680Y6934660D01*
X18168659Y6810681D01*
X18317875Y6718644D01*
X18484306Y6663494D01*
X18587012Y6653001D01*
X18986998Y6653001D01*
X18987000Y6653002D01*
X18987000Y7694988D01*
X19044007Y7662075D01*
X19171174Y7628000D01*
X19302826Y7628000D01*
X19429993Y7662075D01*
X19487000Y7694988D01*
X19487000Y6653002D01*
X19487001Y6653001D01*
X19886986Y6653001D01*
X19989687Y6663493D01*
X19989699Y6663496D01*
X20156124Y6718644D01*
X20305340Y6810681D01*
X20429319Y6934660D01*
X20521356Y7083876D01*
X20576506Y7250307D01*
X20586999Y7353013D01*
X20586999Y7536550D01*
X20605906Y7594741D01*
X20655406Y7630705D01*
X20716591Y7630706D01*
X20766091Y7594742D01*
X20777463Y7574437D01*
X20806058Y7505403D01*
X20907881Y7353013D01*
X20921023Y7333345D01*
X21067345Y7187023D01*
X21239402Y7072059D01*
X21430580Y6992870D01*
X21633535Y6952500D01*
X21633536Y6952500D01*
X21840464Y6952500D01*
X21840465Y6952500D01*
X22043420Y6992870D01*
X22234598Y7072059D01*
X22406655Y7187023D01*
X22552977Y7333345D01*
X22667941Y7505402D01*
X22747130Y7696580D01*
X22787500Y7899535D01*
X22787500Y8356465D01*
X22747130Y8559420D01*
X22667941Y8750598D01*
X22552977Y8922655D01*
X22406655Y9068977D01*
X22406651Y9068980D01*
X22234597Y9183942D01*
X22043418Y9263131D01*
X21840467Y9303500D01*
X21840465Y9303500D01*
X21633535Y9303500D01*
X21633532Y9303500D01*
X21430581Y9263131D01*
X21239402Y9183942D01*
X21067348Y9068980D01*
X20921020Y8922652D01*
X20806058Y8750598D01*
X20777463Y8681562D01*
X20737726Y8635036D01*
X20678231Y8620753D01*
X20621703Y8644168D01*
X20589734Y8696337D01*
X20586999Y8719448D01*
X20586999Y8902987D01*
X20576507Y9005688D01*
X20576504Y9005700D01*
X20521356Y9172125D01*
X20429319Y9321341D01*
X20305340Y9445320D01*
X20156124Y9537357D01*
X19989693Y9592507D01*
X19886987Y9603000D01*
X19487001Y9603000D01*
X19487000Y9602999D01*
X19487000Y8561012D01*
X19429993Y8593925D01*
X19302826Y8628000D01*
X19171174Y8628000D01*
X19044007Y8593925D01*
X18987000Y8561012D01*
X18987000Y9602999D01*
X18986999Y9603000D01*
X18587013Y9603000D01*
X18484312Y9592508D01*
X18484300Y9592505D01*
X18317875Y9537357D01*
X18168659Y9445320D01*
X18044680Y9321341D01*
X17952643Y9172125D01*
X17897493Y9005694D01*
X17887000Y8902988D01*
X13877500Y8902988D01*
X13877500Y9950248D01*
X13865867Y10008731D01*
X13839187Y10048660D01*
X13835916Y10053903D01*
X13823828Y10074693D01*
X13823824Y10074700D01*
X13698453Y10216787D01*
X13152266Y10835801D01*
X13127943Y10891944D01*
X13127500Y10901301D01*
X13127500Y11455022D01*
X13146407Y11513213D01*
X13156490Y11525020D01*
X14217731Y12586262D01*
X14272246Y12614037D01*
X14332678Y12604466D01*
X14334384Y12603575D01*
X14347273Y12596686D01*
X14484944Y12554924D01*
X14535867Y12539476D01*
X14535873Y12539475D01*
X14731997Y12520159D01*
X14732000Y12520159D01*
X14732003Y12520159D01*
X14928126Y12539475D01*
X14928127Y12539476D01*
X14928132Y12539476D01*
X15116727Y12596686D01*
X15290538Y12689590D01*
X15442883Y12814617D01*
X15567910Y12966962D01*
X15660814Y13140773D01*
X15718024Y13329368D01*
X15737341Y13525500D01*
X15737341Y13525504D01*
X30236659Y13525504D01*
X30236659Y13525497D01*
X30255974Y13329374D01*
X30255975Y13329371D01*
X30313187Y13140770D01*
X30313188Y13140768D01*
X30354677Y13063149D01*
X30406090Y12966962D01*
X30406092Y12966960D01*
X30406093Y12966958D01*
X30531112Y12814622D01*
X30531121Y12814613D01*
X30683457Y12689594D01*
X30683462Y12689590D01*
X30779647Y12638178D01*
X30842717Y12604466D01*
X30857273Y12596686D01*
X31045868Y12539476D01*
X31045870Y12539476D01*
X31045873Y12539475D01*
X31241997Y12520159D01*
X31242000Y12520159D01*
X31242003Y12520159D01*
X31438126Y12539475D01*
X31438132Y12539476D01*
X31626727Y12596686D01*
X31639591Y12603563D01*
X31699821Y12614324D01*
X31754875Y12587626D01*
X31756269Y12586260D01*
X32817504Y11525025D01*
X32845281Y11470508D01*
X32846500Y11455021D01*
X32846500Y10901301D01*
X32827593Y10843110D01*
X32821734Y10835800D01*
X32150173Y10074699D01*
X32132626Y10045583D01*
X32130152Y10041687D01*
X32108132Y10008731D01*
X32096500Y9950251D01*
X32096281Y9948032D01*
X32096065Y9937554D01*
X32096500Y9932379D01*
X32096500Y8210754D01*
X32096501Y8210742D01*
X32108132Y8152273D01*
X32108133Y8152269D01*
X32152448Y8085948D01*
X32218769Y8041633D01*
X32263231Y8032789D01*
X32277241Y8030002D01*
X32277246Y8030002D01*
X32277252Y8030000D01*
X32277253Y8030000D01*
X34016747Y8030000D01*
X34016748Y8030000D01*
X34075231Y8041633D01*
X34141552Y8085948D01*
X34185867Y8152269D01*
X34197500Y8210752D01*
X34197500Y9950248D01*
X34185867Y10008731D01*
X34159187Y10048660D01*
X34155916Y10053903D01*
X34143828Y10074693D01*
X34143824Y10074700D01*
X34018453Y10216787D01*
X33472266Y10835801D01*
X33447943Y10891944D01*
X33447500Y10901301D01*
X33447500Y11660063D01*
X33447499Y11660065D01*
X33427021Y11736489D01*
X33427019Y11736493D01*
X33387460Y11805011D01*
X33331511Y11860961D01*
X33331511Y11860960D01*
X32181240Y13011231D01*
X32153463Y13065748D01*
X32163034Y13126180D01*
X32163898Y13127835D01*
X32170814Y13140773D01*
X32228024Y13329368D01*
X32247341Y13525500D01*
X32247341Y13525504D01*
X40396659Y13525504D01*
X40396659Y13525497D01*
X40415974Y13329374D01*
X40415975Y13329371D01*
X40473187Y13140770D01*
X40473188Y13140768D01*
X40514677Y13063149D01*
X40566090Y12966962D01*
X40566092Y12966960D01*
X40566093Y12966958D01*
X40691112Y12814622D01*
X40691121Y12814613D01*
X40843457Y12689594D01*
X40843462Y12689590D01*
X40939647Y12638178D01*
X41002717Y12604466D01*
X41017273Y12596686D01*
X41205868Y12539476D01*
X41205870Y12539476D01*
X41205873Y12539475D01*
X41401997Y12520159D01*
X41402000Y12520159D01*
X41402003Y12520159D01*
X41598126Y12539475D01*
X41598127Y12539476D01*
X41598132Y12539476D01*
X41786727Y12596686D01*
X41960538Y12689590D01*
X42112883Y12814617D01*
X42237910Y12966962D01*
X42330814Y13140773D01*
X42388024Y13329368D01*
X42407341Y13525500D01*
X42407341Y13525504D01*
X42388025Y13721627D01*
X42388024Y13721630D01*
X42388024Y13721632D01*
X42330814Y13910227D01*
X42237910Y14084038D01*
X42237906Y14084043D01*
X42112887Y14236379D01*
X42112878Y14236388D01*
X41960542Y14361407D01*
X41960540Y14361408D01*
X41960538Y14361410D01*
X41919618Y14383282D01*
X41786732Y14454312D01*
X41786730Y14454313D01*
X41598129Y14511525D01*
X41598126Y14511526D01*
X41402003Y14530841D01*
X41401997Y14530841D01*
X41205873Y14511526D01*
X41205870Y14511525D01*
X41017269Y14454313D01*
X41017267Y14454312D01*
X40843467Y14361413D01*
X40843457Y14361407D01*
X40691121Y14236388D01*
X40691112Y14236379D01*
X40566093Y14084043D01*
X40566087Y14084033D01*
X40473188Y13910233D01*
X40473187Y13910231D01*
X40415975Y13721630D01*
X40415974Y13721627D01*
X40396659Y13525504D01*
X32247341Y13525504D01*
X32228025Y13721627D01*
X32228024Y13721630D01*
X32228024Y13721632D01*
X32170814Y13910227D01*
X32077910Y14084038D01*
X32077906Y14084043D01*
X31952887Y14236379D01*
X31952878Y14236388D01*
X31800542Y14361407D01*
X31800540Y14361408D01*
X31800538Y14361410D01*
X31759618Y14383282D01*
X31626732Y14454312D01*
X31626730Y14454313D01*
X31438129Y14511525D01*
X31438126Y14511526D01*
X31242003Y14530841D01*
X31241997Y14530841D01*
X31045873Y14511526D01*
X31045870Y14511525D01*
X30857269Y14454313D01*
X30857267Y14454312D01*
X30683467Y14361413D01*
X30683457Y14361407D01*
X30531121Y14236388D01*
X30531112Y14236379D01*
X30406093Y14084043D01*
X30406087Y14084033D01*
X30313188Y13910233D01*
X30313187Y13910231D01*
X30255975Y13721630D01*
X30255974Y13721627D01*
X30236659Y13525504D01*
X15737341Y13525504D01*
X15718025Y13721627D01*
X15718024Y13721630D01*
X15718024Y13721632D01*
X15660814Y13910227D01*
X15567910Y14084038D01*
X15567906Y14084043D01*
X15442887Y14236379D01*
X15442878Y14236388D01*
X15290542Y14361407D01*
X15290540Y14361408D01*
X15290538Y14361410D01*
X15249618Y14383282D01*
X15116732Y14454312D01*
X15116730Y14454313D01*
X14928129Y14511525D01*
X14928126Y14511526D01*
X14732003Y14530841D01*
X14731997Y14530841D01*
X14535873Y14511526D01*
X14535870Y14511525D01*
X14347269Y14454313D01*
X14347267Y14454312D01*
X14173467Y14361413D01*
X14173457Y14361407D01*
X14021121Y14236388D01*
X14021112Y14236379D01*
X13896093Y14084043D01*
X13896087Y14084033D01*
X13803188Y13910233D01*
X13803187Y13910231D01*
X13745975Y13721630D01*
X13745974Y13721627D01*
X13726659Y13525504D01*
X13726659Y13525497D01*
X13745974Y13329374D01*
X13745975Y13329371D01*
X13803186Y13140773D01*
X13810066Y13127901D01*
X13820820Y13067668D01*
X13794116Y13012617D01*
X13792758Y13011231D01*
X12642489Y11860960D01*
X12642488Y11860961D01*
X12586539Y11805011D01*
X12546980Y11736493D01*
X12546978Y11736489D01*
X12526500Y11660065D01*
X12526500Y10901301D01*
X12507593Y10843110D01*
X12501734Y10835800D01*
X11830173Y10074699D01*
X11812626Y10045583D01*
X11810152Y10041687D01*
X11788132Y10008731D01*
X11776500Y9950251D01*
X11776281Y9948032D01*
X11776065Y9937554D01*
X500500Y9937554D01*
X500500Y13525504D01*
X3566659Y13525504D01*
X3566659Y13525497D01*
X3585974Y13329374D01*
X3585975Y13329371D01*
X3643187Y13140770D01*
X3643188Y13140768D01*
X3684677Y13063149D01*
X3736090Y12966962D01*
X3736092Y12966960D01*
X3736093Y12966958D01*
X3861112Y12814622D01*
X3861121Y12814613D01*
X4013457Y12689594D01*
X4013462Y12689590D01*
X4109647Y12638178D01*
X4172717Y12604466D01*
X4187273Y12596686D01*
X4375868Y12539476D01*
X4375870Y12539476D01*
X4375873Y12539475D01*
X4571997Y12520159D01*
X4572000Y12520159D01*
X4572003Y12520159D01*
X4768126Y12539475D01*
X4768127Y12539476D01*
X4768132Y12539476D01*
X4956727Y12596686D01*
X5130538Y12689590D01*
X5282883Y12814617D01*
X5407910Y12966962D01*
X5500814Y13140773D01*
X5558024Y13329368D01*
X5577341Y13525500D01*
X5577341Y13525504D01*
X5558025Y13721627D01*
X5558024Y13721630D01*
X5558024Y13721632D01*
X5500814Y13910227D01*
X5407910Y14084038D01*
X5407906Y14084043D01*
X5282887Y14236379D01*
X5282878Y14236388D01*
X5130542Y14361407D01*
X5130540Y14361408D01*
X5130538Y14361410D01*
X5089618Y14383282D01*
X4956732Y14454312D01*
X4956730Y14454313D01*
X4768129Y14511525D01*
X4768126Y14511526D01*
X4572003Y14530841D01*
X4571997Y14530841D01*
X4375873Y14511526D01*
X4375870Y14511525D01*
X4187269Y14454313D01*
X4187267Y14454312D01*
X4013467Y14361413D01*
X4013457Y14361407D01*
X3861121Y14236388D01*
X3861112Y14236379D01*
X3736093Y14084043D01*
X3736087Y14084033D01*
X3643188Y13910233D01*
X3643187Y13910231D01*
X3585975Y13721630D01*
X3585974Y13721627D01*
X3566659Y13525504D01*
X500500Y13525504D01*
X500500Y15430500D01*
X18231859Y15430500D01*
X18252386Y15182764D01*
X18313412Y14941781D01*
X18413265Y14714137D01*
X18413270Y14714128D01*
X18513563Y14560619D01*
X19213211Y15260268D01*
X19224482Y15218208D01*
X19296890Y15092792D01*
X19399292Y14990390D01*
X19524708Y14917982D01*
X19566765Y14906713D01*
X18866943Y14206890D01*
X18913762Y14170449D01*
X18913765Y14170447D01*
X19132388Y14052134D01*
X19367513Y13971416D01*
X19612706Y13930500D01*
X19861294Y13930500D01*
X20106486Y13971416D01*
X20341611Y14052134D01*
X20560233Y14170446D01*
X20560237Y14170449D01*
X20607055Y14206890D01*
X19907232Y14906713D01*
X19949292Y14917982D01*
X20074708Y14990390D01*
X20177110Y15092792D01*
X20249518Y15218208D01*
X20260787Y15260267D01*
X20960435Y14560619D01*
X21060729Y14714128D01*
X21060734Y14714137D01*
X21160587Y14941781D01*
X21221613Y15182764D01*
X21242140Y15430500D01*
X24731859Y15430500D01*
X24752386Y15182764D01*
X24813412Y14941781D01*
X24913265Y14714137D01*
X24913270Y14714128D01*
X25013563Y14560619D01*
X25713211Y15260268D01*
X25724482Y15218208D01*
X25796890Y15092792D01*
X25899292Y14990390D01*
X26024708Y14917982D01*
X26066765Y14906713D01*
X25366943Y14206890D01*
X25413762Y14170449D01*
X25413765Y14170447D01*
X25632388Y14052134D01*
X25867513Y13971416D01*
X26112706Y13930500D01*
X26361294Y13930500D01*
X26606486Y13971416D01*
X26841611Y14052134D01*
X27060233Y14170446D01*
X27060237Y14170449D01*
X27107055Y14206890D01*
X26407232Y14906713D01*
X26449292Y14917982D01*
X26574708Y14990390D01*
X26677110Y15092792D01*
X26749518Y15218208D01*
X26760787Y15260267D01*
X27460435Y14560619D01*
X27560729Y14714128D01*
X27560734Y14714137D01*
X27660587Y14941781D01*
X27721613Y15182764D01*
X27742140Y15430500D01*
X27721613Y15678237D01*
X27660587Y15919220D01*
X27560734Y16146864D01*
X27560729Y16146873D01*
X27460435Y16300383D01*
X26760787Y15600736D01*
X26749518Y15642792D01*
X26677110Y15768208D01*
X26574708Y15870610D01*
X26449292Y15943018D01*
X26407232Y15954288D01*
X27107055Y16654111D01*
X27107055Y16654112D01*
X27060237Y16690552D01*
X27060234Y16690554D01*
X26841611Y16808867D01*
X26606486Y16889585D01*
X26361294Y16930500D01*
X26112706Y16930500D01*
X25867513Y16889585D01*
X25632388Y16808867D01*
X25413767Y16690555D01*
X25366943Y16654112D01*
X26066767Y15954288D01*
X26024708Y15943018D01*
X25899292Y15870610D01*
X25796890Y15768208D01*
X25724482Y15642792D01*
X25713212Y15600734D01*
X25013564Y16300382D01*
X24913268Y16146868D01*
X24813412Y15919217D01*
X24752386Y15678237D01*
X24731859Y15430500D01*
X21242140Y15430500D01*
X21221613Y15678237D01*
X21160587Y15919220D01*
X21060734Y16146864D01*
X21060729Y16146873D01*
X20960435Y16300383D01*
X20260787Y15600736D01*
X20249518Y15642792D01*
X20177110Y15768208D01*
X20074708Y15870610D01*
X19949292Y15943018D01*
X19907232Y15954288D01*
X20607055Y16654111D01*
X20607055Y16654112D01*
X20560237Y16690552D01*
X20560234Y16690554D01*
X20341611Y16808867D01*
X20106486Y16889585D01*
X19861294Y16930500D01*
X19612706Y16930500D01*
X19367513Y16889585D01*
X19132388Y16808867D01*
X18913767Y16690555D01*
X18866943Y16654112D01*
X19566767Y15954288D01*
X19524708Y15943018D01*
X19399292Y15870610D01*
X19296890Y15768208D01*
X19224482Y15642792D01*
X19213212Y15600734D01*
X18513564Y16300382D01*
X18413268Y16146868D01*
X18313412Y15919217D01*
X18252386Y15678237D01*
X18231859Y15430500D01*
X500500Y15430500D01*
X500500Y17625500D01*
X2991859Y17625500D01*
X3012386Y17377764D01*
X3073412Y17136781D01*
X3173265Y16909137D01*
X3173270Y16909128D01*
X3273563Y16755619D01*
X3973211Y17455268D01*
X3984482Y17413208D01*
X4056890Y17287792D01*
X4159292Y17185390D01*
X4284708Y17112982D01*
X4326765Y17101713D01*
X3626943Y16401890D01*
X3673762Y16365449D01*
X3673765Y16365447D01*
X3892388Y16247134D01*
X4127513Y16166416D01*
X4372706Y16125500D01*
X4621294Y16125500D01*
X4866486Y16166416D01*
X5101611Y16247134D01*
X5320233Y16365446D01*
X5320237Y16365449D01*
X5367055Y16401890D01*
X4667232Y17101713D01*
X4709292Y17112982D01*
X4834708Y17185390D01*
X4937110Y17287792D01*
X5009518Y17413208D01*
X5020787Y17455267D01*
X5720435Y16755619D01*
X5820729Y16909128D01*
X5820734Y16909137D01*
X5920587Y17136781D01*
X5981613Y17377764D01*
X6002140Y17625500D01*
X9491859Y17625500D01*
X9512386Y17377764D01*
X9573412Y17136781D01*
X9673265Y16909137D01*
X9673270Y16909128D01*
X9773563Y16755619D01*
X10473211Y17455268D01*
X10484482Y17413208D01*
X10556890Y17287792D01*
X10659292Y17185390D01*
X10784708Y17112982D01*
X10826765Y17101713D01*
X10126943Y16401890D01*
X10173762Y16365449D01*
X10173765Y16365447D01*
X10392388Y16247134D01*
X10627513Y16166416D01*
X10872706Y16125500D01*
X11121294Y16125500D01*
X11366486Y16166416D01*
X11601611Y16247134D01*
X11820233Y16365446D01*
X11820237Y16365449D01*
X11867055Y16401890D01*
X11167232Y17101713D01*
X11209292Y17112982D01*
X11334708Y17185390D01*
X11437110Y17287792D01*
X11509518Y17413208D01*
X11520787Y17455267D01*
X12220435Y16755619D01*
X12320729Y16909128D01*
X12320734Y16909137D01*
X12420587Y17136781D01*
X12481613Y17377764D01*
X12502140Y17625500D01*
X12481613Y17873237D01*
X12420587Y18114220D01*
X12320734Y18341864D01*
X12320729Y18341873D01*
X12220435Y18495383D01*
X11520787Y17795736D01*
X11509518Y17837792D01*
X11437110Y17963208D01*
X11334708Y18065610D01*
X11209292Y18138018D01*
X11167232Y18149288D01*
X11867055Y18849111D01*
X11867055Y18849112D01*
X11820237Y18885552D01*
X11820234Y18885554D01*
X11601611Y19003867D01*
X11366486Y19084585D01*
X11121294Y19125500D01*
X10872706Y19125500D01*
X10627513Y19084585D01*
X10392388Y19003867D01*
X10173767Y18885555D01*
X10126943Y18849112D01*
X10826767Y18149288D01*
X10784708Y18138018D01*
X10659292Y18065610D01*
X10556890Y17963208D01*
X10484482Y17837792D01*
X10473212Y17795734D01*
X9773564Y18495382D01*
X9673268Y18341868D01*
X9573412Y18114217D01*
X9512386Y17873237D01*
X9491859Y17625500D01*
X6002140Y17625500D01*
X5981613Y17873237D01*
X5920587Y18114220D01*
X5820734Y18341864D01*
X5820729Y18341873D01*
X5720435Y18495383D01*
X5020787Y17795736D01*
X5009518Y17837792D01*
X4937110Y17963208D01*
X4834708Y18065610D01*
X4709292Y18138018D01*
X4667232Y18149288D01*
X5367055Y18849111D01*
X5367055Y18849112D01*
X5320237Y18885552D01*
X5320234Y18885554D01*
X5101611Y19003867D01*
X4866486Y19084585D01*
X4621294Y19125500D01*
X4372706Y19125500D01*
X4127513Y19084585D01*
X3892388Y19003867D01*
X3673767Y18885555D01*
X3626943Y18849112D01*
X4326767Y18149288D01*
X4284708Y18138018D01*
X4159292Y18065610D01*
X4056890Y17963208D01*
X3984482Y17837792D01*
X3973212Y17795734D01*
X3273564Y18495382D01*
X3173268Y18341868D01*
X3073412Y18114217D01*
X3012386Y17873237D01*
X2991859Y17625500D01*
X500500Y17625500D01*
X500500Y19187676D01*
X13266500Y19187676D01*
X13266500Y18912325D01*
X13270025Y18885552D01*
X13302440Y18639334D01*
X13341011Y18495383D01*
X13373704Y18373369D01*
X13479074Y18118984D01*
X13479077Y18118979D01*
X13616751Y17880521D01*
X13784372Y17662072D01*
X13979072Y17467372D01*
X14197521Y17299751D01*
X14435979Y17162077D01*
X14435980Y17162077D01*
X14435983Y17162075D01*
X14554504Y17112982D01*
X14690368Y17056705D01*
X14956334Y16985440D01*
X15229326Y16949500D01*
X15229327Y16949500D01*
X15504673Y16949500D01*
X15504674Y16949500D01*
X15777666Y16985440D01*
X16043632Y17056705D01*
X16298021Y17162077D01*
X16536479Y17299751D01*
X16754928Y17467372D01*
X16949628Y17662072D01*
X17117249Y17880521D01*
X17254923Y18118979D01*
X17360295Y18373368D01*
X17431560Y18639334D01*
X17467500Y18912326D01*
X17467500Y19187674D01*
X17431560Y19460666D01*
X17360295Y19726632D01*
X17275850Y19930500D01*
X18531357Y19930500D01*
X18551885Y19708964D01*
X18612771Y19494972D01*
X18711942Y19295811D01*
X18846019Y19118264D01*
X19010438Y18968376D01*
X19199599Y18851253D01*
X19407060Y18770882D01*
X19625757Y18730000D01*
X19848243Y18730000D01*
X20066940Y18770882D01*
X20274401Y18851253D01*
X20463562Y18968376D01*
X20627981Y19118264D01*
X20762058Y19295811D01*
X20861229Y19494972D01*
X20879189Y19558095D01*
X20913299Y19608888D01*
X20970751Y19629932D01*
X20974409Y19630000D01*
X24999591Y19630000D01*
X25057782Y19611093D01*
X25093746Y19561593D01*
X25094803Y19558122D01*
X25112771Y19494972D01*
X25211942Y19295811D01*
X25346019Y19118264D01*
X25510438Y18968376D01*
X25699599Y18851253D01*
X25907060Y18770882D01*
X26125757Y18730000D01*
X26348243Y18730000D01*
X26566940Y18770882D01*
X26774401Y18851253D01*
X26963562Y18968376D01*
X27127981Y19118264D01*
X27180398Y19187676D01*
X28506500Y19187676D01*
X28506500Y18912325D01*
X28510025Y18885552D01*
X28542440Y18639334D01*
X28581011Y18495383D01*
X28613704Y18373369D01*
X28719074Y18118984D01*
X28719077Y18118979D01*
X28856751Y17880521D01*
X29024372Y17662072D01*
X29219072Y17467372D01*
X29437521Y17299751D01*
X29675979Y17162077D01*
X29675980Y17162077D01*
X29675983Y17162075D01*
X29794504Y17112982D01*
X29930368Y17056705D01*
X30196334Y16985440D01*
X30469326Y16949500D01*
X30469327Y16949500D01*
X30744673Y16949500D01*
X30744674Y16949500D01*
X31017666Y16985440D01*
X31283632Y17056705D01*
X31538021Y17162077D01*
X31776479Y17299751D01*
X31994928Y17467372D01*
X32153056Y17625500D01*
X33396859Y17625500D01*
X33417386Y17377764D01*
X33478412Y17136781D01*
X33578265Y16909137D01*
X33578270Y16909128D01*
X33678563Y16755619D01*
X34378211Y17455268D01*
X34389482Y17413208D01*
X34461890Y17287792D01*
X34564292Y17185390D01*
X34689708Y17112982D01*
X34731765Y17101713D01*
X34031943Y16401890D01*
X34078762Y16365449D01*
X34078765Y16365447D01*
X34297388Y16247134D01*
X34532513Y16166416D01*
X34777706Y16125500D01*
X35026294Y16125500D01*
X35271486Y16166416D01*
X35506611Y16247134D01*
X35725233Y16365446D01*
X35725237Y16365449D01*
X35772055Y16401890D01*
X35072232Y17101713D01*
X35114292Y17112982D01*
X35239708Y17185390D01*
X35342110Y17287792D01*
X35414518Y17413208D01*
X35425787Y17455267D01*
X36125435Y16755619D01*
X36225729Y16909128D01*
X36225734Y16909137D01*
X36325587Y17136781D01*
X36386613Y17377764D01*
X36407140Y17625500D01*
X39896859Y17625500D01*
X39917386Y17377764D01*
X39978412Y17136781D01*
X40078265Y16909137D01*
X40078270Y16909128D01*
X40178563Y16755619D01*
X40878211Y17455268D01*
X40889482Y17413208D01*
X40961890Y17287792D01*
X41064292Y17185390D01*
X41189708Y17112982D01*
X41231765Y17101713D01*
X40531943Y16401890D01*
X40578762Y16365449D01*
X40578765Y16365447D01*
X40797388Y16247134D01*
X41032513Y16166416D01*
X41277706Y16125500D01*
X41526294Y16125500D01*
X41771486Y16166416D01*
X42006611Y16247134D01*
X42225233Y16365446D01*
X42225237Y16365449D01*
X42272055Y16401890D01*
X41572232Y17101713D01*
X41614292Y17112982D01*
X41739708Y17185390D01*
X41842110Y17287792D01*
X41914518Y17413208D01*
X41925787Y17455267D01*
X42625435Y16755619D01*
X42725729Y16909128D01*
X42725734Y16909137D01*
X42825587Y17136781D01*
X42886613Y17377764D01*
X42907140Y17625500D01*
X42886613Y17873237D01*
X42825587Y18114220D01*
X42725734Y18341864D01*
X42725729Y18341873D01*
X42625435Y18495383D01*
X41925787Y17795736D01*
X41914518Y17837792D01*
X41842110Y17963208D01*
X41739708Y18065610D01*
X41614292Y18138018D01*
X41572232Y18149288D01*
X42272055Y18849111D01*
X42272055Y18849112D01*
X42225237Y18885552D01*
X42225234Y18885554D01*
X42006611Y19003867D01*
X41771486Y19084585D01*
X41526294Y19125500D01*
X41277706Y19125500D01*
X41032513Y19084585D01*
X40797388Y19003867D01*
X40578767Y18885555D01*
X40531943Y18849112D01*
X41231767Y18149288D01*
X41189708Y18138018D01*
X41064292Y18065610D01*
X40961890Y17963208D01*
X40889482Y17837792D01*
X40878212Y17795734D01*
X40178564Y18495382D01*
X40078268Y18341868D01*
X39978412Y18114217D01*
X39917386Y17873237D01*
X39896859Y17625500D01*
X36407140Y17625500D01*
X36386613Y17873237D01*
X36325587Y18114220D01*
X36225734Y18341864D01*
X36225729Y18341873D01*
X36125435Y18495383D01*
X35425787Y17795736D01*
X35414518Y17837792D01*
X35342110Y17963208D01*
X35239708Y18065610D01*
X35114292Y18138018D01*
X35072232Y18149288D01*
X35772055Y18849111D01*
X35772055Y18849112D01*
X35725237Y18885552D01*
X35725234Y18885554D01*
X35506611Y19003867D01*
X35271486Y19084585D01*
X35026294Y19125500D01*
X34777706Y19125500D01*
X34532513Y19084585D01*
X34297388Y19003867D01*
X34078767Y18885555D01*
X34031943Y18849112D01*
X34731767Y18149288D01*
X34689708Y18138018D01*
X34564292Y18065610D01*
X34461890Y17963208D01*
X34389482Y17837792D01*
X34378212Y17795734D01*
X33678564Y18495382D01*
X33578268Y18341868D01*
X33478412Y18114217D01*
X33417386Y17873237D01*
X33396859Y17625500D01*
X32153056Y17625500D01*
X32189628Y17662072D01*
X32357249Y17880521D01*
X32494923Y18118979D01*
X32600295Y18373368D01*
X32671560Y18639334D01*
X32707500Y18912326D01*
X32707500Y19187674D01*
X32671560Y19460666D01*
X32600295Y19726632D01*
X32494923Y19981021D01*
X32357249Y20219479D01*
X32348356Y20231068D01*
X32293233Y20302907D01*
X32189628Y20437928D01*
X31994928Y20632628D01*
X31851432Y20742736D01*
X31776482Y20800247D01*
X31538016Y20937926D01*
X31283631Y21043296D01*
X31162521Y21075747D01*
X31017666Y21114560D01*
X31017659Y21114561D01*
X30744675Y21150500D01*
X30744674Y21150500D01*
X30469326Y21150500D01*
X30469324Y21150500D01*
X30196340Y21114561D01*
X30196338Y21114561D01*
X30196334Y21114560D01*
X30105115Y21090118D01*
X29930368Y21043296D01*
X29675983Y20937926D01*
X29437517Y20800247D01*
X29219075Y20632631D01*
X29024369Y20437925D01*
X28856753Y20219483D01*
X28719074Y19981017D01*
X28613704Y19726632D01*
X28569483Y19561593D01*
X28542440Y19460666D01*
X28542439Y19460662D01*
X28542439Y19460660D01*
X28506500Y19187676D01*
X27180398Y19187676D01*
X27262058Y19295811D01*
X27361229Y19494972D01*
X27422115Y19708964D01*
X27442643Y19930500D01*
X27422115Y20152036D01*
X27361229Y20366028D01*
X27262058Y20565189D01*
X27127981Y20742736D01*
X26963562Y20892624D01*
X26774401Y21009747D01*
X26566940Y21090118D01*
X26566939Y21090119D01*
X26566937Y21090119D01*
X26348243Y21131000D01*
X26125757Y21131000D01*
X25907062Y21090119D01*
X25830797Y21060574D01*
X25699599Y21009747D01*
X25510438Y20892624D01*
X25346020Y20742737D01*
X25211943Y20565191D01*
X25211938Y20565182D01*
X25112772Y20366031D01*
X25112771Y20366028D01*
X25094810Y20302906D01*
X25060701Y20252112D01*
X25003249Y20231068D01*
X24999591Y20231000D01*
X20974409Y20231000D01*
X20916218Y20249907D01*
X20880254Y20299407D01*
X20879196Y20302879D01*
X20861229Y20366028D01*
X20762058Y20565189D01*
X20627981Y20742736D01*
X20463562Y20892624D01*
X20274401Y21009747D01*
X20066940Y21090118D01*
X20066939Y21090119D01*
X20066937Y21090119D01*
X19848243Y21131000D01*
X19625757Y21131000D01*
X19407062Y21090119D01*
X19330797Y21060574D01*
X19199599Y21009747D01*
X19010438Y20892624D01*
X18846020Y20742737D01*
X18711943Y20565191D01*
X18711938Y20565182D01*
X18612772Y20366031D01*
X18612771Y20366028D01*
X18551885Y20152036D01*
X18531357Y19930500D01*
X17275850Y19930500D01*
X17254923Y19981021D01*
X17117249Y20219479D01*
X17108356Y20231068D01*
X17053233Y20302907D01*
X16949628Y20437928D01*
X16754928Y20632628D01*
X16611432Y20742736D01*
X16536482Y20800247D01*
X16298016Y20937926D01*
X16043631Y21043296D01*
X15922521Y21075747D01*
X15777666Y21114560D01*
X15777659Y21114561D01*
X15504675Y21150500D01*
X15504674Y21150500D01*
X15229326Y21150500D01*
X15229324Y21150500D01*
X14956340Y21114561D01*
X14956338Y21114561D01*
X14956334Y21114560D01*
X14865115Y21090118D01*
X14690368Y21043296D01*
X14435983Y20937926D01*
X14197517Y20800247D01*
X13979075Y20632631D01*
X13784369Y20437925D01*
X13616753Y20219483D01*
X13479074Y19981017D01*
X13373704Y19726632D01*
X13329483Y19561593D01*
X13302440Y19460666D01*
X13302439Y19460662D01*
X13302439Y19460660D01*
X13266500Y19187676D01*
X500500Y19187676D01*
X500500Y22125500D01*
X3291357Y22125500D01*
X3311885Y21903964D01*
X3372771Y21689972D01*
X3471942Y21490811D01*
X3606019Y21313264D01*
X3770438Y21163376D01*
X3959599Y21046253D01*
X4167060Y20965882D01*
X4385757Y20925000D01*
X4608243Y20925000D01*
X4826940Y20965882D01*
X5034401Y21046253D01*
X5223562Y21163376D01*
X5387981Y21313264D01*
X5522058Y21490811D01*
X5621229Y21689972D01*
X5639189Y21753095D01*
X5673299Y21803888D01*
X5730751Y21824932D01*
X5734409Y21825000D01*
X9759591Y21825000D01*
X9817782Y21806093D01*
X9853746Y21756593D01*
X9854803Y21753122D01*
X9872771Y21689972D01*
X9971942Y21490811D01*
X10106019Y21313264D01*
X10270438Y21163376D01*
X10459599Y21046253D01*
X10667060Y20965882D01*
X10885757Y20925000D01*
X11108243Y20925000D01*
X11326940Y20965882D01*
X11534401Y21046253D01*
X11723562Y21163376D01*
X11887981Y21313264D01*
X12022058Y21490811D01*
X12121229Y21689972D01*
X12182115Y21903964D01*
X12202643Y22125500D01*
X33696357Y22125500D01*
X33716885Y21903964D01*
X33777771Y21689972D01*
X33876942Y21490811D01*
X34011019Y21313264D01*
X34175438Y21163376D01*
X34364599Y21046253D01*
X34572060Y20965882D01*
X34790757Y20925000D01*
X35013243Y20925000D01*
X35231940Y20965882D01*
X35439401Y21046253D01*
X35628562Y21163376D01*
X35792981Y21313264D01*
X35927058Y21490811D01*
X36026229Y21689972D01*
X36044189Y21753095D01*
X36078299Y21803888D01*
X36135751Y21824932D01*
X36139409Y21825000D01*
X40164591Y21825000D01*
X40222782Y21806093D01*
X40258746Y21756593D01*
X40259803Y21753122D01*
X40277771Y21689972D01*
X40376942Y21490811D01*
X40511019Y21313264D01*
X40675438Y21163376D01*
X40864599Y21046253D01*
X41072060Y20965882D01*
X41290757Y20925000D01*
X41513243Y20925000D01*
X41731940Y20965882D01*
X41939401Y21046253D01*
X42128562Y21163376D01*
X42292981Y21313264D01*
X42427058Y21490811D01*
X42526229Y21689972D01*
X42587115Y21903964D01*
X42607643Y22125500D01*
X42587115Y22347036D01*
X42526229Y22561028D01*
X42427058Y22760189D01*
X42292981Y22937736D01*
X42128562Y23087624D01*
X41939401Y23204747D01*
X41731940Y23285118D01*
X41731939Y23285119D01*
X41731937Y23285119D01*
X41513243Y23326000D01*
X41290757Y23326000D01*
X41072062Y23285119D01*
X40995797Y23255574D01*
X40864599Y23204747D01*
X40675438Y23087624D01*
X40511020Y22937737D01*
X40376943Y22760191D01*
X40376938Y22760182D01*
X40277772Y22561031D01*
X40277771Y22561028D01*
X40259810Y22497906D01*
X40225701Y22447112D01*
X40168249Y22426068D01*
X40164591Y22426000D01*
X36139409Y22426000D01*
X36081218Y22444907D01*
X36045254Y22494407D01*
X36044196Y22497879D01*
X36026229Y22561028D01*
X35927058Y22760189D01*
X35792981Y22937736D01*
X35628562Y23087624D01*
X35439401Y23204747D01*
X35231940Y23285118D01*
X35231939Y23285119D01*
X35231937Y23285119D01*
X35013243Y23326000D01*
X34790757Y23326000D01*
X34572062Y23285119D01*
X34495797Y23255574D01*
X34364599Y23204747D01*
X34175438Y23087624D01*
X34011020Y22937737D01*
X33876943Y22760191D01*
X33876938Y22760182D01*
X33777772Y22561031D01*
X33777771Y22561028D01*
X33716885Y22347036D01*
X33696357Y22125500D01*
X12202643Y22125500D01*
X12182115Y22347036D01*
X12121229Y22561028D01*
X12022058Y22760189D01*
X11887981Y22937736D01*
X11723562Y23087624D01*
X11534401Y23204747D01*
X11326940Y23285118D01*
X11326939Y23285119D01*
X11326937Y23285119D01*
X11108243Y23326000D01*
X10885757Y23326000D01*
X10667062Y23285119D01*
X10590797Y23255574D01*
X10459599Y23204747D01*
X10270438Y23087624D01*
X10106020Y22937737D01*
X9971943Y22760191D01*
X9971938Y22760182D01*
X9872772Y22561031D01*
X9872771Y22561028D01*
X9854810Y22497906D01*
X9820701Y22447112D01*
X9763249Y22426068D01*
X9759591Y22426000D01*
X5734409Y22426000D01*
X5676218Y22444907D01*
X5640254Y22494407D01*
X5639196Y22497879D01*
X5621229Y22561028D01*
X5522058Y22760189D01*
X5387981Y22937736D01*
X5223562Y23087624D01*
X5034401Y23204747D01*
X4826940Y23285118D01*
X4826939Y23285119D01*
X4826937Y23285119D01*
X4608243Y23326000D01*
X4385757Y23326000D01*
X4167062Y23285119D01*
X4090797Y23255574D01*
X3959599Y23204747D01*
X3770438Y23087624D01*
X3606020Y22937737D01*
X3471943Y22760191D01*
X3471938Y22760182D01*
X3372772Y22561031D01*
X3372771Y22561028D01*
X3311885Y22347036D01*
X3291357Y22125500D01*
X500500Y22125500D01*
X500500Y27730247D01*
X4156500Y27730247D01*
X4156500Y25990754D01*
X4156501Y25990742D01*
X4168132Y25932273D01*
X4168134Y25932267D01*
X4212445Y25865952D01*
X4212448Y25865948D01*
X4278769Y25821633D01*
X4323231Y25812789D01*
X4337241Y25810002D01*
X4337246Y25810002D01*
X4337252Y25810000D01*
X4337253Y25810000D01*
X6076747Y25810000D01*
X6076748Y25810000D01*
X6135231Y25821633D01*
X6201552Y25865948D01*
X6245867Y25932269D01*
X6257500Y25990752D01*
X6257500Y26860504D01*
X6691417Y26860504D01*
X6691417Y26860500D01*
X6711698Y26654571D01*
X6711699Y26654566D01*
X6771768Y26456546D01*
X6869316Y26274048D01*
X6949000Y26176953D01*
X7000590Y26114090D01*
X7000595Y26114086D01*
X7160547Y25982817D01*
X7160548Y25982817D01*
X7160550Y25982815D01*
X7343046Y25885268D01*
X7468254Y25847287D01*
X7541065Y25825200D01*
X7541070Y25825199D01*
X7746997Y25804917D01*
X7747000Y25804917D01*
X7747003Y25804917D01*
X7952929Y25825199D01*
X7952934Y25825200D01*
X8150954Y25885268D01*
X8333450Y25982815D01*
X8493410Y26114090D01*
X8624685Y26274050D01*
X8722232Y26456546D01*
X8782300Y26654566D01*
X8782301Y26654571D01*
X8802583Y26860500D01*
X8802583Y26860504D01*
X9231417Y26860504D01*
X9231417Y26860500D01*
X9251698Y26654571D01*
X9251699Y26654566D01*
X9311768Y26456546D01*
X9409316Y26274048D01*
X9489000Y26176953D01*
X9540590Y26114090D01*
X9540595Y26114086D01*
X9700547Y25982817D01*
X9700548Y25982817D01*
X9700550Y25982815D01*
X9883046Y25885268D01*
X10008254Y25847287D01*
X10081065Y25825200D01*
X10081070Y25825199D01*
X10286997Y25804917D01*
X10287000Y25804917D01*
X10287003Y25804917D01*
X10492929Y25825199D01*
X10492934Y25825200D01*
X10690954Y25885268D01*
X10873450Y25982815D01*
X11033410Y26114090D01*
X11164685Y26274050D01*
X11262232Y26456546D01*
X11322300Y26654566D01*
X11322301Y26654571D01*
X11342583Y26860500D01*
X11342583Y26860504D01*
X11771417Y26860504D01*
X11771417Y26860500D01*
X11791698Y26654571D01*
X11791699Y26654566D01*
X11851768Y26456546D01*
X11949316Y26274048D01*
X12029000Y26176953D01*
X12080590Y26114090D01*
X12080595Y26114086D01*
X12240547Y25982817D01*
X12240548Y25982817D01*
X12240550Y25982815D01*
X12423046Y25885268D01*
X12548254Y25847287D01*
X12621065Y25825200D01*
X12621070Y25825199D01*
X12826997Y25804917D01*
X12827000Y25804917D01*
X12827003Y25804917D01*
X13032929Y25825199D01*
X13032934Y25825200D01*
X13230954Y25885268D01*
X13413450Y25982815D01*
X13573410Y26114090D01*
X13704685Y26274050D01*
X13802232Y26456546D01*
X13847819Y26606830D01*
X13882804Y26657026D01*
X13940612Y26677072D01*
X13999163Y26659311D01*
X14036092Y26610527D01*
X14038183Y26603714D01*
X14093569Y26397011D01*
X14193399Y26182923D01*
X14328886Y25989427D01*
X14495926Y25822387D01*
X14689422Y25686900D01*
X14903509Y25587070D01*
X15117000Y25529866D01*
X15117000Y26427488D01*
X15174007Y26394575D01*
X15301174Y26360500D01*
X15432826Y26360500D01*
X15559993Y26394575D01*
X15617000Y26427488D01*
X15617000Y25529867D01*
X15830490Y25587070D01*
X15837854Y25590504D01*
X23836417Y25590504D01*
X23836417Y25590500D01*
X23856698Y25384571D01*
X23856699Y25384566D01*
X23916768Y25186546D01*
X24014316Y25004048D01*
X24145585Y24844096D01*
X24145590Y24844090D01*
X24145595Y24844086D01*
X24305547Y24712817D01*
X24305548Y24712817D01*
X24305550Y24712815D01*
X24488046Y24615268D01*
X24625997Y24573422D01*
X24686065Y24555200D01*
X24686070Y24555199D01*
X24891997Y24534917D01*
X24892000Y24534917D01*
X24892001Y24534917D01*
X24904754Y24536174D01*
X25033248Y24548830D01*
X25093009Y24535718D01*
X25112954Y24520311D01*
X25935478Y23697787D01*
X25935480Y23697784D01*
X26047284Y23585980D01*
X26184216Y23506923D01*
X26296019Y23476966D01*
X26336942Y23466000D01*
X26336943Y23466000D01*
X32595792Y23466000D01*
X32595808Y23465999D01*
X32601871Y23465999D01*
X32759984Y23465999D01*
X32759985Y23465999D01*
X32912713Y23506923D01*
X32962832Y23535861D01*
X33049644Y23585980D01*
X33161448Y23697784D01*
X33161448Y23697786D01*
X33169598Y23705935D01*
X33169601Y23705939D01*
X33195582Y23731919D01*
X33274640Y23868850D01*
X33315563Y24021578D01*
X33315563Y24179692D01*
X33274640Y24332420D01*
X33274638Y24332423D01*
X33274638Y24332425D01*
X33195585Y24469347D01*
X33195583Y24469349D01*
X33195582Y24469351D01*
X33083779Y24581154D01*
X33083776Y24581156D01*
X33083774Y24581158D01*
X32946851Y24660211D01*
X32946853Y24660211D01*
X32887593Y24676090D01*
X32794120Y24701135D01*
X32636006Y24701135D01*
X32521198Y24670373D01*
X32495577Y24667000D01*
X31121500Y24667000D01*
X31063309Y24685907D01*
X31027345Y24735407D01*
X31022500Y24766000D01*
X31022500Y26460247D01*
X31022498Y26460259D01*
X31019711Y26474269D01*
X31010867Y26518731D01*
X30966552Y26585052D01*
X30933961Y26606829D01*
X30900233Y26629366D01*
X30900231Y26629367D01*
X30900228Y26629368D01*
X30900227Y26629368D01*
X30841758Y26640999D01*
X30841748Y26641000D01*
X29102252Y26641000D01*
X29102251Y26641000D01*
X29102241Y26640999D01*
X29043772Y26629368D01*
X29043766Y26629366D01*
X28977451Y26585055D01*
X28977445Y26585049D01*
X28933134Y26518734D01*
X28933132Y26518728D01*
X28921501Y26460259D01*
X28921500Y26460247D01*
X28921500Y25999590D01*
X28902593Y25941399D01*
X28853093Y25905435D01*
X28791907Y25905435D01*
X28742407Y25941399D01*
X28726873Y25973967D01*
X28705429Y26053995D01*
X28605605Y26268068D01*
X28605601Y26268076D01*
X28470113Y26461574D01*
X28303073Y26628614D01*
X28109577Y26764101D01*
X27895489Y26863931D01*
X27682000Y26921136D01*
X27682000Y26023512D01*
X27624993Y26056425D01*
X27497826Y26090500D01*
X27366174Y26090500D01*
X27239007Y26056425D01*
X27182000Y26023512D01*
X27182000Y26921136D01*
X26968505Y26863930D01*
X26754432Y26764106D01*
X26754424Y26764102D01*
X26560926Y26628614D01*
X26393886Y26461574D01*
X26258398Y26268076D01*
X26258394Y26268068D01*
X26158570Y26053995D01*
X26103183Y25847287D01*
X26069859Y25795973D01*
X26012737Y25774046D01*
X25953637Y25789882D01*
X25915132Y25837432D01*
X25912819Y25844172D01*
X25900353Y25885268D01*
X25867232Y25994454D01*
X25769685Y26176950D01*
X25764783Y26182923D01*
X25638414Y26336905D01*
X25638410Y26336910D01*
X25638404Y26336915D01*
X25478452Y26468184D01*
X25295954Y26565732D01*
X25097934Y26625801D01*
X25097929Y26625802D01*
X24892003Y26646083D01*
X24891997Y26646083D01*
X24686070Y26625802D01*
X24686065Y26625801D01*
X24488045Y26565732D01*
X24305547Y26468184D01*
X24145595Y26336915D01*
X24145585Y26336905D01*
X24014316Y26176953D01*
X23916768Y25994455D01*
X23856699Y25796435D01*
X23856698Y25796430D01*
X23836417Y25590504D01*
X15837854Y25590504D01*
X16044577Y25686900D01*
X16238073Y25822387D01*
X16405113Y25989427D01*
X16540600Y26182923D01*
X16640430Y26397011D01*
X16697636Y26610500D01*
X15800012Y26610500D01*
X15832925Y26667507D01*
X15867000Y26794674D01*
X15867000Y26926326D01*
X15832925Y27053493D01*
X15800012Y27110500D01*
X16697636Y27110500D01*
X16640429Y27323995D01*
X16540605Y27538068D01*
X16540601Y27538076D01*
X16405113Y27731574D01*
X16238073Y27898614D01*
X16044577Y28034101D01*
X15830489Y28133931D01*
X15623786Y28189317D01*
X15572472Y28222641D01*
X15550545Y28279763D01*
X15566381Y28338863D01*
X15613931Y28377368D01*
X15620663Y28379679D01*
X15770954Y28425268D01*
X15953450Y28522815D01*
X16113410Y28654090D01*
X16244685Y28814050D01*
X16342232Y28996546D01*
X16402300Y29194566D01*
X16402301Y29194571D01*
X16422583Y29400497D01*
X16422583Y29400504D01*
X16402301Y29606430D01*
X16402300Y29606435D01*
X16373244Y29702219D01*
X16342232Y29804454D01*
X16244685Y29986950D01*
X16204841Y30035500D01*
X16113414Y30146905D01*
X16113410Y30146910D01*
X16113404Y30146915D01*
X15953452Y30278184D01*
X15770954Y30375732D01*
X15572934Y30435801D01*
X15572929Y30435802D01*
X15367003Y30456083D01*
X15366997Y30456083D01*
X15161070Y30435802D01*
X15161065Y30435801D01*
X14963045Y30375732D01*
X14780547Y30278184D01*
X14620595Y30146915D01*
X14620585Y30146905D01*
X14489316Y29986953D01*
X14391768Y29804455D01*
X14331699Y29606435D01*
X14331698Y29606430D01*
X14311417Y29400504D01*
X14311417Y29400497D01*
X14331698Y29194571D01*
X14331699Y29194566D01*
X14391768Y28996546D01*
X14489316Y28814048D01*
X14591430Y28689622D01*
X14620590Y28654090D01*
X14620595Y28654086D01*
X14780547Y28522817D01*
X14780548Y28522817D01*
X14780550Y28522815D01*
X14963046Y28425268D01*
X15113328Y28379681D01*
X15163525Y28344696D01*
X15183571Y28286888D01*
X15165810Y28228337D01*
X15117026Y28191408D01*
X15110213Y28189317D01*
X14903505Y28133930D01*
X14689432Y28034106D01*
X14689424Y28034102D01*
X14495926Y27898614D01*
X14328886Y27731574D01*
X14193398Y27538076D01*
X14193394Y27538068D01*
X14093570Y27323995D01*
X14038183Y27117287D01*
X14004859Y27065973D01*
X13947737Y27044046D01*
X13888637Y27059882D01*
X13850132Y27107432D01*
X13847819Y27114172D01*
X13831640Y27167507D01*
X13802232Y27264454D01*
X13704685Y27446950D01*
X13664841Y27495500D01*
X13573414Y27606905D01*
X13573410Y27606910D01*
X13423123Y27730247D01*
X13413452Y27738184D01*
X13230954Y27835732D01*
X13032934Y27895801D01*
X13032929Y27895802D01*
X12827003Y27916083D01*
X12826997Y27916083D01*
X12621070Y27895802D01*
X12621065Y27895801D01*
X12423045Y27835732D01*
X12240547Y27738184D01*
X12080595Y27606915D01*
X12080585Y27606905D01*
X11949316Y27446953D01*
X11851768Y27264455D01*
X11791699Y27066435D01*
X11791698Y27066430D01*
X11771417Y26860504D01*
X11342583Y26860504D01*
X11322301Y27066430D01*
X11322300Y27066435D01*
X11291640Y27167507D01*
X11262232Y27264454D01*
X11164685Y27446950D01*
X11124841Y27495500D01*
X11033414Y27606905D01*
X11033410Y27606910D01*
X10883123Y27730247D01*
X10873452Y27738184D01*
X10690954Y27835732D01*
X10492934Y27895801D01*
X10492929Y27895802D01*
X10287003Y27916083D01*
X10286997Y27916083D01*
X10081070Y27895802D01*
X10081065Y27895801D01*
X9883045Y27835732D01*
X9700547Y27738184D01*
X9540595Y27606915D01*
X9540585Y27606905D01*
X9409316Y27446953D01*
X9311768Y27264455D01*
X9251699Y27066435D01*
X9251698Y27066430D01*
X9231417Y26860504D01*
X8802583Y26860504D01*
X8782301Y27066430D01*
X8782300Y27066435D01*
X8751640Y27167507D01*
X8722232Y27264454D01*
X8624685Y27446950D01*
X8584841Y27495500D01*
X8493414Y27606905D01*
X8493410Y27606910D01*
X8343123Y27730247D01*
X8333452Y27738184D01*
X8150954Y27835732D01*
X7952934Y27895801D01*
X7952929Y27895802D01*
X7747003Y27916083D01*
X7746997Y27916083D01*
X7541070Y27895802D01*
X7541065Y27895801D01*
X7343045Y27835732D01*
X7160547Y27738184D01*
X7000595Y27606915D01*
X7000585Y27606905D01*
X6869316Y27446953D01*
X6771768Y27264455D01*
X6711699Y27066435D01*
X6711698Y27066430D01*
X6691417Y26860504D01*
X6257500Y26860504D01*
X6257500Y27730248D01*
X6255921Y27738184D01*
X6249817Y27768873D01*
X6245867Y27788731D01*
X6201552Y27855052D01*
X6149190Y27890040D01*
X6135233Y27899366D01*
X6135231Y27899367D01*
X6135228Y27899368D01*
X6135227Y27899368D01*
X6076758Y27910999D01*
X6076748Y27911000D01*
X4337252Y27911000D01*
X4337251Y27911000D01*
X4337241Y27910999D01*
X4278772Y27899368D01*
X4278766Y27899366D01*
X4212451Y27855055D01*
X4212445Y27855049D01*
X4168134Y27788734D01*
X4168132Y27788728D01*
X4156501Y27730259D01*
X4156500Y27730247D01*
X500500Y27730247D01*
X500500Y29400504D01*
X4151417Y29400504D01*
X4151417Y29400497D01*
X4171698Y29194571D01*
X4171699Y29194566D01*
X4231768Y28996546D01*
X4329316Y28814048D01*
X4431430Y28689622D01*
X4460590Y28654090D01*
X4460595Y28654086D01*
X4620547Y28522817D01*
X4620548Y28522817D01*
X4620550Y28522815D01*
X4803046Y28425268D01*
X4940997Y28383422D01*
X5001065Y28365200D01*
X5001070Y28365199D01*
X5206997Y28344917D01*
X5207000Y28344917D01*
X5207003Y28344917D01*
X5412929Y28365199D01*
X5412934Y28365200D01*
X5431922Y28370960D01*
X5610954Y28425268D01*
X5793450Y28522815D01*
X5953410Y28654090D01*
X6084685Y28814050D01*
X6182232Y28996546D01*
X6242300Y29194566D01*
X6242301Y29194571D01*
X6262583Y29400497D01*
X6262583Y29400504D01*
X6242301Y29606430D01*
X6242300Y29606435D01*
X6213244Y29702219D01*
X6182232Y29804454D01*
X6084685Y29986950D01*
X6044841Y30035500D01*
X5953414Y30146905D01*
X5953410Y30146910D01*
X5953404Y30146915D01*
X5793452Y30278184D01*
X5610954Y30375732D01*
X5412934Y30435801D01*
X5412929Y30435802D01*
X5207003Y30456083D01*
X5206997Y30456083D01*
X5001070Y30435802D01*
X5001065Y30435801D01*
X4803045Y30375732D01*
X4620547Y30278184D01*
X4460595Y30146915D01*
X4460585Y30146905D01*
X4329316Y29986953D01*
X4231768Y29804455D01*
X4171699Y29606435D01*
X4171698Y29606430D01*
X4151417Y29400504D01*
X500500Y29400504D01*
X500500Y40195500D01*
X4736785Y40195500D01*
X4755603Y39992417D01*
X4811418Y39796250D01*
X4902327Y39613679D01*
X5025236Y39450921D01*
X5175959Y39313519D01*
X5349363Y39206152D01*
X5539544Y39132476D01*
X5740024Y39095000D01*
X5943976Y39095000D01*
X6144456Y39132476D01*
X6334637Y39206152D01*
X6508041Y39313519D01*
X6658764Y39450921D01*
X6781673Y39613679D01*
X6872582Y39796250D01*
X6928397Y39992417D01*
X6947215Y40195500D01*
X6928397Y40398583D01*
X6872582Y40594750D01*
X6781673Y40777321D01*
X6658764Y40940079D01*
X6630879Y40965500D01*
X6624745Y40971092D01*
X6594479Y41024267D01*
X6601250Y41085077D01*
X6621434Y41114254D01*
X7863186Y42356004D01*
X7917703Y42383781D01*
X7933190Y42385000D01*
X11820553Y42385000D01*
X11878744Y42366093D01*
X11907863Y42332668D01*
X11991090Y42176962D01*
X11991092Y42176960D01*
X11991093Y42176958D01*
X12116112Y42024622D01*
X12116121Y42024613D01*
X12229671Y41931425D01*
X12268462Y41899590D01*
X12442273Y41806686D01*
X12630868Y41749476D01*
X12630870Y41749476D01*
X12630873Y41749475D01*
X12826997Y41730159D01*
X12827000Y41730159D01*
X12827003Y41730159D01*
X13023126Y41749475D01*
X13023127Y41749476D01*
X13023132Y41749476D01*
X13211727Y41806686D01*
X13385538Y41899590D01*
X13537883Y42024617D01*
X13662910Y42176962D01*
X13755814Y42350773D01*
X13813024Y42539368D01*
X13822848Y42639106D01*
X13832341Y42735497D01*
X13832341Y42735504D01*
X13813025Y42931627D01*
X13813024Y42931630D01*
X13813024Y42931632D01*
X13755814Y43120227D01*
X13662910Y43294038D01*
X13601487Y43368882D01*
X13537887Y43446379D01*
X13537878Y43446388D01*
X13385542Y43571407D01*
X13385540Y43571408D01*
X13385538Y43571410D01*
X13344618Y43593282D01*
X13211732Y43664312D01*
X13211730Y43664313D01*
X13023129Y43721525D01*
X13023126Y43721526D01*
X12827003Y43740841D01*
X12826997Y43740841D01*
X12630873Y43721526D01*
X12630870Y43721525D01*
X12442269Y43664313D01*
X12442267Y43664312D01*
X12268467Y43571413D01*
X12268457Y43571407D01*
X12116121Y43446388D01*
X12116112Y43446379D01*
X11991093Y43294043D01*
X11991087Y43294033D01*
X11907863Y43138332D01*
X11863757Y43095925D01*
X11820553Y43086000D01*
X7793144Y43086000D01*
X7700856Y43086000D01*
X7611712Y43062114D01*
X7531788Y43015970D01*
X5840814Y41324996D01*
X5786297Y41297219D01*
X5770810Y41296000D01*
X5740024Y41296000D01*
X5539546Y41258525D01*
X5469632Y41231441D01*
X5349363Y41184848D01*
X5188227Y41085077D01*
X5175959Y41077481D01*
X5025237Y40940080D01*
X4902328Y40777323D01*
X4902323Y40777314D01*
X4811419Y40594753D01*
X4811418Y40594750D01*
X4755603Y40398583D01*
X4736785Y40195500D01*
X500500Y40195500D01*
X500500Y48735247D01*
X4741500Y48735247D01*
X4741500Y46895754D01*
X4741501Y46895742D01*
X4753132Y46837273D01*
X4753133Y46837269D01*
X4797448Y46770948D01*
X4863769Y46726633D01*
X4908231Y46717789D01*
X4922241Y46715002D01*
X4922246Y46715002D01*
X4922252Y46715000D01*
X4922253Y46715000D01*
X6761747Y46715000D01*
X6761748Y46715000D01*
X6820231Y46726633D01*
X6886552Y46770948D01*
X6930867Y46837269D01*
X6942500Y46895752D01*
X6942500Y47366000D01*
X6961407Y47424191D01*
X7010907Y47460155D01*
X7041500Y47465000D01*
X12093630Y47465000D01*
X12151821Y47446093D01*
X12187785Y47396593D01*
X12187785Y47335407D01*
X12156435Y47289472D01*
X12116121Y47256388D01*
X12116112Y47256379D01*
X11991093Y47104043D01*
X11991087Y47104033D01*
X11898188Y46930233D01*
X11898187Y46930231D01*
X11840975Y46741630D01*
X11840974Y46741627D01*
X11821659Y46545504D01*
X11821659Y46545497D01*
X11840974Y46349374D01*
X11840975Y46349371D01*
X11898187Y46160770D01*
X11898188Y46160768D01*
X11907863Y46142668D01*
X11991090Y45986962D01*
X11991092Y45986960D01*
X11991093Y45986958D01*
X12116112Y45834622D01*
X12116121Y45834613D01*
X12268457Y45709594D01*
X12268462Y45709590D01*
X12442273Y45616686D01*
X12630868Y45559476D01*
X12630870Y45559476D01*
X12630873Y45559475D01*
X12826997Y45540159D01*
X12827000Y45540159D01*
X12827003Y45540159D01*
X13023126Y45559475D01*
X13023127Y45559476D01*
X13023132Y45559476D01*
X13211727Y45616686D01*
X13385538Y45709590D01*
X13537883Y45834617D01*
X13662910Y45986962D01*
X13755814Y46160773D01*
X13813024Y46349368D01*
X13814004Y46359310D01*
X13832341Y46545497D01*
X13832341Y46545504D01*
X13813025Y46741627D01*
X13813024Y46741630D01*
X13813024Y46741632D01*
X13755814Y46930227D01*
X13662910Y47104038D01*
X13662906Y47104043D01*
X13537887Y47256379D01*
X13537878Y47256388D01*
X13497565Y47289472D01*
X13464578Y47341003D01*
X13468180Y47402083D01*
X13506995Y47449380D01*
X13560370Y47465000D01*
X13910810Y47465000D01*
X13969001Y47446093D01*
X13980814Y47436004D01*
X14987504Y46429314D01*
X15015281Y46374797D01*
X15016500Y46359310D01*
X15016500Y38879356D01*
X15016499Y38879356D01*
X15024468Y38849621D01*
X15024468Y38849618D01*
X15024469Y38849618D01*
X15024469Y38849617D01*
X15040386Y38790212D01*
X15086530Y38710288D01*
X15990818Y37806000D01*
X16891814Y36905004D01*
X16919591Y36850487D01*
X16910020Y36790055D01*
X16866755Y36746790D01*
X16821810Y36736000D01*
X7298190Y36736000D01*
X7239999Y36754907D01*
X7228186Y36764996D01*
X6971496Y37021686D01*
X6943719Y37076203D01*
X6942500Y37091690D01*
X6942500Y38575247D01*
X6942498Y38575259D01*
X6939124Y38592219D01*
X6930867Y38633731D01*
X6886552Y38700052D01*
X6871233Y38710288D01*
X6820233Y38744366D01*
X6820231Y38744367D01*
X6820228Y38744368D01*
X6820227Y38744368D01*
X6761758Y38755999D01*
X6761748Y38756000D01*
X4922252Y38756000D01*
X4922251Y38756000D01*
X4922241Y38755999D01*
X4863772Y38744368D01*
X4863766Y38744366D01*
X4797451Y38700055D01*
X4797445Y38700049D01*
X4753134Y38633734D01*
X4753132Y38633728D01*
X4741501Y38575259D01*
X4741500Y38575247D01*
X4741500Y36735754D01*
X4741501Y36735742D01*
X4753132Y36677273D01*
X4753133Y36677269D01*
X4797448Y36610948D01*
X4863769Y36566633D01*
X4908231Y36557789D01*
X4922241Y36555002D01*
X4922246Y36555002D01*
X4922252Y36555000D01*
X6405810Y36555000D01*
X6464001Y36536093D01*
X6475813Y36526004D01*
X6726327Y36275491D01*
X6896788Y36105030D01*
X6940140Y36080001D01*
X6976712Y36058886D01*
X7065856Y36035000D01*
X7367522Y36035000D01*
X7425713Y36016093D01*
X7461677Y35966593D01*
X7461677Y35905407D01*
X7437525Y35865996D01*
X6581523Y35009996D01*
X6527007Y34982219D01*
X6511520Y34981000D01*
X6405035Y34981000D01*
X6266949Y34940454D01*
X6266942Y34940451D01*
X6145873Y34862645D01*
X6051622Y34753872D01*
X5991834Y34622957D01*
X5971353Y34480503D01*
X5971353Y34480498D01*
X5991834Y34338044D01*
X6009044Y34300361D01*
X6051623Y34207127D01*
X6104736Y34145831D01*
X6145873Y34098356D01*
X6246916Y34033420D01*
X6266947Y34020547D01*
X6373403Y33989289D01*
X6405035Y33980001D01*
X6405036Y33980001D01*
X6405039Y33980000D01*
X6405041Y33980000D01*
X6548959Y33980000D01*
X6548961Y33980000D01*
X6687053Y34020547D01*
X6808128Y34098357D01*
X6902377Y34207127D01*
X6962165Y34338043D01*
X6976262Y34436093D01*
X6982647Y34480498D01*
X6982647Y34480500D01*
X6979558Y34501982D01*
X6989990Y34562272D01*
X7007547Y34586077D01*
X7842476Y35421004D01*
X7896992Y35448781D01*
X7912479Y35450000D01*
X9322522Y35450000D01*
X9380713Y35431093D01*
X9416677Y35381593D01*
X9416677Y35320407D01*
X9392525Y35280997D01*
X9244767Y35133239D01*
X9121524Y35009996D01*
X9067008Y34982219D01*
X9051521Y34981000D01*
X8945035Y34981000D01*
X8806949Y34940454D01*
X8806942Y34940451D01*
X8685873Y34862645D01*
X8591622Y34753872D01*
X8531834Y34622957D01*
X8511353Y34480503D01*
X8511353Y34480498D01*
X8531834Y34338044D01*
X8549044Y34300361D01*
X8591623Y34207127D01*
X8644736Y34145831D01*
X8685873Y34098356D01*
X8786916Y34033420D01*
X8806947Y34020547D01*
X8913403Y33989289D01*
X8945035Y33980001D01*
X8945036Y33980001D01*
X8945039Y33980000D01*
X8945041Y33980000D01*
X9088959Y33980000D01*
X9088961Y33980000D01*
X9227053Y34020547D01*
X9348128Y34098357D01*
X9442377Y34207127D01*
X9502165Y34338043D01*
X9516262Y34436093D01*
X9522647Y34480498D01*
X9522647Y34480502D01*
X9519558Y34501984D01*
X9529991Y34562273D01*
X9547543Y34586074D01*
X9747475Y34786004D01*
X9801991Y34813781D01*
X9817478Y34815000D01*
X11640491Y34815000D01*
X11698682Y34796093D01*
X11734646Y34746593D01*
X11734646Y34685407D01*
X11730544Y34674874D01*
X11706834Y34622959D01*
X11706834Y34622957D01*
X11686353Y34480503D01*
X11686353Y34480498D01*
X11706834Y34338044D01*
X11724044Y34300361D01*
X11766623Y34207127D01*
X11819736Y34145831D01*
X11860873Y34098356D01*
X11961916Y34033420D01*
X11981947Y34020547D01*
X12088403Y33989289D01*
X12120035Y33980001D01*
X12120036Y33980001D01*
X12120039Y33980000D01*
X12120041Y33980000D01*
X12263959Y33980000D01*
X12263961Y33980000D01*
X12402053Y34020547D01*
X12523128Y34098357D01*
X12564264Y34145832D01*
X12616660Y34177427D01*
X12639083Y34180000D01*
X14180491Y34180000D01*
X14238682Y34161093D01*
X14274646Y34111593D01*
X14274646Y34050407D01*
X14270544Y34039874D01*
X14246834Y33987959D01*
X14246834Y33987957D01*
X14226353Y33845503D01*
X14226353Y33845498D01*
X14246834Y33703044D01*
X14246834Y33703042D01*
X14270544Y33651126D01*
X14277519Y33590340D01*
X14247433Y33537063D01*
X14191776Y33511645D01*
X14180491Y33511000D01*
X11596562Y33511000D01*
X11517438Y33511000D01*
X11470661Y33498467D01*
X11441007Y33490521D01*
X11372493Y33450964D01*
X11372492Y33450963D01*
X8298215Y30376688D01*
X8243698Y30348911D01*
X8183266Y30358482D01*
X8181583Y30359361D01*
X8150954Y30375732D01*
X7952934Y30435801D01*
X7952929Y30435802D01*
X7747003Y30456083D01*
X7746997Y30456083D01*
X7541070Y30435802D01*
X7541065Y30435801D01*
X7343045Y30375732D01*
X7160547Y30278184D01*
X7000595Y30146915D01*
X7000585Y30146905D01*
X6869316Y29986953D01*
X6771768Y29804455D01*
X6711699Y29606435D01*
X6711698Y29606430D01*
X6691417Y29400504D01*
X6691417Y29400497D01*
X6711698Y29194571D01*
X6711699Y29194566D01*
X6771768Y28996546D01*
X6869316Y28814048D01*
X6971430Y28689622D01*
X7000590Y28654090D01*
X7000595Y28654086D01*
X7160547Y28522817D01*
X7160548Y28522817D01*
X7160550Y28522815D01*
X7343046Y28425268D01*
X7480997Y28383422D01*
X7541065Y28365200D01*
X7541070Y28365199D01*
X7746997Y28344917D01*
X7747000Y28344917D01*
X7747003Y28344917D01*
X7952929Y28365199D01*
X7952934Y28365200D01*
X7971922Y28370960D01*
X8150954Y28425268D01*
X8333450Y28522815D01*
X8493410Y28654090D01*
X8624685Y28814050D01*
X8722232Y28996546D01*
X8782300Y29194566D01*
X8782301Y29194571D01*
X8802583Y29400497D01*
X8802583Y29400504D01*
X8782301Y29606430D01*
X8782300Y29606435D01*
X8753244Y29702219D01*
X8722232Y29804454D01*
X8722229Y29804460D01*
X8705881Y29835046D01*
X8695125Y29895279D01*
X8721827Y29950330D01*
X8723137Y29951668D01*
X11652475Y32881004D01*
X11706992Y32908781D01*
X11722479Y32910000D01*
X13132522Y32910000D01*
X13190713Y32891093D01*
X13226677Y32841593D01*
X13226677Y32780407D01*
X13202527Y32740999D01*
X12015038Y31553510D01*
X10838215Y30376688D01*
X10783698Y30348911D01*
X10723266Y30358482D01*
X10721583Y30359361D01*
X10690954Y30375732D01*
X10492934Y30435801D01*
X10492929Y30435802D01*
X10287003Y30456083D01*
X10286997Y30456083D01*
X10081070Y30435802D01*
X10081065Y30435801D01*
X9883045Y30375732D01*
X9700547Y30278184D01*
X9540595Y30146915D01*
X9540585Y30146905D01*
X9409316Y29986953D01*
X9311768Y29804455D01*
X9251699Y29606435D01*
X9251698Y29606430D01*
X9231417Y29400504D01*
X9231417Y29400497D01*
X9251698Y29194571D01*
X9251699Y29194566D01*
X9311768Y28996546D01*
X9409316Y28814048D01*
X9511430Y28689622D01*
X9540590Y28654090D01*
X9540595Y28654086D01*
X9700547Y28522817D01*
X9700548Y28522817D01*
X9700550Y28522815D01*
X9883046Y28425268D01*
X10020997Y28383422D01*
X10081065Y28365200D01*
X10081070Y28365199D01*
X10286997Y28344917D01*
X10287000Y28344917D01*
X10287003Y28344917D01*
X10492929Y28365199D01*
X10492934Y28365200D01*
X10511922Y28370960D01*
X10690954Y28425268D01*
X10873450Y28522815D01*
X11033410Y28654090D01*
X11164685Y28814050D01*
X11262232Y28996546D01*
X11322300Y29194566D01*
X11322301Y29194571D01*
X11342583Y29400497D01*
X11342583Y29400504D01*
X11771417Y29400504D01*
X11771417Y29400497D01*
X11791698Y29194571D01*
X11791699Y29194566D01*
X11851768Y28996546D01*
X11949316Y28814048D01*
X12051430Y28689622D01*
X12080590Y28654090D01*
X12080595Y28654086D01*
X12240547Y28522817D01*
X12240548Y28522817D01*
X12240550Y28522815D01*
X12423046Y28425268D01*
X12560997Y28383422D01*
X12621065Y28365200D01*
X12621070Y28365199D01*
X12826997Y28344917D01*
X12827000Y28344917D01*
X12827003Y28344917D01*
X13032929Y28365199D01*
X13032934Y28365200D01*
X13051922Y28370960D01*
X13230954Y28425268D01*
X13413450Y28522815D01*
X13573410Y28654090D01*
X13704685Y28814050D01*
X13802232Y28996546D01*
X13862300Y29194566D01*
X13862301Y29194571D01*
X13882583Y29400497D01*
X13882583Y29400504D01*
X13862301Y29606430D01*
X13862300Y29606435D01*
X13833244Y29702219D01*
X13802232Y29804454D01*
X13704685Y29986950D01*
X13664841Y30035500D01*
X13573414Y30146905D01*
X13573410Y30146910D01*
X13573404Y30146915D01*
X13413452Y30278184D01*
X13230954Y30375732D01*
X13032934Y30435801D01*
X13032929Y30435802D01*
X12827003Y30456083D01*
X12826997Y30456083D01*
X12621070Y30435802D01*
X12621065Y30435801D01*
X12423045Y30375732D01*
X12240547Y30278184D01*
X12080595Y30146915D01*
X12080585Y30146905D01*
X11949316Y29986953D01*
X11851768Y29804455D01*
X11791699Y29606435D01*
X11791698Y29606430D01*
X11771417Y29400504D01*
X11342583Y29400504D01*
X11322301Y29606430D01*
X11322300Y29606435D01*
X11293244Y29702219D01*
X11262232Y29804454D01*
X11262229Y29804460D01*
X11245881Y29835046D01*
X11235125Y29895279D01*
X11261827Y29950330D01*
X11263137Y29951668D01*
X13557475Y32246004D01*
X13611992Y32273781D01*
X13627479Y32275000D01*
X21756563Y32275000D01*
X21756563Y32275001D01*
X21832989Y32295479D01*
X21901511Y32335040D01*
X21941962Y32375491D01*
X21957461Y32390989D01*
X22096971Y32530500D01*
X22149610Y32583140D01*
X22204124Y32610916D01*
X22264557Y32601345D01*
X22307821Y32558081D01*
X22318235Y32521763D01*
X22336857Y32308903D01*
X22395733Y32089177D01*
X22491864Y31883020D01*
X22542972Y31810029D01*
X23222000Y32489054D01*
X23222000Y32482839D01*
X23249259Y32381106D01*
X23301920Y32289894D01*
X23376394Y32215420D01*
X23467606Y32162759D01*
X23569339Y32135500D01*
X23575553Y32135500D01*
X22896526Y31456473D01*
X22896624Y31455363D01*
X22882861Y31395746D01*
X22868005Y31376730D01*
X21221273Y29729996D01*
X21166756Y29702219D01*
X21151269Y29701000D01*
X20839787Y29701000D01*
X20781596Y29719907D01*
X20745632Y29769407D01*
X20745050Y29771262D01*
X20740814Y29785227D01*
X20730536Y29804455D01*
X20679574Y29899799D01*
X20647910Y29959038D01*
X20625001Y29986953D01*
X20522887Y30111379D01*
X20522878Y30111388D01*
X20370542Y30236407D01*
X20370540Y30236408D01*
X20370538Y30236410D01*
X20329618Y30258282D01*
X20196732Y30329312D01*
X20196730Y30329313D01*
X20008129Y30386525D01*
X20008126Y30386526D01*
X19812003Y30405841D01*
X19811997Y30405841D01*
X19615873Y30386526D01*
X19615870Y30386525D01*
X19427269Y30329313D01*
X19427267Y30329312D01*
X19253467Y30236413D01*
X19253457Y30236407D01*
X19101121Y30111388D01*
X19101112Y30111379D01*
X18976093Y29959043D01*
X18976087Y29959033D01*
X18883188Y29785233D01*
X18883187Y29785231D01*
X18825975Y29596630D01*
X18825974Y29596627D01*
X18806659Y29400504D01*
X18806659Y29400497D01*
X18825974Y29204374D01*
X18825975Y29204371D01*
X18883187Y29015770D01*
X18883188Y29015768D01*
X18954218Y28882882D01*
X18976090Y28841962D01*
X18976092Y28841960D01*
X18976093Y28841958D01*
X19101112Y28689622D01*
X19101121Y28689613D01*
X19202360Y28606528D01*
X19235347Y28554997D01*
X19231745Y28493917D01*
X19192930Y28446620D01*
X19139555Y28431000D01*
X18581562Y28431000D01*
X18502438Y28431000D01*
X18455661Y28418467D01*
X18426007Y28410521D01*
X18357493Y28370964D01*
X18357488Y28370960D01*
X18011524Y28024996D01*
X17957008Y27997219D01*
X17941521Y27996000D01*
X17835035Y27996000D01*
X17696949Y27955454D01*
X17696942Y27955451D01*
X17575873Y27877645D01*
X17481622Y27768872D01*
X17421834Y27637957D01*
X17401353Y27495503D01*
X17401353Y27495498D01*
X17421834Y27353044D01*
X17464053Y27260599D01*
X17481623Y27222127D01*
X17572467Y27117287D01*
X17575873Y27113356D01*
X17648892Y27066430D01*
X17696947Y27035547D01*
X17778845Y27011500D01*
X17835035Y26995001D01*
X17835036Y26995001D01*
X17835039Y26995000D01*
X17835041Y26995000D01*
X17978959Y26995000D01*
X17978961Y26995000D01*
X18117053Y27035547D01*
X18238128Y27113357D01*
X18332377Y27222127D01*
X18392165Y27353043D01*
X18412647Y27495500D01*
X18409558Y27516984D01*
X18419991Y27577273D01*
X18437543Y27601074D01*
X18637475Y27801004D01*
X18691991Y27828781D01*
X18707478Y27830000D01*
X23867688Y27830000D01*
X23867688Y27830001D01*
X23944114Y27850479D01*
X24012636Y27890040D01*
X24068585Y27945989D01*
X27248600Y31126006D01*
X27303117Y31153782D01*
X27318604Y31155001D01*
X27791861Y31155001D01*
X27791864Y31155001D01*
X27816991Y31157915D01*
X27919765Y31203294D01*
X27999206Y31282735D01*
X28044585Y31385509D01*
X28047500Y31410635D01*
X28047499Y31700364D01*
X28044585Y31725491D01*
X27999206Y31828265D01*
X27999205Y31828266D01*
X27995500Y31836657D01*
X27997875Y31837706D01*
X27984462Y31883239D01*
X27997526Y31923449D01*
X27995500Y31924343D01*
X27999204Y31932734D01*
X27999206Y31932735D01*
X28044585Y32035509D01*
X28047500Y32060635D01*
X28047499Y32348743D01*
X28066406Y32406932D01*
X28115906Y32442896D01*
X28177091Y32442897D01*
X28226591Y32406933D01*
X28236552Y32389868D01*
X28276621Y32302130D01*
X28276622Y32302129D01*
X28276623Y32302127D01*
X28356488Y32209957D01*
X28370873Y32193356D01*
X28460899Y32135500D01*
X28491947Y32115547D01*
X28581756Y32089177D01*
X28630035Y32075001D01*
X28630036Y32075001D01*
X28630039Y32075000D01*
X28630041Y32075000D01*
X28773959Y32075000D01*
X28773961Y32075000D01*
X28912053Y32115547D01*
X29033128Y32193357D01*
X29127377Y32302127D01*
X29187165Y32433043D01*
X29189552Y32449643D01*
X29192492Y32470089D01*
X29219488Y32524997D01*
X29273602Y32553550D01*
X29290484Y32555000D01*
X30404385Y32555000D01*
X30462576Y32536093D01*
X30498540Y32486593D01*
X30498540Y32425407D01*
X30479204Y32391169D01*
X30435623Y32340874D01*
X30375834Y32209957D01*
X30355353Y32067503D01*
X30355353Y32067498D01*
X30375834Y31925044D01*
X30428361Y31810029D01*
X30435623Y31794127D01*
X30516872Y31700360D01*
X30529873Y31685356D01*
X30650942Y31607550D01*
X30650947Y31607547D01*
X30722774Y31586457D01*
X30789035Y31567001D01*
X30789036Y31567001D01*
X30789039Y31567000D01*
X30789041Y31567000D01*
X30932959Y31567000D01*
X30932961Y31567000D01*
X30999226Y31586457D01*
X31060385Y31584710D01*
X31108838Y31547347D01*
X31125108Y31505556D01*
X31137834Y31417044D01*
X31197622Y31286129D01*
X31197623Y31286127D01*
X31247285Y31228814D01*
X31291873Y31177356D01*
X31371777Y31126005D01*
X31412947Y31099547D01*
X31519403Y31068289D01*
X31551035Y31059001D01*
X31551036Y31059001D01*
X31551039Y31059000D01*
X31551041Y31059000D01*
X31694959Y31059000D01*
X31694961Y31059000D01*
X31833053Y31099547D01*
X31923877Y31157916D01*
X31960085Y31181185D01*
X31961632Y31178778D01*
X32006512Y31197770D01*
X32055019Y31189702D01*
X32127009Y31157915D01*
X32152135Y31155000D01*
X33516864Y31155001D01*
X33541991Y31157915D01*
X33644765Y31203294D01*
X33724206Y31282735D01*
X33769585Y31385509D01*
X33772500Y31410635D01*
X33772499Y31700364D01*
X33769585Y31725491D01*
X33724206Y31828265D01*
X33724205Y31828266D01*
X33720500Y31836657D01*
X33722875Y31837706D01*
X33709462Y31883239D01*
X33722526Y31923449D01*
X33720500Y31924343D01*
X33724204Y31932734D01*
X33724206Y31932735D01*
X33769585Y32035509D01*
X33772500Y32060635D01*
X33772499Y32326846D01*
X33791406Y32385035D01*
X33840906Y32420999D01*
X33902091Y32421000D01*
X33951591Y32385036D01*
X33961552Y32367972D01*
X33988528Y32308903D01*
X33991623Y32302127D01*
X34071488Y32209957D01*
X34085873Y32193356D01*
X34175899Y32135500D01*
X34206947Y32115547D01*
X34296756Y32089177D01*
X34345035Y32075001D01*
X34345036Y32075001D01*
X34345039Y32075000D01*
X34345041Y32075000D01*
X34488959Y32075000D01*
X34488961Y32075000D01*
X34627053Y32115547D01*
X34748128Y32193357D01*
X34842377Y32302127D01*
X34902165Y32433043D01*
X34922647Y32575500D01*
X34902852Y32713176D01*
X35618500Y32713176D01*
X35618500Y32437825D01*
X35639936Y32275001D01*
X35654440Y32164834D01*
X35680521Y32067498D01*
X35725704Y31898869D01*
X35831074Y31644484D01*
X35831077Y31644479D01*
X35966089Y31410631D01*
X35968753Y31406018D01*
X36060747Y31286129D01*
X36136372Y31187572D01*
X36331072Y30992872D01*
X36549521Y30825251D01*
X36787979Y30687577D01*
X36787980Y30687577D01*
X36787983Y30687575D01*
X37042368Y30582205D01*
X37308334Y30510940D01*
X37581326Y30475000D01*
X37581327Y30475000D01*
X37856673Y30475000D01*
X37856674Y30475000D01*
X38129666Y30510940D01*
X38395632Y30582205D01*
X38650021Y30687577D01*
X38888479Y30825251D01*
X39106928Y30992872D01*
X39301628Y31187572D01*
X39469249Y31406021D01*
X39606923Y31644479D01*
X39712295Y31898868D01*
X39783560Y32164834D01*
X39819500Y32437826D01*
X39819500Y32713174D01*
X39783560Y32986166D01*
X39712295Y33252132D01*
X39677759Y33335509D01*
X39606925Y33506517D01*
X39604337Y33511000D01*
X39469249Y33744979D01*
X39301628Y33963428D01*
X39106928Y34158128D01*
X39043068Y34207129D01*
X38888482Y34325747D01*
X38881098Y34330010D01*
X38650021Y34463423D01*
X38650016Y34463426D01*
X38395631Y34568796D01*
X38247379Y34608519D01*
X38129666Y34640060D01*
X38129659Y34640061D01*
X37856675Y34676000D01*
X37856674Y34676000D01*
X37581326Y34676000D01*
X37581324Y34676000D01*
X37308340Y34640061D01*
X37308338Y34640061D01*
X37308334Y34640060D01*
X37207805Y34613124D01*
X37042368Y34568796D01*
X36787983Y34463426D01*
X36549517Y34325747D01*
X36331075Y34158131D01*
X36136369Y33963425D01*
X35968753Y33744983D01*
X35831074Y33506517D01*
X35725704Y33252132D01*
X35682990Y33092716D01*
X35654440Y32986166D01*
X35654439Y32986162D01*
X35654439Y32986160D01*
X35618500Y32713176D01*
X34902852Y32713176D01*
X34902165Y32717957D01*
X34842377Y32848873D01*
X34748128Y32957643D01*
X34748127Y32957644D01*
X34748126Y32957645D01*
X34627057Y33035451D01*
X34627054Y33035453D01*
X34627053Y33035453D01*
X34627050Y33035454D01*
X34488964Y33076000D01*
X34488961Y33076000D01*
X34385935Y33076000D01*
X34327744Y33094907D01*
X34315931Y33104996D01*
X33797120Y33623807D01*
X33774093Y33669000D01*
X33771540Y33668305D01*
X33769584Y33675493D01*
X33755230Y33708002D01*
X33736651Y33750078D01*
X33730443Y33810947D01*
X33761199Y33863841D01*
X33771834Y33871542D01*
X33776373Y33875025D01*
X33776375Y33875028D01*
X33776380Y33875030D01*
X34509869Y34608521D01*
X34551978Y34633504D01*
X34627053Y34655547D01*
X34748128Y34733357D01*
X34842377Y34842127D01*
X34902165Y34973043D01*
X34908992Y35020529D01*
X34922647Y35115498D01*
X34922647Y35115503D01*
X34902165Y35257957D01*
X34872447Y35323029D01*
X34842377Y35388873D01*
X34748128Y35497643D01*
X34748127Y35497644D01*
X34748126Y35497645D01*
X34627057Y35575451D01*
X34627054Y35575453D01*
X34627053Y35575453D01*
X34627050Y35575454D01*
X34488964Y35616000D01*
X34488961Y35616000D01*
X34345039Y35616000D01*
X34345035Y35616000D01*
X34206949Y35575454D01*
X34206942Y35575451D01*
X34085873Y35497645D01*
X33991622Y35388873D01*
X33961552Y35323029D01*
X33920179Y35277952D01*
X33860212Y35265802D01*
X33804556Y35291221D01*
X33774470Y35344498D01*
X33772499Y35364149D01*
X33772499Y35600364D01*
X33769585Y35625491D01*
X33724206Y35728265D01*
X33724205Y35728266D01*
X33720500Y35736657D01*
X33722875Y35737706D01*
X33709462Y35783239D01*
X33722526Y35823449D01*
X33720500Y35824343D01*
X33724204Y35832734D01*
X33724206Y35832735D01*
X33769585Y35935509D01*
X33772500Y35960635D01*
X33772499Y36250364D01*
X33769585Y36275491D01*
X33724206Y36378265D01*
X33724205Y36378266D01*
X33720500Y36386657D01*
X33722875Y36387706D01*
X33709462Y36433239D01*
X33722526Y36473449D01*
X33720500Y36474343D01*
X33724204Y36482734D01*
X33724206Y36482735D01*
X33769585Y36585509D01*
X33772500Y36610635D01*
X33772499Y36900364D01*
X33769585Y36925491D01*
X33724206Y37028265D01*
X33724205Y37028266D01*
X33720500Y37036657D01*
X33722875Y37037706D01*
X33709462Y37083239D01*
X33722526Y37123449D01*
X33720500Y37124343D01*
X33724204Y37132734D01*
X33724206Y37132735D01*
X33769585Y37235509D01*
X33772500Y37260635D01*
X33772499Y37550364D01*
X33769585Y37575491D01*
X33724206Y37678265D01*
X33644765Y37757706D01*
X33541991Y37803085D01*
X33541990Y37803086D01*
X33541988Y37803086D01*
X33516868Y37806000D01*
X32152139Y37806000D01*
X32152136Y37805999D01*
X32127009Y37803086D01*
X32062059Y37774407D01*
X32027900Y37759324D01*
X32024233Y37757705D01*
X32001523Y37734995D01*
X31947006Y37707219D01*
X31931521Y37706000D01*
X30560836Y37706000D01*
X30502645Y37724907D01*
X30490832Y37734996D01*
X29434828Y38791000D01*
X28344868Y39880960D01*
X28344865Y39880962D01*
X28320551Y39895000D01*
X28276347Y39920521D01*
X28276342Y39920523D01*
X28233091Y39932112D01*
X28181777Y39965436D01*
X28159851Y40022558D01*
X28175687Y40081658D01*
X28223238Y40120163D01*
X28250088Y40126361D01*
X28302312Y40130930D01*
X28530489Y40192070D01*
X28744577Y40291900D01*
X28938073Y40427387D01*
X29105113Y40594427D01*
X29240600Y40787923D01*
X29340430Y41002011D01*
X29397636Y41215500D01*
X28500012Y41215500D01*
X28532925Y41272507D01*
X28567000Y41399674D01*
X28567000Y41531326D01*
X28532925Y41658493D01*
X28500012Y41715500D01*
X29397636Y41715500D01*
X29340429Y41928995D01*
X29240605Y42143068D01*
X29240601Y42143076D01*
X29105113Y42336574D01*
X28938073Y42503614D01*
X28744577Y42639101D01*
X28530489Y42738931D01*
X28450467Y42760373D01*
X28399153Y42793697D01*
X28377226Y42850819D01*
X28393062Y42909919D01*
X28440612Y42948424D01*
X28476090Y42955000D01*
X28936747Y42955000D01*
X28936748Y42955000D01*
X28995231Y42966633D01*
X29061552Y43010948D01*
X29105867Y43077269D01*
X29117500Y43135752D01*
X29117500Y44875248D01*
X29105867Y44933731D01*
X29061552Y45000052D01*
X29061548Y45000055D01*
X28995233Y45044366D01*
X28995231Y45044367D01*
X28995228Y45044368D01*
X28995227Y45044368D01*
X28936758Y45055999D01*
X28936748Y45056000D01*
X27197252Y45056000D01*
X27197251Y45056000D01*
X27197241Y45055999D01*
X27138772Y45044368D01*
X27138766Y45044366D01*
X27072451Y45000055D01*
X27072445Y45000049D01*
X27028134Y44933734D01*
X27028132Y44933728D01*
X27016501Y44875259D01*
X27016500Y44875247D01*
X27016500Y44589173D01*
X27004591Y44542096D01*
X26377280Y43381593D01*
X26360193Y43358666D01*
X23526525Y40524996D01*
X23472008Y40497219D01*
X23456521Y40496000D01*
X23026562Y40496000D01*
X22947438Y40496000D01*
X22900661Y40483467D01*
X22871007Y40475521D01*
X22802493Y40435964D01*
X22256525Y39889996D01*
X22202008Y39862219D01*
X22186521Y39861000D01*
X20839787Y39861000D01*
X20781596Y39879907D01*
X20745632Y39929407D01*
X20745050Y39931262D01*
X20742096Y39941000D01*
X20740814Y39945227D01*
X20739558Y39947576D01*
X20705663Y40010989D01*
X20647910Y40119038D01*
X20641900Y40126361D01*
X20522887Y40271379D01*
X20522878Y40271388D01*
X20370542Y40396407D01*
X20370540Y40396408D01*
X20370538Y40396410D01*
X20312584Y40427387D01*
X20196732Y40489312D01*
X20196730Y40489313D01*
X20008129Y40546525D01*
X20008126Y40546526D01*
X19812003Y40565841D01*
X19811997Y40565841D01*
X19615873Y40546526D01*
X19615870Y40546525D01*
X19427269Y40489313D01*
X19427267Y40489312D01*
X19253467Y40396413D01*
X19253457Y40396407D01*
X19101121Y40271388D01*
X19101112Y40271379D01*
X18976093Y40119043D01*
X18976087Y40119033D01*
X18883188Y39945233D01*
X18883187Y39945231D01*
X18825975Y39756630D01*
X18825974Y39756627D01*
X18806659Y39560504D01*
X18806659Y39560497D01*
X18825974Y39364374D01*
X18825975Y39364371D01*
X18883187Y39175770D01*
X18883188Y39175768D01*
X18917439Y39111690D01*
X18976090Y39001962D01*
X18976092Y39001960D01*
X18976093Y39001958D01*
X19101112Y38849622D01*
X19101121Y38849613D01*
X19202360Y38766528D01*
X19235347Y38714997D01*
X19231745Y38653917D01*
X19192930Y38606620D01*
X19139555Y38591000D01*
X18989083Y38591000D01*
X18930892Y38609907D01*
X18914264Y38625169D01*
X18906845Y38633731D01*
X18873128Y38672643D01*
X18807224Y38714997D01*
X18752057Y38750451D01*
X18752054Y38750453D01*
X18752053Y38750453D01*
X18752050Y38750454D01*
X18613964Y38791000D01*
X18613961Y38791000D01*
X18470039Y38791000D01*
X18470035Y38791000D01*
X18331949Y38750454D01*
X18331942Y38750451D01*
X18210873Y38672645D01*
X18116622Y38563872D01*
X18056834Y38432957D01*
X18036353Y38290503D01*
X18036353Y38290498D01*
X18039431Y38269089D01*
X18028998Y38208800D01*
X17985120Y38166158D01*
X17941439Y38156000D01*
X17835035Y38156000D01*
X17696949Y38115454D01*
X17696942Y38115451D01*
X17575873Y38037645D01*
X17481622Y37928872D01*
X17421834Y37797957D01*
X17401353Y37655503D01*
X17401353Y37655500D01*
X17404137Y37636132D01*
X17393701Y37575843D01*
X17349822Y37533202D01*
X17289259Y37524497D01*
X17236140Y37552042D01*
X15746496Y39041686D01*
X15718719Y39096203D01*
X15717500Y39111690D01*
X15717500Y42735504D01*
X21981659Y42735504D01*
X21981659Y42735497D01*
X22000974Y42539374D01*
X22000975Y42539371D01*
X22058187Y42350770D01*
X22058188Y42350768D01*
X22067863Y42332668D01*
X22151090Y42176962D01*
X22151092Y42176960D01*
X22151093Y42176958D01*
X22276112Y42024622D01*
X22276121Y42024613D01*
X22389671Y41931425D01*
X22428462Y41899590D01*
X22602273Y41806686D01*
X22790868Y41749476D01*
X22790870Y41749476D01*
X22790873Y41749475D01*
X22986997Y41730159D01*
X22987000Y41730159D01*
X22987003Y41730159D01*
X23183126Y41749475D01*
X23183127Y41749476D01*
X23183132Y41749476D01*
X23371727Y41806686D01*
X23545538Y41899590D01*
X23697883Y42024617D01*
X23822910Y42176962D01*
X23915814Y42350773D01*
X23973024Y42539368D01*
X23982848Y42639106D01*
X23992341Y42735497D01*
X23992341Y42735504D01*
X23973025Y42931627D01*
X23973024Y42931630D01*
X23973024Y42931632D01*
X23915814Y43120227D01*
X23822910Y43294038D01*
X23761487Y43368882D01*
X23697887Y43446379D01*
X23697878Y43446388D01*
X23545542Y43571407D01*
X23545540Y43571408D01*
X23545538Y43571410D01*
X23504618Y43593282D01*
X23371732Y43664312D01*
X23371730Y43664313D01*
X23183129Y43721525D01*
X23183126Y43721526D01*
X22987003Y43740841D01*
X22986997Y43740841D01*
X22790873Y43721526D01*
X22790870Y43721525D01*
X22602269Y43664313D01*
X22602267Y43664312D01*
X22428467Y43571413D01*
X22428457Y43571407D01*
X22276121Y43446388D01*
X22276112Y43446379D01*
X22151093Y43294043D01*
X22151087Y43294033D01*
X22058188Y43120233D01*
X22058187Y43120231D01*
X22000975Y42931630D01*
X22000974Y42931627D01*
X21981659Y42735504D01*
X15717500Y42735504D01*
X15717500Y46545504D01*
X21981659Y46545504D01*
X21981659Y46545497D01*
X22000974Y46349374D01*
X22000975Y46349371D01*
X22058187Y46160770D01*
X22058188Y46160768D01*
X22067863Y46142668D01*
X22151090Y45986962D01*
X22151092Y45986960D01*
X22151093Y45986958D01*
X22276112Y45834622D01*
X22276121Y45834613D01*
X22428457Y45709594D01*
X22428462Y45709590D01*
X22602273Y45616686D01*
X22790868Y45559476D01*
X22790870Y45559476D01*
X22790873Y45559475D01*
X22986997Y45540159D01*
X22987000Y45540159D01*
X22987003Y45540159D01*
X23183126Y45559475D01*
X23183127Y45559476D01*
X23183132Y45559476D01*
X23371727Y45616686D01*
X23545538Y45709590D01*
X23697883Y45834617D01*
X23822910Y45986962D01*
X23906137Y46142668D01*
X23950243Y46185075D01*
X23993447Y46195000D01*
X32558142Y46195000D01*
X32558144Y46195000D01*
X32647288Y46218886D01*
X32727212Y46265030D01*
X37737428Y51275247D01*
X39031500Y51275247D01*
X39031500Y49435754D01*
X39031501Y49435742D01*
X39043132Y49377273D01*
X39043134Y49377267D01*
X39087445Y49310952D01*
X39087448Y49310948D01*
X39153769Y49266633D01*
X39198231Y49257789D01*
X39212241Y49255002D01*
X39212246Y49255002D01*
X39212252Y49255000D01*
X39212253Y49255000D01*
X41051747Y49255000D01*
X41051748Y49255000D01*
X41110231Y49266633D01*
X41176552Y49310948D01*
X41220867Y49377269D01*
X41232500Y49435752D01*
X41232500Y51275248D01*
X41220867Y51333731D01*
X41176552Y51400052D01*
X41176548Y51400055D01*
X41110233Y51444366D01*
X41110231Y51444367D01*
X41110228Y51444368D01*
X41110227Y51444368D01*
X41051758Y51455999D01*
X41051748Y51456000D01*
X39212252Y51456000D01*
X39212251Y51456000D01*
X39212241Y51455999D01*
X39153772Y51444368D01*
X39153766Y51444366D01*
X39087451Y51400055D01*
X39087445Y51400049D01*
X39043134Y51333734D01*
X39043132Y51333728D01*
X39031501Y51275259D01*
X39031500Y51275247D01*
X37737428Y51275247D01*
X38956595Y52494414D01*
X39011110Y52522189D01*
X39071542Y52512618D01*
X39114807Y52469353D01*
X39115203Y52468566D01*
X39192327Y52313679D01*
X39315236Y52150921D01*
X39465959Y52013519D01*
X39639363Y51906152D01*
X39829544Y51832476D01*
X40030024Y51795000D01*
X40233976Y51795000D01*
X40434456Y51832476D01*
X40624637Y51906152D01*
X40798041Y52013519D01*
X40948764Y52150921D01*
X41071673Y52313679D01*
X41162582Y52496250D01*
X41218397Y52692417D01*
X41237215Y52895500D01*
X41218397Y53098583D01*
X41162582Y53294750D01*
X41071673Y53477321D01*
X40948764Y53640079D01*
X40798041Y53777481D01*
X40624637Y53884848D01*
X40434456Y53958524D01*
X40434455Y53958525D01*
X40434453Y53958525D01*
X40233976Y53996000D01*
X40030024Y53996000D01*
X39829546Y53958525D01*
X39759632Y53931441D01*
X39639363Y53884848D01*
X39587717Y53852870D01*
X39465959Y53777481D01*
X39315237Y53640080D01*
X39192328Y53477323D01*
X39192323Y53477314D01*
X39104466Y53300872D01*
X39061603Y53257209D01*
X39015845Y53246000D01*
X38815856Y53246000D01*
X38746108Y53227311D01*
X38746107Y53227312D01*
X38726713Y53222115D01*
X38646788Y53175970D01*
X32395814Y46924996D01*
X32341297Y46897219D01*
X32325810Y46896000D01*
X23993447Y46896000D01*
X23935256Y46914907D01*
X23906137Y46948332D01*
X23878578Y46999891D01*
X23822910Y47104038D01*
X23822906Y47104043D01*
X23697887Y47256379D01*
X23697878Y47256388D01*
X23545542Y47381407D01*
X23545540Y47381408D01*
X23545538Y47381410D01*
X23482696Y47415000D01*
X23371732Y47474312D01*
X23371730Y47474313D01*
X23183129Y47531525D01*
X23183126Y47531526D01*
X22987003Y47550841D01*
X22986997Y47550841D01*
X22790873Y47531526D01*
X22790870Y47531525D01*
X22602269Y47474313D01*
X22602267Y47474312D01*
X22428467Y47381413D01*
X22428457Y47381407D01*
X22276121Y47256388D01*
X22276112Y47256379D01*
X22151093Y47104043D01*
X22151087Y47104033D01*
X22058188Y46930233D01*
X22058187Y46930231D01*
X22000975Y46741630D01*
X22000974Y46741627D01*
X21981659Y46545504D01*
X15717500Y46545504D01*
X15717500Y46591643D01*
X15717500Y46591644D01*
X15693614Y46680788D01*
X15647470Y46760712D01*
X14312212Y48095970D01*
X14232288Y48142114D01*
X14232285Y48142115D01*
X14212892Y48147312D01*
X14212892Y48147311D01*
X14143144Y48166000D01*
X14143142Y48166000D01*
X7041500Y48166000D01*
X6983309Y48184907D01*
X6947345Y48234407D01*
X6942500Y48265000D01*
X6942500Y48529557D01*
X30006500Y48529557D01*
X30006500Y48371443D01*
X30047423Y48218716D01*
X30126480Y48081784D01*
X30238284Y47969980D01*
X30375216Y47890923D01*
X30527943Y47850000D01*
X30527945Y47850000D01*
X32591055Y47850000D01*
X32591057Y47850000D01*
X32743784Y47890923D01*
X32880716Y47969980D01*
X32992520Y48081784D01*
X33071577Y48218716D01*
X33112500Y48371443D01*
X33112500Y48529557D01*
X33071577Y48682284D01*
X32992520Y48819216D01*
X32880716Y48931020D01*
X32743784Y49010077D01*
X32591057Y49051000D01*
X30527943Y49051000D01*
X30375216Y49010077D01*
X30238284Y48931020D01*
X30126480Y48819216D01*
X30047423Y48682284D01*
X30006500Y48529557D01*
X6942500Y48529557D01*
X6942500Y48735247D01*
X6942498Y48735259D01*
X6939711Y48749269D01*
X6930867Y48793731D01*
X6886552Y48860052D01*
X6886548Y48860055D01*
X6820233Y48904366D01*
X6820231Y48904367D01*
X6820228Y48904368D01*
X6820227Y48904368D01*
X6761758Y48915999D01*
X6761748Y48916000D01*
X4922252Y48916000D01*
X4922251Y48916000D01*
X4922241Y48915999D01*
X4863772Y48904368D01*
X4863766Y48904366D01*
X4797451Y48860055D01*
X4797445Y48860049D01*
X4753134Y48793734D01*
X4753132Y48793728D01*
X4741501Y48735259D01*
X4741500Y48735247D01*
X500500Y48735247D01*
X500500Y50355500D01*
X4736785Y50355500D01*
X4755603Y50152417D01*
X4807287Y49970768D01*
X4811419Y49956248D01*
X4890735Y49796958D01*
X4902327Y49773679D01*
X5025236Y49610921D01*
X5175959Y49473519D01*
X5349363Y49366152D01*
X5539544Y49292476D01*
X5740024Y49255000D01*
X5943976Y49255000D01*
X6144456Y49292476D01*
X6334637Y49366152D01*
X6508041Y49473519D01*
X6658764Y49610921D01*
X6781673Y49773679D01*
X6869534Y49950128D01*
X6912397Y49993791D01*
X6958155Y50005000D01*
X11820553Y50005000D01*
X11878744Y49986093D01*
X11907863Y49952668D01*
X11991090Y49796962D01*
X11991092Y49796960D01*
X11991093Y49796958D01*
X12116112Y49644622D01*
X12116121Y49644613D01*
X12157175Y49610921D01*
X12268462Y49519590D01*
X12354653Y49473520D01*
X12425311Y49435752D01*
X12442273Y49426686D01*
X12630868Y49369476D01*
X12630870Y49369476D01*
X12630873Y49369475D01*
X12826997Y49350159D01*
X12827000Y49350159D01*
X12827003Y49350159D01*
X13023126Y49369475D01*
X13023127Y49369476D01*
X13023132Y49369476D01*
X13211727Y49426686D01*
X13385538Y49519590D01*
X13537883Y49644617D01*
X13662910Y49796962D01*
X13755814Y49970773D01*
X13813024Y50159368D01*
X13832341Y50355500D01*
X13832341Y50355504D01*
X21981659Y50355504D01*
X21981659Y50355497D01*
X22000974Y50159374D01*
X22000975Y50159371D01*
X22058187Y49970770D01*
X22058188Y49970768D01*
X22129218Y49837882D01*
X22151090Y49796962D01*
X22151092Y49796960D01*
X22151093Y49796958D01*
X22276112Y49644622D01*
X22276121Y49644613D01*
X22317175Y49610921D01*
X22428462Y49519590D01*
X22514653Y49473520D01*
X22585311Y49435752D01*
X22602273Y49426686D01*
X22790868Y49369476D01*
X22790870Y49369476D01*
X22790873Y49369475D01*
X22986997Y49350159D01*
X22987000Y49350159D01*
X22987003Y49350159D01*
X23183126Y49369475D01*
X23183127Y49369476D01*
X23183132Y49369476D01*
X23371727Y49426686D01*
X23545538Y49519590D01*
X23697883Y49644617D01*
X23822910Y49796962D01*
X23915814Y49970773D01*
X23973024Y50159368D01*
X23992341Y50355500D01*
X23992341Y50355504D01*
X23973025Y50551627D01*
X23973024Y50551630D01*
X23973024Y50551632D01*
X23915814Y50740227D01*
X23822910Y50914038D01*
X23803802Y50937321D01*
X23697887Y51066379D01*
X23697878Y51066388D01*
X23545542Y51191407D01*
X23545540Y51191408D01*
X23545538Y51191410D01*
X23504618Y51213282D01*
X23371732Y51284312D01*
X23371730Y51284313D01*
X23183129Y51341525D01*
X23183126Y51341526D01*
X22987003Y51360841D01*
X22986997Y51360841D01*
X22790873Y51341526D01*
X22790870Y51341525D01*
X22602269Y51284313D01*
X22602267Y51284312D01*
X22428467Y51191413D01*
X22428457Y51191407D01*
X22276121Y51066388D01*
X22276112Y51066379D01*
X22151093Y50914043D01*
X22151087Y50914033D01*
X22058188Y50740233D01*
X22058187Y50740231D01*
X22000975Y50551630D01*
X22000974Y50551627D01*
X21981659Y50355504D01*
X13832341Y50355504D01*
X13813025Y50551627D01*
X13813024Y50551630D01*
X13813024Y50551632D01*
X13755814Y50740227D01*
X13662910Y50914038D01*
X13643802Y50937321D01*
X13537887Y51066379D01*
X13537878Y51066388D01*
X13385542Y51191407D01*
X13385540Y51191408D01*
X13385538Y51191410D01*
X13344618Y51213282D01*
X13211732Y51284312D01*
X13211730Y51284313D01*
X13023129Y51341525D01*
X13023126Y51341526D01*
X12827003Y51360841D01*
X12826997Y51360841D01*
X12630873Y51341526D01*
X12630870Y51341525D01*
X12442269Y51284313D01*
X12442267Y51284312D01*
X12268467Y51191413D01*
X12268457Y51191407D01*
X12116121Y51066388D01*
X12116112Y51066379D01*
X11991093Y50914043D01*
X11991087Y50914033D01*
X11907863Y50758332D01*
X11863757Y50715925D01*
X11820553Y50706000D01*
X6958155Y50706000D01*
X6899964Y50724907D01*
X6869534Y50760872D01*
X6781676Y50937314D01*
X6781673Y50937321D01*
X6658764Y51100079D01*
X6508041Y51237481D01*
X6334637Y51344848D01*
X6144456Y51418524D01*
X6144455Y51418525D01*
X6144453Y51418525D01*
X5943976Y51456000D01*
X5740024Y51456000D01*
X5539546Y51418525D01*
X5491862Y51400052D01*
X5349363Y51344848D01*
X5175959Y51237481D01*
X5025237Y51100080D01*
X4902328Y50937323D01*
X4902323Y50937314D01*
X4811419Y50754753D01*
X4811418Y50754750D01*
X4755603Y50558583D01*
X4736785Y50355500D01*
X500500Y50355500D01*
X500500Y55573174D01*
X10345500Y55573174D01*
X10345500Y55297826D01*
X10381440Y55024834D01*
X10420253Y54879979D01*
X10452704Y54758869D01*
X10558074Y54504484D01*
X10558077Y54504479D01*
X10695751Y54266021D01*
X10863372Y54047572D01*
X11058072Y53852872D01*
X11276521Y53685251D01*
X11514979Y53547577D01*
X11514980Y53547577D01*
X11514983Y53547575D01*
X11684586Y53477323D01*
X11769368Y53442205D01*
X12035334Y53370940D01*
X12308326Y53335000D01*
X12308327Y53335000D01*
X12583673Y53335000D01*
X12583674Y53335000D01*
X12856666Y53370940D01*
X13122632Y53442205D01*
X13377021Y53547577D01*
X13615479Y53685251D01*
X13833928Y53852872D01*
X14028628Y54047572D01*
X14196249Y54266021D01*
X14333923Y54504479D01*
X14439295Y54758868D01*
X14510560Y55024834D01*
X14530024Y55172676D01*
X17836999Y55172676D01*
X17843401Y55113130D01*
X17843403Y55113119D01*
X17893646Y54978412D01*
X17893647Y54978410D01*
X17979807Y54863316D01*
X17979815Y54863308D01*
X18094909Y54777148D01*
X18094911Y54777147D01*
X18229618Y54726904D01*
X18229629Y54726902D01*
X18289176Y54720500D01*
X18936999Y54720500D01*
X18937000Y54720501D01*
X18937000Y55637488D01*
X18994007Y55604575D01*
X19121174Y55570500D01*
X19252826Y55570500D01*
X19379993Y55604575D01*
X19437000Y55637488D01*
X19437000Y54720501D01*
X19437001Y54720500D01*
X20084824Y54720500D01*
X20144370Y54726902D01*
X20144381Y54726904D01*
X20279088Y54777147D01*
X20279090Y54777148D01*
X20394184Y54863308D01*
X20394192Y54863316D01*
X20480352Y54978410D01*
X20480353Y54978412D01*
X20530596Y55113119D01*
X20530598Y55113130D01*
X20537000Y55172676D01*
X20537000Y55707139D01*
X20555907Y55765330D01*
X20605407Y55801294D01*
X20666593Y55801294D01*
X20716093Y55765330D01*
X20730737Y55735877D01*
X20751768Y55666546D01*
X20849316Y55484048D01*
X20980585Y55324096D01*
X20980590Y55324090D01*
X20980595Y55324086D01*
X21140547Y55192817D01*
X21140548Y55192817D01*
X21140550Y55192815D01*
X21323046Y55095268D01*
X21460997Y55053422D01*
X21521065Y55035200D01*
X21521070Y55035199D01*
X21726997Y55014917D01*
X21727000Y55014917D01*
X21727003Y55014917D01*
X21932929Y55035199D01*
X21932934Y55035200D01*
X22130954Y55095268D01*
X22313450Y55192815D01*
X22473410Y55324090D01*
X22604685Y55484050D01*
X22702232Y55666546D01*
X22762300Y55864566D01*
X22762301Y55864571D01*
X22782583Y56070497D01*
X22782583Y56070504D01*
X23211417Y56070504D01*
X23211417Y56070497D01*
X23231698Y55864571D01*
X23231699Y55864566D01*
X23291768Y55666546D01*
X23389316Y55484048D01*
X23520585Y55324096D01*
X23520590Y55324090D01*
X23520595Y55324086D01*
X23680547Y55192817D01*
X23680548Y55192817D01*
X23680550Y55192815D01*
X23863046Y55095268D01*
X24000997Y55053422D01*
X24061065Y55035200D01*
X24061070Y55035199D01*
X24266997Y55014917D01*
X24267000Y55014917D01*
X24267003Y55014917D01*
X24472929Y55035199D01*
X24472934Y55035200D01*
X24670954Y55095268D01*
X24853450Y55192815D01*
X25013410Y55324090D01*
X25144685Y55484050D01*
X25242232Y55666546D01*
X25302300Y55864566D01*
X25302301Y55864571D01*
X25322583Y56070497D01*
X25322583Y56070504D01*
X25302301Y56276430D01*
X25302300Y56276435D01*
X25264384Y56401427D01*
X25242232Y56474454D01*
X25144685Y56656950D01*
X25013410Y56816910D01*
X25013404Y56816915D01*
X24853452Y56948184D01*
X24670954Y57045732D01*
X24472934Y57105801D01*
X24472929Y57105802D01*
X24267003Y57126083D01*
X24266997Y57126083D01*
X24061070Y57105802D01*
X24061065Y57105801D01*
X23863045Y57045732D01*
X23680547Y56948184D01*
X23520595Y56816915D01*
X23520585Y56816905D01*
X23389316Y56656953D01*
X23291768Y56474455D01*
X23231699Y56276435D01*
X23231698Y56276430D01*
X23211417Y56070504D01*
X22782583Y56070504D01*
X22762301Y56276430D01*
X22762300Y56276435D01*
X22724384Y56401427D01*
X22702232Y56474454D01*
X22604685Y56656950D01*
X22473410Y56816910D01*
X22473404Y56816915D01*
X22313452Y56948184D01*
X22130954Y57045732D01*
X21932934Y57105801D01*
X21932929Y57105802D01*
X21727003Y57126083D01*
X21726997Y57126083D01*
X21521070Y57105802D01*
X21521065Y57105801D01*
X21323045Y57045732D01*
X21140547Y56948184D01*
X20980595Y56816915D01*
X20980585Y56816905D01*
X20849316Y56656953D01*
X20751768Y56474455D01*
X20730737Y56405124D01*
X20695752Y56354927D01*
X20637943Y56334881D01*
X20579393Y56352642D01*
X20542464Y56401427D01*
X20537000Y56433862D01*
X20537000Y56968325D01*
X20530598Y57027871D01*
X20530596Y57027882D01*
X20480353Y57162589D01*
X20480352Y57162591D01*
X20394192Y57277685D01*
X20394184Y57277693D01*
X20279090Y57363853D01*
X20279088Y57363854D01*
X20144381Y57414097D01*
X20144370Y57414099D01*
X20084824Y57420500D01*
X19437001Y57420500D01*
X19437000Y57420499D01*
X19437000Y56503512D01*
X19379993Y56536425D01*
X19252826Y56570500D01*
X19121174Y56570500D01*
X18994007Y56536425D01*
X18937000Y56503512D01*
X18937000Y57420499D01*
X18936999Y57420500D01*
X18289176Y57420500D01*
X18229629Y57414099D01*
X18229618Y57414097D01*
X18094911Y57363854D01*
X18094909Y57363853D01*
X17979815Y57277693D01*
X17979807Y57277685D01*
X17893647Y57162591D01*
X17893646Y57162589D01*
X17843403Y57027882D01*
X17843401Y57027871D01*
X17837000Y56968325D01*
X17837000Y56320501D01*
X17837001Y56320500D01*
X18753988Y56320500D01*
X18721075Y56263493D01*
X18687000Y56136326D01*
X18687000Y56004674D01*
X18721075Y55877507D01*
X18753988Y55820500D01*
X17837001Y55820500D01*
X17837000Y55820499D01*
X17837000Y55172676D01*
X17836999Y55172676D01*
X14530024Y55172676D01*
X14546500Y55297826D01*
X14546500Y55573174D01*
X14510560Y55846166D01*
X14439295Y56112132D01*
X14371240Y56276430D01*
X14333925Y56366517D01*
X14313770Y56401427D01*
X14196249Y56604979D01*
X14028628Y56823428D01*
X13833928Y57018128D01*
X13719670Y57105801D01*
X13615482Y57185747D01*
X13377016Y57323426D01*
X13122631Y57428796D01*
X13001521Y57461247D01*
X12856666Y57500060D01*
X12856659Y57500061D01*
X12583675Y57536000D01*
X12583674Y57536000D01*
X12308326Y57536000D01*
X12308324Y57536000D01*
X12035340Y57500061D01*
X12035338Y57500061D01*
X12035334Y57500060D01*
X11934805Y57473124D01*
X11769368Y57428796D01*
X11514983Y57323426D01*
X11276517Y57185747D01*
X11058075Y57018131D01*
X10863369Y56823425D01*
X10695753Y56604983D01*
X10558074Y56366517D01*
X10452704Y56112132D01*
X10423912Y56004674D01*
X10381440Y55846166D01*
X10381439Y55846162D01*
X10381439Y55846160D01*
X10357793Y55666546D01*
X10345500Y55573174D01*
X500500Y55573174D01*
X500500Y61051500D01*
X519407Y61109691D01*
X568907Y61145655D01*
X599500Y61150500D01*
X7111999Y61150500D01*
X7112000Y61150500D01*
X9054968Y63093468D01*
X18246500Y63093468D01*
X18246500Y62636533D01*
X18286869Y62433582D01*
X18366058Y62242403D01*
X18481020Y62070349D01*
X18481023Y62070345D01*
X18627345Y61924023D01*
X18799402Y61809059D01*
X18990580Y61729870D01*
X19193535Y61689500D01*
X19193536Y61689500D01*
X19400464Y61689500D01*
X19400465Y61689500D01*
X19603420Y61729870D01*
X19794598Y61809059D01*
X19806991Y61817341D01*
X19865875Y61833951D01*
X19923279Y61812777D01*
X19931998Y61805031D01*
X20771040Y60965989D01*
X20771039Y60965989D01*
X20826989Y60910040D01*
X20895507Y60870481D01*
X20895511Y60870479D01*
X20971935Y60850001D01*
X20971937Y60850000D01*
X20971938Y60850000D01*
X21561521Y60850000D01*
X21619712Y60831093D01*
X21631525Y60821004D01*
X25334649Y57117880D01*
X25358527Y57079295D01*
X25718819Y56002728D01*
X25822847Y55691886D01*
X25825186Y55685275D01*
X25827322Y55679553D01*
X25827145Y55679488D01*
X25830062Y55672169D01*
X25831766Y55666552D01*
X25831770Y55666542D01*
X25929316Y55484048D01*
X26060585Y55324096D01*
X26060590Y55324090D01*
X26060595Y55324086D01*
X26220547Y55192817D01*
X26220548Y55192817D01*
X26220550Y55192815D01*
X26403046Y55095268D01*
X26540997Y55053422D01*
X26601065Y55035200D01*
X26601070Y55035199D01*
X26806997Y55014917D01*
X26807000Y55014917D01*
X26807003Y55014917D01*
X27012929Y55035199D01*
X27012934Y55035200D01*
X27210954Y55095268D01*
X27393450Y55192815D01*
X27553410Y55324090D01*
X27684685Y55484050D01*
X27732323Y55573174D01*
X31427500Y55573174D01*
X31427500Y55297826D01*
X31463440Y55024834D01*
X31502253Y54879979D01*
X31534704Y54758869D01*
X31640074Y54504484D01*
X31640077Y54504479D01*
X31777751Y54266021D01*
X31945372Y54047572D01*
X32140072Y53852872D01*
X32358521Y53685251D01*
X32596979Y53547577D01*
X32596980Y53547577D01*
X32596983Y53547575D01*
X32766586Y53477323D01*
X32851368Y53442205D01*
X33117334Y53370940D01*
X33390326Y53335000D01*
X33390327Y53335000D01*
X33665673Y53335000D01*
X33665674Y53335000D01*
X33938666Y53370940D01*
X34204632Y53442205D01*
X34459021Y53547577D01*
X34697479Y53685251D01*
X34915928Y53852872D01*
X35110628Y54047572D01*
X35278249Y54266021D01*
X35415923Y54504479D01*
X35521295Y54758868D01*
X35592560Y55024834D01*
X35628500Y55297826D01*
X35628500Y55573174D01*
X35592560Y55846166D01*
X35521295Y56112132D01*
X35453240Y56276430D01*
X35415925Y56366517D01*
X35395770Y56401427D01*
X35278249Y56604979D01*
X35110628Y56823428D01*
X34915928Y57018128D01*
X34801670Y57105801D01*
X34697482Y57185747D01*
X34459016Y57323426D01*
X34204631Y57428796D01*
X34083521Y57461247D01*
X33938666Y57500060D01*
X33938659Y57500061D01*
X33665675Y57536000D01*
X33665674Y57536000D01*
X33390326Y57536000D01*
X33390324Y57536000D01*
X33117340Y57500061D01*
X33117338Y57500061D01*
X33117334Y57500060D01*
X33016805Y57473124D01*
X32851368Y57428796D01*
X32596983Y57323426D01*
X32358517Y57185747D01*
X32140075Y57018131D01*
X31945369Y56823425D01*
X31777753Y56604983D01*
X31640074Y56366517D01*
X31534704Y56112132D01*
X31505912Y56004674D01*
X31463440Y55846166D01*
X31463439Y55846162D01*
X31463439Y55846160D01*
X31439793Y55666546D01*
X31427500Y55573174D01*
X27732323Y55573174D01*
X27782232Y55666546D01*
X27842300Y55864566D01*
X27842301Y55864571D01*
X27862583Y56070497D01*
X27862583Y56070504D01*
X27842301Y56276430D01*
X27842300Y56276435D01*
X27804384Y56401427D01*
X27782232Y56474454D01*
X27684685Y56656950D01*
X27553410Y56816910D01*
X27553404Y56816915D01*
X27393452Y56948184D01*
X27210956Y57045732D01*
X27200146Y57049011D01*
X27188427Y57053393D01*
X27185616Y57054652D01*
X25798204Y57518974D01*
X25759619Y57542852D01*
X21911511Y61390960D01*
X21907032Y61393546D01*
X21878096Y61410253D01*
X21878096Y61410252D01*
X21842989Y61430521D01*
X21842988Y61430522D01*
X21842987Y61430522D01*
X21766564Y61451000D01*
X21766562Y61451000D01*
X21176979Y61451000D01*
X21118788Y61469907D01*
X21106975Y61479996D01*
X20308875Y62278096D01*
X20281098Y62332613D01*
X20287414Y62385985D01*
X20307130Y62433580D01*
X20347500Y62636535D01*
X20347500Y63093465D01*
X20347499Y63093468D01*
X20746500Y63093468D01*
X20746500Y62636533D01*
X20786869Y62433582D01*
X20866058Y62242403D01*
X20981020Y62070349D01*
X20981023Y62070345D01*
X21127345Y61924023D01*
X21299402Y61809059D01*
X21490580Y61729870D01*
X21693535Y61689500D01*
X21693536Y61689500D01*
X21900464Y61689500D01*
X21900465Y61689500D01*
X22103420Y61729870D01*
X22294598Y61809059D01*
X22466655Y61924023D01*
X22612977Y62070345D01*
X22727941Y62242402D01*
X22807130Y62433580D01*
X22847500Y62636535D01*
X22847500Y63093465D01*
X22847499Y63093468D01*
X23246500Y63093468D01*
X23246500Y62636533D01*
X23286869Y62433582D01*
X23366058Y62242403D01*
X23481020Y62070349D01*
X23481023Y62070345D01*
X23627345Y61924023D01*
X23799402Y61809059D01*
X23990580Y61729870D01*
X24193535Y61689500D01*
X24193536Y61689500D01*
X24400464Y61689500D01*
X24400465Y61689500D01*
X24603420Y61729870D01*
X24794598Y61809059D01*
X24966655Y61924023D01*
X25112977Y62070345D01*
X25227941Y62242402D01*
X25256537Y62311441D01*
X25296272Y62357964D01*
X25355766Y62372248D01*
X25412294Y62348834D01*
X25444264Y62296665D01*
X25447000Y62273554D01*
X25447000Y62090014D01*
X25457492Y61987313D01*
X25457495Y61987301D01*
X25512643Y61820876D01*
X25604680Y61671660D01*
X25728659Y61547681D01*
X25877875Y61455644D01*
X26044306Y61400494D01*
X26147012Y61390001D01*
X26546998Y61390001D01*
X26547000Y61390002D01*
X26547000Y62431988D01*
X26604007Y62399075D01*
X26731174Y62365000D01*
X26862826Y62365000D01*
X26989993Y62399075D01*
X27047000Y62431988D01*
X27047000Y61390002D01*
X27047001Y61390001D01*
X27446986Y61390001D01*
X27549687Y61400493D01*
X27549699Y61400496D01*
X27716124Y61455644D01*
X27865340Y61547681D01*
X27989319Y61671660D01*
X28081356Y61820876D01*
X28136506Y61987307D01*
X28147000Y62090013D01*
X28147000Y62614999D01*
X28146999Y62615000D01*
X27230012Y62615000D01*
X27262925Y62672007D01*
X27297000Y62799174D01*
X27297000Y62930826D01*
X27265135Y63049747D01*
X31424500Y63049747D01*
X31424500Y61410254D01*
X31424501Y61410242D01*
X31436132Y61351773D01*
X31436133Y61351769D01*
X31480448Y61285448D01*
X31546769Y61241133D01*
X31591231Y61232289D01*
X31605241Y61229502D01*
X31605246Y61229502D01*
X31605252Y61229500D01*
X31605253Y61229500D01*
X33244747Y61229500D01*
X33244748Y61229500D01*
X33303231Y61241133D01*
X33369552Y61285448D01*
X33413867Y61351769D01*
X33425500Y61410252D01*
X33425500Y62186060D01*
X33438648Y62226530D01*
X33437065Y62232239D01*
X33609083Y62232239D01*
X33623123Y62194688D01*
X33639857Y62003403D01*
X33698733Y61783677D01*
X33794864Y61577520D01*
X33845972Y61504529D01*
X34525000Y62183557D01*
X34525000Y62177339D01*
X34552259Y62075606D01*
X34604920Y61984394D01*
X34679394Y61909920D01*
X34770606Y61857259D01*
X34872339Y61830000D01*
X34878553Y61830000D01*
X34199527Y61150974D01*
X34272518Y61099866D01*
X34478676Y61003734D01*
X34698402Y60944858D01*
X34924997Y60925034D01*
X34925003Y60925034D01*
X35151597Y60944858D01*
X35371323Y61003734D01*
X35577483Y61099867D01*
X35577484Y61099867D01*
X35650471Y61150974D01*
X34971445Y61830000D01*
X34977661Y61830000D01*
X35079394Y61857259D01*
X35170606Y61909920D01*
X35245080Y61984394D01*
X35297741Y62075606D01*
X35325000Y62177339D01*
X35325000Y62183555D01*
X36004026Y61504529D01*
X36055133Y61577516D01*
X36055133Y61577517D01*
X36151266Y61783677D01*
X36210142Y62003403D01*
X36229966Y62229997D01*
X36229966Y62230004D01*
X36210142Y62456598D01*
X36151266Y62676324D01*
X36055134Y62882482D01*
X36004026Y62955473D01*
X35325000Y62276447D01*
X35325000Y62282661D01*
X35297741Y62384394D01*
X35245080Y62475606D01*
X35170606Y62550080D01*
X35079394Y62602741D01*
X34977661Y62630000D01*
X34971443Y62630000D01*
X35650471Y63309028D01*
X35577480Y63360136D01*
X35371323Y63456267D01*
X35151597Y63515143D01*
X34925003Y63534966D01*
X34924997Y63534966D01*
X34698402Y63515143D01*
X34478671Y63456266D01*
X34272525Y63360139D01*
X34272508Y63360129D01*
X34199527Y63309028D01*
X34878555Y62630000D01*
X34872339Y62630000D01*
X34770606Y62602741D01*
X34679394Y62550080D01*
X34604920Y62475606D01*
X34552259Y62384394D01*
X34525000Y62282661D01*
X34525000Y62276445D01*
X33845972Y62955473D01*
X33794871Y62882492D01*
X33794861Y62882475D01*
X33698734Y62676329D01*
X33639857Y62456598D01*
X33623123Y62265313D01*
X33609083Y62232239D01*
X33437065Y62232239D01*
X33425500Y62273941D01*
X33425500Y63049747D01*
X33425498Y63049759D01*
X33416804Y63093465D01*
X33413867Y63108231D01*
X33369552Y63174552D01*
X33369548Y63174555D01*
X33303233Y63218866D01*
X33303231Y63218867D01*
X33303228Y63218868D01*
X33303227Y63218868D01*
X33244758Y63230499D01*
X33244748Y63230500D01*
X31605252Y63230500D01*
X31605251Y63230500D01*
X31605241Y63230499D01*
X31546772Y63218868D01*
X31546766Y63218866D01*
X31480451Y63174555D01*
X31480445Y63174549D01*
X31436134Y63108234D01*
X31436132Y63108228D01*
X31424501Y63049759D01*
X31424500Y63049747D01*
X27265135Y63049747D01*
X27262925Y63057993D01*
X27230012Y63115000D01*
X28146998Y63115000D01*
X28146999Y63115001D01*
X28146999Y63639987D01*
X28136507Y63742688D01*
X28136504Y63742700D01*
X28081356Y63909125D01*
X27989319Y64058341D01*
X27865340Y64182320D01*
X27716124Y64274357D01*
X27549693Y64329507D01*
X27446987Y64340000D01*
X27047001Y64340000D01*
X27047000Y64339999D01*
X27047000Y63298012D01*
X26989993Y63330925D01*
X26862826Y63365000D01*
X26731174Y63365000D01*
X26604007Y63330925D01*
X26547000Y63298012D01*
X26547000Y64339999D01*
X26546999Y64340000D01*
X26147013Y64340000D01*
X26044312Y64329508D01*
X26044300Y64329505D01*
X25877875Y64274357D01*
X25728659Y64182320D01*
X25604680Y64058341D01*
X25512643Y63909125D01*
X25457493Y63742694D01*
X25447000Y63639988D01*
X25447000Y63456450D01*
X25428093Y63398259D01*
X25378593Y63362295D01*
X25317407Y63362295D01*
X25267907Y63398259D01*
X25256536Y63418564D01*
X25227941Y63487598D01*
X25112979Y63659652D01*
X25112977Y63659655D01*
X24966655Y63805977D01*
X24966651Y63805980D01*
X24794597Y63920942D01*
X24603418Y64000131D01*
X24400467Y64040500D01*
X24400465Y64040500D01*
X24193535Y64040500D01*
X24193532Y64040500D01*
X23990581Y64000131D01*
X23799402Y63920942D01*
X23627348Y63805980D01*
X23481020Y63659652D01*
X23366058Y63487598D01*
X23286869Y63296419D01*
X23246500Y63093468D01*
X22847499Y63093468D01*
X22807130Y63296420D01*
X22727941Y63487598D01*
X22612977Y63659655D01*
X22466655Y63805977D01*
X22466651Y63805980D01*
X22294597Y63920942D01*
X22103418Y64000131D01*
X21900467Y64040500D01*
X21900465Y64040500D01*
X21693535Y64040500D01*
X21693532Y64040500D01*
X21490581Y64000131D01*
X21299402Y63920942D01*
X21127348Y63805980D01*
X20981020Y63659652D01*
X20866058Y63487598D01*
X20786869Y63296419D01*
X20746500Y63093468D01*
X20347499Y63093468D01*
X20307130Y63296420D01*
X20227941Y63487598D01*
X20112977Y63659655D01*
X19966655Y63805977D01*
X19966651Y63805980D01*
X19794597Y63920942D01*
X19603418Y64000131D01*
X19400467Y64040500D01*
X19400465Y64040500D01*
X19193535Y64040500D01*
X19193532Y64040500D01*
X18990581Y64000131D01*
X18799402Y63920942D01*
X18627348Y63805980D01*
X18481020Y63659652D01*
X18366058Y63487598D01*
X18286869Y63296419D01*
X18246500Y63093468D01*
X9054968Y63093468D01*
X9652000Y63690500D01*
X9652000Y70393500D01*
X9670907Y70451691D01*
X9720407Y70487655D01*
X9751000Y70492500D01*
X36223000Y70492500D01*
X36281191Y70473593D01*
G37*
%TD.AperFunction*%
%TD*%
%TA.AperFunction,Conductor*%
%TO.N,/BUZZER*%
G36*
X27227107Y44496981D02*
G01*
X27227416Y44496807D01*
X27874363Y44119090D01*
X28063507Y44008659D01*
X28068924Y44001528D01*
X28068931Y44001502D01*
X28285418Y43169806D01*
X28284185Y43160937D01*
X28277042Y43155536D01*
X28274363Y43155162D01*
X26691672Y43118864D01*
X26683323Y43122100D01*
X26683131Y43122288D01*
X26551415Y43254004D01*
X26547988Y43262277D01*
X26549394Y43267840D01*
X27211251Y44492254D01*
X27218199Y44497900D01*
X27227107Y44496981D01*
G37*
%TD.AperFunction*%
%TD*%
%TA.AperFunction,Conductor*%
%TO.N,Net-(J3-Pin_1)*%
G36*
X33249993Y10777073D02*
G01*
X33250493Y10776541D01*
X33989732Y9938737D01*
X33992636Y9930266D01*
X33989237Y9922728D01*
X33155278Y9087788D01*
X33147007Y9084356D01*
X33138732Y9087778D01*
X33138722Y9087788D01*
X32945868Y9280868D01*
X32304761Y9922730D01*
X32301340Y9931003D01*
X32304266Y9938736D01*
X33043507Y10776541D01*
X33051550Y10780477D01*
X33052280Y10780500D01*
X33241720Y10780500D01*
X33249993Y10777073D01*
G37*
%TD.AperFunction*%
%TD*%
%TA.AperFunction,Conductor*%
%TO.N,/I2C_SDA*%
G36*
X32826193Y7314956D02*
G01*
X32826527Y7314225D01*
X33146134Y6544989D01*
X33146143Y6536034D01*
X33146134Y6536011D01*
X32826527Y5766776D01*
X32820188Y5760451D01*
X32811233Y5760460D01*
X32810502Y5760794D01*
X31453480Y6437270D01*
X31447605Y6444028D01*
X31447000Y6447741D01*
X31447000Y6633260D01*
X31450427Y6641533D01*
X31453476Y6643729D01*
X32810503Y7320208D01*
X32819435Y7320831D01*
X32826193Y7314956D01*
G37*
%TD.AperFunction*%
%TD*%
%TA.AperFunction,Conductor*%
%TO.N,/I2C_SDA*%
G36*
X25682490Y57340996D02*
G01*
X27120396Y56859776D01*
X27127154Y56853901D01*
X27127778Y56844968D01*
X27127497Y56844215D01*
X26809562Y56074286D01*
X26803237Y56067947D01*
X26803214Y56067938D01*
X26033285Y55750003D01*
X26024330Y55750012D01*
X26018005Y55756351D01*
X26017724Y55757104D01*
X25913695Y56067947D01*
X25536505Y57195008D01*
X25537129Y57203938D01*
X25539324Y57206988D01*
X25670510Y57338174D01*
X25678782Y57341600D01*
X25682490Y57340996D01*
G37*
%TD.AperFunction*%
%TD*%
%TA.AperFunction,Conductor*%
%TO.N,/I2C_SCL*%
G36*
X13162766Y7320541D02*
G01*
X13163492Y7320209D01*
X14520521Y6643730D01*
X14526395Y6636973D01*
X14527000Y6633260D01*
X14527000Y6447741D01*
X14523573Y6439468D01*
X14520520Y6437270D01*
X13163497Y5760794D01*
X13154564Y5760170D01*
X13147806Y5766045D01*
X13147472Y5766776D01*
X12827865Y6536011D01*
X12827856Y6544966D01*
X12827865Y6544989D01*
X13147472Y7314226D01*
X13153811Y7320550D01*
X13162766Y7320541D01*
G37*
%TD.AperFunction*%
%TD*%
%TA.AperFunction,Conductor*%
%TO.N,Net-(J4-Pin_1)*%
G36*
X12929993Y10777073D02*
G01*
X12930493Y10776541D01*
X13669732Y9938737D01*
X13672636Y9930266D01*
X13669237Y9922728D01*
X12835278Y9087788D01*
X12827007Y9084356D01*
X12818732Y9087778D01*
X12818722Y9087788D01*
X12625868Y9280868D01*
X11984761Y9922730D01*
X11981340Y9931003D01*
X11984266Y9938736D01*
X12723507Y10776541D01*
X12731550Y10780477D01*
X12732280Y10780500D01*
X12921720Y10780500D01*
X12929993Y10777073D01*
G37*
%TD.AperFunction*%
%TD*%
M02*
