%TF.GenerationSoftware,KiCad,Pcbnew,8.0.7*%
%TF.CreationDate,2025-01-23T14:45:19+09:00*%
%TF.ProjectId,I2C_LED_BTN_CH32V,4932435f-4c45-4445-9f42-544e5f434833,0.1.1*%
%TF.SameCoordinates,PX6331cc8PY6f00dec*%
%TF.FileFunction,Legend,Top*%
%TF.FilePolarity,Positive*%
%FSLAX46Y46*%
G04 Gerber Fmt 4.6, Leading zero omitted, Abs format (unit mm)*
G04 Created by KiCad (PCBNEW 8.0.7) date 2025-01-23 14:45:19*
%MOMM*%
%LPD*%
G01*
G04 APERTURE LIST*
%ADD10C,0.100000*%
%ADD11C,0.180000*%
%ADD12C,0.150000*%
%ADD13C,0.120000*%
G04 APERTURE END LIST*
D10*
X25908000Y31813500D02*
X25146000Y31813500D01*
X22225000Y31813500D02*
X21463000Y31813500D01*
X9906000Y57975500D02*
X16002000Y57975500D01*
X36068000Y40830500D02*
X36068000Y34226500D01*
X30353000Y31813500D02*
X28067000Y31813500D01*
X36068000Y57975500D02*
X36068000Y44640500D01*
X9906000Y31813500D02*
X9906000Y57975500D01*
X16002000Y57975500D02*
X36068000Y57975500D01*
X35560000Y31813500D02*
X34036000Y31813500D01*
X18161000Y31813500D02*
X9906000Y31813500D01*
X4444419Y53135813D02*
X3968228Y52802480D01*
X4444419Y52564385D02*
X3444419Y52564385D01*
X3444419Y52564385D02*
X3444419Y52945337D01*
X3444419Y52945337D02*
X3492038Y53040575D01*
X3492038Y53040575D02*
X3539657Y53088194D01*
X3539657Y53088194D02*
X3634895Y53135813D01*
X3634895Y53135813D02*
X3777752Y53135813D01*
X3777752Y53135813D02*
X3872990Y53088194D01*
X3872990Y53088194D02*
X3920609Y53040575D01*
X3920609Y53040575D02*
X3968228Y52945337D01*
X3968228Y52945337D02*
X3968228Y52564385D01*
X4396800Y53945337D02*
X4444419Y53850099D01*
X4444419Y53850099D02*
X4444419Y53659623D01*
X4444419Y53659623D02*
X4396800Y53564385D01*
X4396800Y53564385D02*
X4301561Y53516766D01*
X4301561Y53516766D02*
X3920609Y53516766D01*
X3920609Y53516766D02*
X3825371Y53564385D01*
X3825371Y53564385D02*
X3777752Y53659623D01*
X3777752Y53659623D02*
X3777752Y53850099D01*
X3777752Y53850099D02*
X3825371Y53945337D01*
X3825371Y53945337D02*
X3920609Y53992956D01*
X3920609Y53992956D02*
X4015847Y53992956D01*
X4015847Y53992956D02*
X4111085Y53516766D01*
X3777752Y54326290D02*
X4444419Y54564385D01*
X4444419Y54564385D02*
X3777752Y54802480D01*
X4349180Y55183433D02*
X4396800Y55231052D01*
X4396800Y55231052D02*
X4444419Y55183433D01*
X4444419Y55183433D02*
X4396800Y55135814D01*
X4396800Y55135814D02*
X4349180Y55183433D01*
X4349180Y55183433D02*
X4444419Y55183433D01*
X3444419Y56612004D02*
X3444419Y56707242D01*
X3444419Y56707242D02*
X3492038Y56802480D01*
X3492038Y56802480D02*
X3539657Y56850099D01*
X3539657Y56850099D02*
X3634895Y56897718D01*
X3634895Y56897718D02*
X3825371Y56945337D01*
X3825371Y56945337D02*
X4063466Y56945337D01*
X4063466Y56945337D02*
X4253942Y56897718D01*
X4253942Y56897718D02*
X4349180Y56850099D01*
X4349180Y56850099D02*
X4396800Y56802480D01*
X4396800Y56802480D02*
X4444419Y56707242D01*
X4444419Y56707242D02*
X4444419Y56612004D01*
X4444419Y56612004D02*
X4396800Y56516766D01*
X4396800Y56516766D02*
X4349180Y56469147D01*
X4349180Y56469147D02*
X4253942Y56421528D01*
X4253942Y56421528D02*
X4063466Y56373909D01*
X4063466Y56373909D02*
X3825371Y56373909D01*
X3825371Y56373909D02*
X3634895Y56421528D01*
X3634895Y56421528D02*
X3539657Y56469147D01*
X3539657Y56469147D02*
X3492038Y56516766D01*
X3492038Y56516766D02*
X3444419Y56612004D01*
X4349180Y57373909D02*
X4396800Y57421528D01*
X4396800Y57421528D02*
X4444419Y57373909D01*
X4444419Y57373909D02*
X4396800Y57326290D01*
X4396800Y57326290D02*
X4349180Y57373909D01*
X4349180Y57373909D02*
X4444419Y57373909D01*
X4444419Y58373908D02*
X4444419Y57802480D01*
X4444419Y58088194D02*
X3444419Y58088194D01*
X3444419Y58088194D02*
X3587276Y57992956D01*
X3587276Y57992956D02*
X3682514Y57897718D01*
X3682514Y57897718D02*
X3730133Y57802480D01*
X4349180Y58802480D02*
X4396800Y58850099D01*
X4396800Y58850099D02*
X4444419Y58802480D01*
X4444419Y58802480D02*
X4396800Y58754861D01*
X4396800Y58754861D02*
X4349180Y58802480D01*
X4349180Y58802480D02*
X4444419Y58802480D01*
X4444419Y59802479D02*
X4444419Y59231051D01*
X4444419Y59516765D02*
X3444419Y59516765D01*
X3444419Y59516765D02*
X3587276Y59421527D01*
X3587276Y59421527D02*
X3682514Y59326289D01*
X3682514Y59326289D02*
X3730133Y59231051D01*
D11*
X2535259Y12612017D02*
X1535259Y12612017D01*
X1630497Y13040588D02*
X1582878Y13088207D01*
X1582878Y13088207D02*
X1535259Y13183445D01*
X1535259Y13183445D02*
X1535259Y13421540D01*
X1535259Y13421540D02*
X1582878Y13516778D01*
X1582878Y13516778D02*
X1630497Y13564397D01*
X1630497Y13564397D02*
X1725735Y13612016D01*
X1725735Y13612016D02*
X1820973Y13612016D01*
X1820973Y13612016D02*
X1963830Y13564397D01*
X1963830Y13564397D02*
X2535259Y12992969D01*
X2535259Y12992969D02*
X2535259Y13612016D01*
X2440020Y14612016D02*
X2487640Y14564397D01*
X2487640Y14564397D02*
X2535259Y14421540D01*
X2535259Y14421540D02*
X2535259Y14326302D01*
X2535259Y14326302D02*
X2487640Y14183445D01*
X2487640Y14183445D02*
X2392401Y14088207D01*
X2392401Y14088207D02*
X2297163Y14040588D01*
X2297163Y14040588D02*
X2106687Y13992969D01*
X2106687Y13992969D02*
X1963830Y13992969D01*
X1963830Y13992969D02*
X1773354Y14040588D01*
X1773354Y14040588D02*
X1678116Y14088207D01*
X1678116Y14088207D02*
X1582878Y14183445D01*
X1582878Y14183445D02*
X1535259Y14326302D01*
X1535259Y14326302D02*
X1535259Y14421540D01*
X1535259Y14421540D02*
X1582878Y14564397D01*
X1582878Y14564397D02*
X1630497Y14612016D01*
X2535259Y16278683D02*
X2535259Y15802493D01*
X2535259Y15802493D02*
X1535259Y15802493D01*
X2011449Y16612017D02*
X2011449Y16945350D01*
X2535259Y17088207D02*
X2535259Y16612017D01*
X2535259Y16612017D02*
X1535259Y16612017D01*
X1535259Y16612017D02*
X1535259Y17088207D01*
X2535259Y17516779D02*
X1535259Y17516779D01*
X1535259Y17516779D02*
X1535259Y17754874D01*
X1535259Y17754874D02*
X1582878Y17897731D01*
X1582878Y17897731D02*
X1678116Y17992969D01*
X1678116Y17992969D02*
X1773354Y18040588D01*
X1773354Y18040588D02*
X1963830Y18088207D01*
X1963830Y18088207D02*
X2106687Y18088207D01*
X2106687Y18088207D02*
X2297163Y18040588D01*
X2297163Y18040588D02*
X2392401Y17992969D01*
X2392401Y17992969D02*
X2487640Y17897731D01*
X2487640Y17897731D02*
X2535259Y17754874D01*
X2535259Y17754874D02*
X2535259Y17516779D01*
X2535259Y19707255D02*
X2011449Y19707255D01*
X2011449Y19707255D02*
X1916211Y19659636D01*
X1916211Y19659636D02*
X1868592Y19564398D01*
X1868592Y19564398D02*
X1868592Y19373922D01*
X1868592Y19373922D02*
X1916211Y19278684D01*
X2487640Y19707255D02*
X2535259Y19612017D01*
X2535259Y19612017D02*
X2535259Y19373922D01*
X2535259Y19373922D02*
X2487640Y19278684D01*
X2487640Y19278684D02*
X2392401Y19231065D01*
X2392401Y19231065D02*
X2297163Y19231065D01*
X2297163Y19231065D02*
X2201925Y19278684D01*
X2201925Y19278684D02*
X2154306Y19373922D01*
X2154306Y19373922D02*
X2154306Y19612017D01*
X2154306Y19612017D02*
X2106687Y19707255D01*
X1868592Y20183446D02*
X2535259Y20183446D01*
X1963830Y20183446D02*
X1916211Y20231065D01*
X1916211Y20231065D02*
X1868592Y20326303D01*
X1868592Y20326303D02*
X1868592Y20469160D01*
X1868592Y20469160D02*
X1916211Y20564398D01*
X1916211Y20564398D02*
X2011449Y20612017D01*
X2011449Y20612017D02*
X2535259Y20612017D01*
X2535259Y21516779D02*
X1535259Y21516779D01*
X2487640Y21516779D02*
X2535259Y21421541D01*
X2535259Y21421541D02*
X2535259Y21231065D01*
X2535259Y21231065D02*
X2487640Y21135827D01*
X2487640Y21135827D02*
X2440020Y21088208D01*
X2440020Y21088208D02*
X2344782Y21040589D01*
X2344782Y21040589D02*
X2059068Y21040589D01*
X2059068Y21040589D02*
X1963830Y21088208D01*
X1963830Y21088208D02*
X1916211Y21135827D01*
X1916211Y21135827D02*
X1868592Y21231065D01*
X1868592Y21231065D02*
X1868592Y21421541D01*
X1868592Y21421541D02*
X1916211Y21516779D01*
X2011449Y23088208D02*
X2059068Y23231065D01*
X2059068Y23231065D02*
X2106687Y23278684D01*
X2106687Y23278684D02*
X2201925Y23326303D01*
X2201925Y23326303D02*
X2344782Y23326303D01*
X2344782Y23326303D02*
X2440020Y23278684D01*
X2440020Y23278684D02*
X2487640Y23231065D01*
X2487640Y23231065D02*
X2535259Y23135827D01*
X2535259Y23135827D02*
X2535259Y22754875D01*
X2535259Y22754875D02*
X1535259Y22754875D01*
X1535259Y22754875D02*
X1535259Y23088208D01*
X1535259Y23088208D02*
X1582878Y23183446D01*
X1582878Y23183446D02*
X1630497Y23231065D01*
X1630497Y23231065D02*
X1725735Y23278684D01*
X1725735Y23278684D02*
X1820973Y23278684D01*
X1820973Y23278684D02*
X1916211Y23231065D01*
X1916211Y23231065D02*
X1963830Y23183446D01*
X1963830Y23183446D02*
X2011449Y23088208D01*
X2011449Y23088208D02*
X2011449Y22754875D01*
X1535259Y23754875D02*
X2344782Y23754875D01*
X2344782Y23754875D02*
X2440020Y23802494D01*
X2440020Y23802494D02*
X2487640Y23850113D01*
X2487640Y23850113D02*
X2535259Y23945351D01*
X2535259Y23945351D02*
X2535259Y24135827D01*
X2535259Y24135827D02*
X2487640Y24231065D01*
X2487640Y24231065D02*
X2440020Y24278684D01*
X2440020Y24278684D02*
X2344782Y24326303D01*
X2344782Y24326303D02*
X1535259Y24326303D01*
X1535259Y24659637D02*
X1535259Y25231065D01*
X2535259Y24945351D02*
X1535259Y24945351D01*
X1535259Y25421542D02*
X1535259Y25992970D01*
X2535259Y25707256D02*
X1535259Y25707256D01*
X1535259Y26516780D02*
X1535259Y26707256D01*
X1535259Y26707256D02*
X1582878Y26802494D01*
X1582878Y26802494D02*
X1678116Y26897732D01*
X1678116Y26897732D02*
X1868592Y26945351D01*
X1868592Y26945351D02*
X2201925Y26945351D01*
X2201925Y26945351D02*
X2392401Y26897732D01*
X2392401Y26897732D02*
X2487640Y26802494D01*
X2487640Y26802494D02*
X2535259Y26707256D01*
X2535259Y26707256D02*
X2535259Y26516780D01*
X2535259Y26516780D02*
X2487640Y26421542D01*
X2487640Y26421542D02*
X2392401Y26326304D01*
X2392401Y26326304D02*
X2201925Y26278685D01*
X2201925Y26278685D02*
X1868592Y26278685D01*
X1868592Y26278685D02*
X1678116Y26326304D01*
X1678116Y26326304D02*
X1582878Y26421542D01*
X1582878Y26421542D02*
X1535259Y26516780D01*
X2535259Y27373923D02*
X1535259Y27373923D01*
X1535259Y27373923D02*
X2535259Y27945351D01*
X2535259Y27945351D02*
X1535259Y27945351D01*
X1868592Y29040590D02*
X1868592Y29421542D01*
X2535259Y29183447D02*
X1678116Y29183447D01*
X1678116Y29183447D02*
X1582878Y29231066D01*
X1582878Y29231066D02*
X1535259Y29326304D01*
X1535259Y29326304D02*
X1535259Y29421542D01*
X2535259Y29897733D02*
X2487640Y29802495D01*
X2487640Y29802495D02*
X2440020Y29754876D01*
X2440020Y29754876D02*
X2344782Y29707257D01*
X2344782Y29707257D02*
X2059068Y29707257D01*
X2059068Y29707257D02*
X1963830Y29754876D01*
X1963830Y29754876D02*
X1916211Y29802495D01*
X1916211Y29802495D02*
X1868592Y29897733D01*
X1868592Y29897733D02*
X1868592Y30040590D01*
X1868592Y30040590D02*
X1916211Y30135828D01*
X1916211Y30135828D02*
X1963830Y30183447D01*
X1963830Y30183447D02*
X2059068Y30231066D01*
X2059068Y30231066D02*
X2344782Y30231066D01*
X2344782Y30231066D02*
X2440020Y30183447D01*
X2440020Y30183447D02*
X2487640Y30135828D01*
X2487640Y30135828D02*
X2535259Y30040590D01*
X2535259Y30040590D02*
X2535259Y29897733D01*
X2535259Y30659638D02*
X1868592Y30659638D01*
X2059068Y30659638D02*
X1963830Y30707257D01*
X1963830Y30707257D02*
X1916211Y30754876D01*
X1916211Y30754876D02*
X1868592Y30850114D01*
X1868592Y30850114D02*
X1868592Y30945352D01*
X2440020Y32612019D02*
X2487640Y32564400D01*
X2487640Y32564400D02*
X2535259Y32421543D01*
X2535259Y32421543D02*
X2535259Y32326305D01*
X2535259Y32326305D02*
X2487640Y32183448D01*
X2487640Y32183448D02*
X2392401Y32088210D01*
X2392401Y32088210D02*
X2297163Y32040591D01*
X2297163Y32040591D02*
X2106687Y31992972D01*
X2106687Y31992972D02*
X1963830Y31992972D01*
X1963830Y31992972D02*
X1773354Y32040591D01*
X1773354Y32040591D02*
X1678116Y32088210D01*
X1678116Y32088210D02*
X1582878Y32183448D01*
X1582878Y32183448D02*
X1535259Y32326305D01*
X1535259Y32326305D02*
X1535259Y32421543D01*
X1535259Y32421543D02*
X1582878Y32564400D01*
X1582878Y32564400D02*
X1630497Y32612019D01*
X2535259Y33040591D02*
X1535259Y33040591D01*
X2011449Y33040591D02*
X2011449Y33612019D01*
X2535259Y33612019D02*
X1535259Y33612019D01*
X1535259Y33992972D02*
X1535259Y34612019D01*
X1535259Y34612019D02*
X1916211Y34278686D01*
X1916211Y34278686D02*
X1916211Y34421543D01*
X1916211Y34421543D02*
X1963830Y34516781D01*
X1963830Y34516781D02*
X2011449Y34564400D01*
X2011449Y34564400D02*
X2106687Y34612019D01*
X2106687Y34612019D02*
X2344782Y34612019D01*
X2344782Y34612019D02*
X2440020Y34564400D01*
X2440020Y34564400D02*
X2487640Y34516781D01*
X2487640Y34516781D02*
X2535259Y34421543D01*
X2535259Y34421543D02*
X2535259Y34135829D01*
X2535259Y34135829D02*
X2487640Y34040591D01*
X2487640Y34040591D02*
X2440020Y33992972D01*
X1630497Y34992972D02*
X1582878Y35040591D01*
X1582878Y35040591D02*
X1535259Y35135829D01*
X1535259Y35135829D02*
X1535259Y35373924D01*
X1535259Y35373924D02*
X1582878Y35469162D01*
X1582878Y35469162D02*
X1630497Y35516781D01*
X1630497Y35516781D02*
X1725735Y35564400D01*
X1725735Y35564400D02*
X1820973Y35564400D01*
X1820973Y35564400D02*
X1963830Y35516781D01*
X1963830Y35516781D02*
X2535259Y34945353D01*
X2535259Y34945353D02*
X2535259Y35564400D01*
X1535259Y35850115D02*
X2535259Y36183448D01*
X2535259Y36183448D02*
X1535259Y36516781D01*
D10*
X2539419Y41134385D02*
X1539419Y41134385D01*
X1539419Y41134385D02*
X1539419Y41372480D01*
X1539419Y41372480D02*
X1587038Y41515337D01*
X1587038Y41515337D02*
X1682276Y41610575D01*
X1682276Y41610575D02*
X1777514Y41658194D01*
X1777514Y41658194D02*
X1967990Y41705813D01*
X1967990Y41705813D02*
X2110847Y41705813D01*
X2110847Y41705813D02*
X2301323Y41658194D01*
X2301323Y41658194D02*
X2396561Y41610575D01*
X2396561Y41610575D02*
X2491800Y41515337D01*
X2491800Y41515337D02*
X2539419Y41372480D01*
X2539419Y41372480D02*
X2539419Y41134385D01*
X2491800Y42515337D02*
X2539419Y42420099D01*
X2539419Y42420099D02*
X2539419Y42229623D01*
X2539419Y42229623D02*
X2491800Y42134385D01*
X2491800Y42134385D02*
X2396561Y42086766D01*
X2396561Y42086766D02*
X2015609Y42086766D01*
X2015609Y42086766D02*
X1920371Y42134385D01*
X1920371Y42134385D02*
X1872752Y42229623D01*
X1872752Y42229623D02*
X1872752Y42420099D01*
X1872752Y42420099D02*
X1920371Y42515337D01*
X1920371Y42515337D02*
X2015609Y42562956D01*
X2015609Y42562956D02*
X2110847Y42562956D01*
X2110847Y42562956D02*
X2206085Y42086766D01*
X2491800Y42943909D02*
X2539419Y43039147D01*
X2539419Y43039147D02*
X2539419Y43229623D01*
X2539419Y43229623D02*
X2491800Y43324861D01*
X2491800Y43324861D02*
X2396561Y43372480D01*
X2396561Y43372480D02*
X2348942Y43372480D01*
X2348942Y43372480D02*
X2253704Y43324861D01*
X2253704Y43324861D02*
X2206085Y43229623D01*
X2206085Y43229623D02*
X2206085Y43086766D01*
X2206085Y43086766D02*
X2158466Y42991528D01*
X2158466Y42991528D02*
X2063228Y42943909D01*
X2063228Y42943909D02*
X2015609Y42943909D01*
X2015609Y42943909D02*
X1920371Y42991528D01*
X1920371Y42991528D02*
X1872752Y43086766D01*
X1872752Y43086766D02*
X1872752Y43229623D01*
X1872752Y43229623D02*
X1920371Y43324861D01*
X2539419Y43801052D02*
X1872752Y43801052D01*
X1539419Y43801052D02*
X1587038Y43753433D01*
X1587038Y43753433D02*
X1634657Y43801052D01*
X1634657Y43801052D02*
X1587038Y43848671D01*
X1587038Y43848671D02*
X1539419Y43801052D01*
X1539419Y43801052D02*
X1634657Y43801052D01*
X1872752Y44705813D02*
X2682276Y44705813D01*
X2682276Y44705813D02*
X2777514Y44658194D01*
X2777514Y44658194D02*
X2825133Y44610575D01*
X2825133Y44610575D02*
X2872752Y44515337D01*
X2872752Y44515337D02*
X2872752Y44372480D01*
X2872752Y44372480D02*
X2825133Y44277242D01*
X2491800Y44705813D02*
X2539419Y44610575D01*
X2539419Y44610575D02*
X2539419Y44420099D01*
X2539419Y44420099D02*
X2491800Y44324861D01*
X2491800Y44324861D02*
X2444180Y44277242D01*
X2444180Y44277242D02*
X2348942Y44229623D01*
X2348942Y44229623D02*
X2063228Y44229623D01*
X2063228Y44229623D02*
X1967990Y44277242D01*
X1967990Y44277242D02*
X1920371Y44324861D01*
X1920371Y44324861D02*
X1872752Y44420099D01*
X1872752Y44420099D02*
X1872752Y44610575D01*
X1872752Y44610575D02*
X1920371Y44705813D01*
X1872752Y45182004D02*
X2539419Y45182004D01*
X1967990Y45182004D02*
X1920371Y45229623D01*
X1920371Y45229623D02*
X1872752Y45324861D01*
X1872752Y45324861D02*
X1872752Y45467718D01*
X1872752Y45467718D02*
X1920371Y45562956D01*
X1920371Y45562956D02*
X2015609Y45610575D01*
X2015609Y45610575D02*
X2539419Y45610575D01*
X2491800Y46467718D02*
X2539419Y46372480D01*
X2539419Y46372480D02*
X2539419Y46182004D01*
X2539419Y46182004D02*
X2491800Y46086766D01*
X2491800Y46086766D02*
X2396561Y46039147D01*
X2396561Y46039147D02*
X2015609Y46039147D01*
X2015609Y46039147D02*
X1920371Y46086766D01*
X1920371Y46086766D02*
X1872752Y46182004D01*
X1872752Y46182004D02*
X1872752Y46372480D01*
X1872752Y46372480D02*
X1920371Y46467718D01*
X1920371Y46467718D02*
X2015609Y46515337D01*
X2015609Y46515337D02*
X2110847Y46515337D01*
X2110847Y46515337D02*
X2206085Y46039147D01*
X2539419Y47372480D02*
X1539419Y47372480D01*
X2491800Y47372480D02*
X2539419Y47277242D01*
X2539419Y47277242D02*
X2539419Y47086766D01*
X2539419Y47086766D02*
X2491800Y46991528D01*
X2491800Y46991528D02*
X2444180Y46943909D01*
X2444180Y46943909D02*
X2348942Y46896290D01*
X2348942Y46896290D02*
X2063228Y46896290D01*
X2063228Y46896290D02*
X1967990Y46943909D01*
X1967990Y46943909D02*
X1920371Y46991528D01*
X1920371Y46991528D02*
X1872752Y47086766D01*
X1872752Y47086766D02*
X1872752Y47277242D01*
X1872752Y47277242D02*
X1920371Y47372480D01*
X2539419Y48610576D02*
X1539419Y48610576D01*
X1920371Y48610576D02*
X1872752Y48705814D01*
X1872752Y48705814D02*
X1872752Y48896290D01*
X1872752Y48896290D02*
X1920371Y48991528D01*
X1920371Y48991528D02*
X1967990Y49039147D01*
X1967990Y49039147D02*
X2063228Y49086766D01*
X2063228Y49086766D02*
X2348942Y49086766D01*
X2348942Y49086766D02*
X2444180Y49039147D01*
X2444180Y49039147D02*
X2491800Y48991528D01*
X2491800Y48991528D02*
X2539419Y48896290D01*
X2539419Y48896290D02*
X2539419Y48705814D01*
X2539419Y48705814D02*
X2491800Y48610576D01*
X1872752Y49420100D02*
X2539419Y49658195D01*
X1872752Y49896290D02*
X2539419Y49658195D01*
X2539419Y49658195D02*
X2777514Y49562957D01*
X2777514Y49562957D02*
X2825133Y49515338D01*
X2825133Y49515338D02*
X2872752Y49420100D01*
X2491800Y50991529D02*
X2539419Y51134386D01*
X2539419Y51134386D02*
X2539419Y51372481D01*
X2539419Y51372481D02*
X2491800Y51467719D01*
X2491800Y51467719D02*
X2444180Y51515338D01*
X2444180Y51515338D02*
X2348942Y51562957D01*
X2348942Y51562957D02*
X2253704Y51562957D01*
X2253704Y51562957D02*
X2158466Y51515338D01*
X2158466Y51515338D02*
X2110847Y51467719D01*
X2110847Y51467719D02*
X2063228Y51372481D01*
X2063228Y51372481D02*
X2015609Y51182005D01*
X2015609Y51182005D02*
X1967990Y51086767D01*
X1967990Y51086767D02*
X1920371Y51039148D01*
X1920371Y51039148D02*
X1825133Y50991529D01*
X1825133Y50991529D02*
X1729895Y50991529D01*
X1729895Y50991529D02*
X1634657Y51039148D01*
X1634657Y51039148D02*
X1587038Y51086767D01*
X1587038Y51086767D02*
X1539419Y51182005D01*
X1539419Y51182005D02*
X1539419Y51420100D01*
X1539419Y51420100D02*
X1587038Y51562957D01*
X2539419Y52420100D02*
X2015609Y52420100D01*
X2015609Y52420100D02*
X1920371Y52372481D01*
X1920371Y52372481D02*
X1872752Y52277243D01*
X1872752Y52277243D02*
X1872752Y52086767D01*
X1872752Y52086767D02*
X1920371Y51991529D01*
X2491800Y52420100D02*
X2539419Y52324862D01*
X2539419Y52324862D02*
X2539419Y52086767D01*
X2539419Y52086767D02*
X2491800Y51991529D01*
X2491800Y51991529D02*
X2396561Y51943910D01*
X2396561Y51943910D02*
X2301323Y51943910D01*
X2301323Y51943910D02*
X2206085Y51991529D01*
X2206085Y51991529D02*
X2158466Y52086767D01*
X2158466Y52086767D02*
X2158466Y52324862D01*
X2158466Y52324862D02*
X2110847Y52420100D01*
X2491800Y52848672D02*
X2539419Y52943910D01*
X2539419Y52943910D02*
X2539419Y53134386D01*
X2539419Y53134386D02*
X2491800Y53229624D01*
X2491800Y53229624D02*
X2396561Y53277243D01*
X2396561Y53277243D02*
X2348942Y53277243D01*
X2348942Y53277243D02*
X2253704Y53229624D01*
X2253704Y53229624D02*
X2206085Y53134386D01*
X2206085Y53134386D02*
X2206085Y52991529D01*
X2206085Y52991529D02*
X2158466Y52896291D01*
X2158466Y52896291D02*
X2063228Y52848672D01*
X2063228Y52848672D02*
X2015609Y52848672D01*
X2015609Y52848672D02*
X1920371Y52896291D01*
X1920371Y52896291D02*
X1872752Y52991529D01*
X1872752Y52991529D02*
X1872752Y53134386D01*
X1872752Y53134386D02*
X1920371Y53229624D01*
X2539419Y54134386D02*
X2015609Y54134386D01*
X2015609Y54134386D02*
X1920371Y54086767D01*
X1920371Y54086767D02*
X1872752Y53991529D01*
X1872752Y53991529D02*
X1872752Y53801053D01*
X1872752Y53801053D02*
X1920371Y53705815D01*
X2491800Y54134386D02*
X2539419Y54039148D01*
X2539419Y54039148D02*
X2539419Y53801053D01*
X2539419Y53801053D02*
X2491800Y53705815D01*
X2491800Y53705815D02*
X2396561Y53658196D01*
X2396561Y53658196D02*
X2301323Y53658196D01*
X2301323Y53658196D02*
X2206085Y53705815D01*
X2206085Y53705815D02*
X2158466Y53801053D01*
X2158466Y53801053D02*
X2158466Y54039148D01*
X2158466Y54039148D02*
X2110847Y54134386D01*
X1872752Y54610577D02*
X2729895Y54610577D01*
X2729895Y54610577D02*
X2825133Y54562958D01*
X2825133Y54562958D02*
X2872752Y54467720D01*
X2872752Y54467720D02*
X2872752Y54420101D01*
X1539419Y54610577D02*
X1587038Y54562958D01*
X1587038Y54562958D02*
X1634657Y54610577D01*
X1634657Y54610577D02*
X1587038Y54658196D01*
X1587038Y54658196D02*
X1539419Y54610577D01*
X1539419Y54610577D02*
X1634657Y54610577D01*
X2539419Y55086767D02*
X1872752Y55086767D01*
X1539419Y55086767D02*
X1587038Y55039148D01*
X1587038Y55039148D02*
X1634657Y55086767D01*
X1634657Y55086767D02*
X1587038Y55134386D01*
X1587038Y55134386D02*
X1539419Y55086767D01*
X1539419Y55086767D02*
X1634657Y55086767D01*
X1634657Y56277243D02*
X1587038Y56324862D01*
X1587038Y56324862D02*
X1539419Y56420100D01*
X1539419Y56420100D02*
X1539419Y56658195D01*
X1539419Y56658195D02*
X1587038Y56753433D01*
X1587038Y56753433D02*
X1634657Y56801052D01*
X1634657Y56801052D02*
X1729895Y56848671D01*
X1729895Y56848671D02*
X1825133Y56848671D01*
X1825133Y56848671D02*
X1967990Y56801052D01*
X1967990Y56801052D02*
X2539419Y56229624D01*
X2539419Y56229624D02*
X2539419Y56848671D01*
X1539419Y57467719D02*
X1539419Y57562957D01*
X1539419Y57562957D02*
X1587038Y57658195D01*
X1587038Y57658195D02*
X1634657Y57705814D01*
X1634657Y57705814D02*
X1729895Y57753433D01*
X1729895Y57753433D02*
X1920371Y57801052D01*
X1920371Y57801052D02*
X2158466Y57801052D01*
X2158466Y57801052D02*
X2348942Y57753433D01*
X2348942Y57753433D02*
X2444180Y57705814D01*
X2444180Y57705814D02*
X2491800Y57658195D01*
X2491800Y57658195D02*
X2539419Y57562957D01*
X2539419Y57562957D02*
X2539419Y57467719D01*
X2539419Y57467719D02*
X2491800Y57372481D01*
X2491800Y57372481D02*
X2444180Y57324862D01*
X2444180Y57324862D02*
X2348942Y57277243D01*
X2348942Y57277243D02*
X2158466Y57229624D01*
X2158466Y57229624D02*
X1920371Y57229624D01*
X1920371Y57229624D02*
X1729895Y57277243D01*
X1729895Y57277243D02*
X1634657Y57324862D01*
X1634657Y57324862D02*
X1587038Y57372481D01*
X1587038Y57372481D02*
X1539419Y57467719D01*
X1634657Y58182005D02*
X1587038Y58229624D01*
X1587038Y58229624D02*
X1539419Y58324862D01*
X1539419Y58324862D02*
X1539419Y58562957D01*
X1539419Y58562957D02*
X1587038Y58658195D01*
X1587038Y58658195D02*
X1634657Y58705814D01*
X1634657Y58705814D02*
X1729895Y58753433D01*
X1729895Y58753433D02*
X1825133Y58753433D01*
X1825133Y58753433D02*
X1967990Y58705814D01*
X1967990Y58705814D02*
X2539419Y58134386D01*
X2539419Y58134386D02*
X2539419Y58753433D01*
X1539419Y59658195D02*
X1539419Y59182005D01*
X1539419Y59182005D02*
X2015609Y59134386D01*
X2015609Y59134386D02*
X1967990Y59182005D01*
X1967990Y59182005D02*
X1920371Y59277243D01*
X1920371Y59277243D02*
X1920371Y59515338D01*
X1920371Y59515338D02*
X1967990Y59610576D01*
X1967990Y59610576D02*
X2015609Y59658195D01*
X2015609Y59658195D02*
X2110847Y59705814D01*
X2110847Y59705814D02*
X2348942Y59705814D01*
X2348942Y59705814D02*
X2444180Y59658195D01*
X2444180Y59658195D02*
X2491800Y59610576D01*
X2491800Y59610576D02*
X2539419Y59515338D01*
X2539419Y59515338D02*
X2539419Y59277243D01*
X2539419Y59277243D02*
X2491800Y59182005D01*
X2491800Y59182005D02*
X2444180Y59134386D01*
D12*
X10755333Y51170681D02*
X10422000Y51646872D01*
X10183905Y51170681D02*
X10183905Y52170681D01*
X10183905Y52170681D02*
X10564857Y52170681D01*
X10564857Y52170681D02*
X10660095Y52123062D01*
X10660095Y52123062D02*
X10707714Y52075443D01*
X10707714Y52075443D02*
X10755333Y51980205D01*
X10755333Y51980205D02*
X10755333Y51837348D01*
X10755333Y51837348D02*
X10707714Y51742110D01*
X10707714Y51742110D02*
X10660095Y51694491D01*
X10660095Y51694491D02*
X10564857Y51646872D01*
X10564857Y51646872D02*
X10183905Y51646872D01*
X11707714Y51170681D02*
X11136286Y51170681D01*
X11422000Y51170681D02*
X11422000Y52170681D01*
X11422000Y52170681D02*
X11326762Y52027824D01*
X11326762Y52027824D02*
X11231524Y51932586D01*
X11231524Y51932586D02*
X11136286Y51884967D01*
X17787952Y49900681D02*
X17216524Y49900681D01*
X17502238Y49900681D02*
X17502238Y50900681D01*
X17502238Y50900681D02*
X17407000Y50757824D01*
X17407000Y50757824D02*
X17311762Y50662586D01*
X17311762Y50662586D02*
X17216524Y50614967D01*
X18216524Y49900681D02*
X18216524Y50900681D01*
X18311762Y50281634D02*
X18597476Y49900681D01*
X18597476Y50567348D02*
X18216524Y50186396D01*
X6488667Y23913300D02*
X6631524Y23865681D01*
X6631524Y23865681D02*
X6869619Y23865681D01*
X6869619Y23865681D02*
X6964857Y23913300D01*
X6964857Y23913300D02*
X7012476Y23960920D01*
X7012476Y23960920D02*
X7060095Y24056158D01*
X7060095Y24056158D02*
X7060095Y24151396D01*
X7060095Y24151396D02*
X7012476Y24246634D01*
X7012476Y24246634D02*
X6964857Y24294253D01*
X6964857Y24294253D02*
X6869619Y24341872D01*
X6869619Y24341872D02*
X6679143Y24389491D01*
X6679143Y24389491D02*
X6583905Y24437110D01*
X6583905Y24437110D02*
X6536286Y24484729D01*
X6536286Y24484729D02*
X6488667Y24579967D01*
X6488667Y24579967D02*
X6488667Y24675205D01*
X6488667Y24675205D02*
X6536286Y24770443D01*
X6536286Y24770443D02*
X6583905Y24818062D01*
X6583905Y24818062D02*
X6679143Y24865681D01*
X6679143Y24865681D02*
X6917238Y24865681D01*
X6917238Y24865681D02*
X7060095Y24818062D01*
X7393429Y24865681D02*
X7631524Y23865681D01*
X7631524Y23865681D02*
X7822000Y24579967D01*
X7822000Y24579967D02*
X8012476Y23865681D01*
X8012476Y23865681D02*
X8250572Y24865681D01*
X9155333Y23865681D02*
X8583905Y23865681D01*
X8869619Y23865681D02*
X8869619Y24865681D01*
X8869619Y24865681D02*
X8774381Y24722824D01*
X8774381Y24722824D02*
X8679143Y24627586D01*
X8679143Y24627586D02*
X8583905Y24579967D01*
X22820333Y34080920D02*
X22772714Y34033300D01*
X22772714Y34033300D02*
X22629857Y33985681D01*
X22629857Y33985681D02*
X22534619Y33985681D01*
X22534619Y33985681D02*
X22391762Y34033300D01*
X22391762Y34033300D02*
X22296524Y34128539D01*
X22296524Y34128539D02*
X22248905Y34223777D01*
X22248905Y34223777D02*
X22201286Y34414253D01*
X22201286Y34414253D02*
X22201286Y34557110D01*
X22201286Y34557110D02*
X22248905Y34747586D01*
X22248905Y34747586D02*
X22296524Y34842824D01*
X22296524Y34842824D02*
X22391762Y34938062D01*
X22391762Y34938062D02*
X22534619Y34985681D01*
X22534619Y34985681D02*
X22629857Y34985681D01*
X22629857Y34985681D02*
X22772714Y34938062D01*
X22772714Y34938062D02*
X22820333Y34890443D01*
X23772714Y33985681D02*
X23201286Y33985681D01*
X23487000Y33985681D02*
X23487000Y34985681D01*
X23487000Y34985681D02*
X23391762Y34842824D01*
X23391762Y34842824D02*
X23296524Y34747586D01*
X23296524Y34747586D02*
X23201286Y34699967D01*
X15668666Y56615681D02*
X15668666Y55901396D01*
X15668666Y55901396D02*
X15621047Y55758539D01*
X15621047Y55758539D02*
X15525809Y55663300D01*
X15525809Y55663300D02*
X15382952Y55615681D01*
X15382952Y55615681D02*
X15287714Y55615681D01*
X16097238Y56520443D02*
X16144857Y56568062D01*
X16144857Y56568062D02*
X16240095Y56615681D01*
X16240095Y56615681D02*
X16478190Y56615681D01*
X16478190Y56615681D02*
X16573428Y56568062D01*
X16573428Y56568062D02*
X16621047Y56520443D01*
X16621047Y56520443D02*
X16668666Y56425205D01*
X16668666Y56425205D02*
X16668666Y56329967D01*
X16668666Y56329967D02*
X16621047Y56187110D01*
X16621047Y56187110D02*
X16049619Y55615681D01*
X16049619Y55615681D02*
X16668666Y55615681D01*
X22682476Y51805681D02*
X22682476Y52805681D01*
X23025332Y52710443D02*
X23063428Y52758062D01*
X23063428Y52758062D02*
X23139618Y52805681D01*
X23139618Y52805681D02*
X23330094Y52805681D01*
X23330094Y52805681D02*
X23406285Y52758062D01*
X23406285Y52758062D02*
X23444380Y52710443D01*
X23444380Y52710443D02*
X23482475Y52615205D01*
X23482475Y52615205D02*
X23482475Y52519967D01*
X23482475Y52519967D02*
X23444380Y52377110D01*
X23444380Y52377110D02*
X22987237Y51805681D01*
X22987237Y51805681D02*
X23482475Y51805681D01*
X24282476Y51900920D02*
X24244380Y51853300D01*
X24244380Y51853300D02*
X24130095Y51805681D01*
X24130095Y51805681D02*
X24053904Y51805681D01*
X24053904Y51805681D02*
X23939618Y51853300D01*
X23939618Y51853300D02*
X23863428Y51948539D01*
X23863428Y51948539D02*
X23825333Y52043777D01*
X23825333Y52043777D02*
X23787237Y52234253D01*
X23787237Y52234253D02*
X23787237Y52377110D01*
X23787237Y52377110D02*
X23825333Y52567586D01*
X23825333Y52567586D02*
X23863428Y52662824D01*
X23863428Y52662824D02*
X23939618Y52758062D01*
X23939618Y52758062D02*
X24053904Y52805681D01*
X24053904Y52805681D02*
X24130095Y52805681D01*
X24130095Y52805681D02*
X24244380Y52758062D01*
X24244380Y52758062D02*
X24282476Y52710443D01*
X24434857Y51710443D02*
X25044380Y51710443D01*
X25615809Y51805681D02*
X25234857Y51805681D01*
X25234857Y51805681D02*
X25234857Y52805681D01*
X26339619Y51900920D02*
X26301523Y51853300D01*
X26301523Y51853300D02*
X26187238Y51805681D01*
X26187238Y51805681D02*
X26111047Y51805681D01*
X26111047Y51805681D02*
X25996761Y51853300D01*
X25996761Y51853300D02*
X25920571Y51948539D01*
X25920571Y51948539D02*
X25882476Y52043777D01*
X25882476Y52043777D02*
X25844380Y52234253D01*
X25844380Y52234253D02*
X25844380Y52377110D01*
X25844380Y52377110D02*
X25882476Y52567586D01*
X25882476Y52567586D02*
X25920571Y52662824D01*
X25920571Y52662824D02*
X25996761Y52758062D01*
X25996761Y52758062D02*
X26111047Y52805681D01*
X26111047Y52805681D02*
X26187238Y52805681D01*
X26187238Y52805681D02*
X26301523Y52758062D01*
X26301523Y52758062D02*
X26339619Y52710443D01*
X26682476Y51805681D02*
X26682476Y52805681D01*
X26682476Y52805681D02*
X26872952Y52805681D01*
X26872952Y52805681D02*
X26987238Y52758062D01*
X26987238Y52758062D02*
X27063428Y52662824D01*
X27063428Y52662824D02*
X27101523Y52567586D01*
X27101523Y52567586D02*
X27139619Y52377110D01*
X27139619Y52377110D02*
X27139619Y52234253D01*
X27139619Y52234253D02*
X27101523Y52043777D01*
X27101523Y52043777D02*
X27063428Y51948539D01*
X27063428Y51948539D02*
X26987238Y51853300D01*
X26987238Y51853300D02*
X26872952Y51805681D01*
X26872952Y51805681D02*
X26682476Y51805681D01*
X17521370Y54028062D02*
X17454703Y54075681D01*
X17454703Y54075681D02*
X17354703Y54075681D01*
X17354703Y54075681D02*
X17254703Y54028062D01*
X17254703Y54028062D02*
X17188037Y53932824D01*
X17188037Y53932824D02*
X17154703Y53837586D01*
X17154703Y53837586D02*
X17121370Y53647110D01*
X17121370Y53647110D02*
X17121370Y53504253D01*
X17121370Y53504253D02*
X17154703Y53313777D01*
X17154703Y53313777D02*
X17188037Y53218539D01*
X17188037Y53218539D02*
X17254703Y53123300D01*
X17254703Y53123300D02*
X17354703Y53075681D01*
X17354703Y53075681D02*
X17421370Y53075681D01*
X17421370Y53075681D02*
X17521370Y53123300D01*
X17521370Y53123300D02*
X17554703Y53170920D01*
X17554703Y53170920D02*
X17554703Y53504253D01*
X17554703Y53504253D02*
X17421370Y53504253D01*
X17854703Y53075681D02*
X17854703Y54075681D01*
X17854703Y54075681D02*
X18254703Y53075681D01*
X18254703Y53075681D02*
X18254703Y54075681D01*
X18588036Y53075681D02*
X18588036Y54075681D01*
X18588036Y54075681D02*
X18754703Y54075681D01*
X18754703Y54075681D02*
X18854703Y54028062D01*
X18854703Y54028062D02*
X18921370Y53932824D01*
X18921370Y53932824D02*
X18954703Y53837586D01*
X18954703Y53837586D02*
X18988036Y53647110D01*
X18988036Y53647110D02*
X18988036Y53504253D01*
X18988036Y53504253D02*
X18954703Y53313777D01*
X18954703Y53313777D02*
X18921370Y53218539D01*
X18921370Y53218539D02*
X18854703Y53123300D01*
X18854703Y53123300D02*
X18754703Y53075681D01*
X18754703Y53075681D02*
X18588036Y53075681D01*
X19681999Y53456634D02*
X20215333Y53456634D01*
X19948666Y53075681D02*
X19948666Y53837586D01*
X20482000Y54075681D02*
X20915333Y54075681D01*
X20915333Y54075681D02*
X20682000Y53694729D01*
X20682000Y53694729D02*
X20782000Y53694729D01*
X20782000Y53694729D02*
X20848666Y53647110D01*
X20848666Y53647110D02*
X20882000Y53599491D01*
X20882000Y53599491D02*
X20915333Y53504253D01*
X20915333Y53504253D02*
X20915333Y53266158D01*
X20915333Y53266158D02*
X20882000Y53170920D01*
X20882000Y53170920D02*
X20848666Y53123300D01*
X20848666Y53123300D02*
X20782000Y53075681D01*
X20782000Y53075681D02*
X20582000Y53075681D01*
X20582000Y53075681D02*
X20515333Y53123300D01*
X20515333Y53123300D02*
X20482000Y53170920D01*
X21215333Y53170920D02*
X21248667Y53123300D01*
X21248667Y53123300D02*
X21215333Y53075681D01*
X21215333Y53075681D02*
X21182000Y53123300D01*
X21182000Y53123300D02*
X21215333Y53170920D01*
X21215333Y53170920D02*
X21215333Y53075681D01*
X21482000Y54075681D02*
X21915333Y54075681D01*
X21915333Y54075681D02*
X21682000Y53694729D01*
X21682000Y53694729D02*
X21782000Y53694729D01*
X21782000Y53694729D02*
X21848666Y53647110D01*
X21848666Y53647110D02*
X21882000Y53599491D01*
X21882000Y53599491D02*
X21915333Y53504253D01*
X21915333Y53504253D02*
X21915333Y53266158D01*
X21915333Y53266158D02*
X21882000Y53170920D01*
X21882000Y53170920D02*
X21848666Y53123300D01*
X21848666Y53123300D02*
X21782000Y53075681D01*
X21782000Y53075681D02*
X21582000Y53075681D01*
X21582000Y53075681D02*
X21515333Y53123300D01*
X21515333Y53123300D02*
X21482000Y53170920D01*
X22115333Y54075681D02*
X22348667Y53075681D01*
X22348667Y53075681D02*
X22582000Y54075681D01*
X24058666Y53123300D02*
X24158666Y53075681D01*
X24158666Y53075681D02*
X24325333Y53075681D01*
X24325333Y53075681D02*
X24391999Y53123300D01*
X24391999Y53123300D02*
X24425333Y53170920D01*
X24425333Y53170920D02*
X24458666Y53266158D01*
X24458666Y53266158D02*
X24458666Y53361396D01*
X24458666Y53361396D02*
X24425333Y53456634D01*
X24425333Y53456634D02*
X24391999Y53504253D01*
X24391999Y53504253D02*
X24325333Y53551872D01*
X24325333Y53551872D02*
X24191999Y53599491D01*
X24191999Y53599491D02*
X24125333Y53647110D01*
X24125333Y53647110D02*
X24091999Y53694729D01*
X24091999Y53694729D02*
X24058666Y53789967D01*
X24058666Y53789967D02*
X24058666Y53885205D01*
X24058666Y53885205D02*
X24091999Y53980443D01*
X24091999Y53980443D02*
X24125333Y54028062D01*
X24125333Y54028062D02*
X24191999Y54075681D01*
X24191999Y54075681D02*
X24358666Y54075681D01*
X24358666Y54075681D02*
X24458666Y54028062D01*
X25158666Y53170920D02*
X25125333Y53123300D01*
X25125333Y53123300D02*
X25025333Y53075681D01*
X25025333Y53075681D02*
X24958666Y53075681D01*
X24958666Y53075681D02*
X24858666Y53123300D01*
X24858666Y53123300D02*
X24792000Y53218539D01*
X24792000Y53218539D02*
X24758666Y53313777D01*
X24758666Y53313777D02*
X24725333Y53504253D01*
X24725333Y53504253D02*
X24725333Y53647110D01*
X24725333Y53647110D02*
X24758666Y53837586D01*
X24758666Y53837586D02*
X24792000Y53932824D01*
X24792000Y53932824D02*
X24858666Y54028062D01*
X24858666Y54028062D02*
X24958666Y54075681D01*
X24958666Y54075681D02*
X25025333Y54075681D01*
X25025333Y54075681D02*
X25125333Y54028062D01*
X25125333Y54028062D02*
X25158666Y53980443D01*
X25792000Y53075681D02*
X25458666Y53075681D01*
X25458666Y53075681D02*
X25458666Y54075681D01*
X27217000Y53123300D02*
X27317000Y53075681D01*
X27317000Y53075681D02*
X27483667Y53075681D01*
X27483667Y53075681D02*
X27550333Y53123300D01*
X27550333Y53123300D02*
X27583667Y53170920D01*
X27583667Y53170920D02*
X27617000Y53266158D01*
X27617000Y53266158D02*
X27617000Y53361396D01*
X27617000Y53361396D02*
X27583667Y53456634D01*
X27583667Y53456634D02*
X27550333Y53504253D01*
X27550333Y53504253D02*
X27483667Y53551872D01*
X27483667Y53551872D02*
X27350333Y53599491D01*
X27350333Y53599491D02*
X27283667Y53647110D01*
X27283667Y53647110D02*
X27250333Y53694729D01*
X27250333Y53694729D02*
X27217000Y53789967D01*
X27217000Y53789967D02*
X27217000Y53885205D01*
X27217000Y53885205D02*
X27250333Y53980443D01*
X27250333Y53980443D02*
X27283667Y54028062D01*
X27283667Y54028062D02*
X27350333Y54075681D01*
X27350333Y54075681D02*
X27517000Y54075681D01*
X27517000Y54075681D02*
X27617000Y54028062D01*
X27917000Y53075681D02*
X27917000Y54075681D01*
X27917000Y54075681D02*
X28083667Y54075681D01*
X28083667Y54075681D02*
X28183667Y54028062D01*
X28183667Y54028062D02*
X28250334Y53932824D01*
X28250334Y53932824D02*
X28283667Y53837586D01*
X28283667Y53837586D02*
X28317000Y53647110D01*
X28317000Y53647110D02*
X28317000Y53504253D01*
X28317000Y53504253D02*
X28283667Y53313777D01*
X28283667Y53313777D02*
X28250334Y53218539D01*
X28250334Y53218539D02*
X28183667Y53123300D01*
X28183667Y53123300D02*
X28083667Y53075681D01*
X28083667Y53075681D02*
X27917000Y53075681D01*
X28583667Y53361396D02*
X28917000Y53361396D01*
X28517000Y53075681D02*
X28750334Y54075681D01*
X28750334Y54075681D02*
X28983667Y53075681D01*
X5103905Y45455681D02*
X5103905Y46455681D01*
X5103905Y46455681D02*
X5342000Y46455681D01*
X5342000Y46455681D02*
X5484857Y46408062D01*
X5484857Y46408062D02*
X5580095Y46312824D01*
X5580095Y46312824D02*
X5627714Y46217586D01*
X5627714Y46217586D02*
X5675333Y46027110D01*
X5675333Y46027110D02*
X5675333Y45884253D01*
X5675333Y45884253D02*
X5627714Y45693777D01*
X5627714Y45693777D02*
X5580095Y45598539D01*
X5580095Y45598539D02*
X5484857Y45503300D01*
X5484857Y45503300D02*
X5342000Y45455681D01*
X5342000Y45455681D02*
X5103905Y45455681D01*
X6627714Y45455681D02*
X6056286Y45455681D01*
X6342000Y45455681D02*
X6342000Y46455681D01*
X6342000Y46455681D02*
X6246762Y46312824D01*
X6246762Y46312824D02*
X6151524Y46217586D01*
X6151524Y46217586D02*
X6056286Y46169967D01*
X7239048Y51043634D02*
X8000953Y51043634D01*
X7620000Y50662681D02*
X7620000Y51424586D01*
X36893667Y23913300D02*
X37036524Y23865681D01*
X37036524Y23865681D02*
X37274619Y23865681D01*
X37274619Y23865681D02*
X37369857Y23913300D01*
X37369857Y23913300D02*
X37417476Y23960920D01*
X37417476Y23960920D02*
X37465095Y24056158D01*
X37465095Y24056158D02*
X37465095Y24151396D01*
X37465095Y24151396D02*
X37417476Y24246634D01*
X37417476Y24246634D02*
X37369857Y24294253D01*
X37369857Y24294253D02*
X37274619Y24341872D01*
X37274619Y24341872D02*
X37084143Y24389491D01*
X37084143Y24389491D02*
X36988905Y24437110D01*
X36988905Y24437110D02*
X36941286Y24484729D01*
X36941286Y24484729D02*
X36893667Y24579967D01*
X36893667Y24579967D02*
X36893667Y24675205D01*
X36893667Y24675205D02*
X36941286Y24770443D01*
X36941286Y24770443D02*
X36988905Y24818062D01*
X36988905Y24818062D02*
X37084143Y24865681D01*
X37084143Y24865681D02*
X37322238Y24865681D01*
X37322238Y24865681D02*
X37465095Y24818062D01*
X37798429Y24865681D02*
X38036524Y23865681D01*
X38036524Y23865681D02*
X38227000Y24579967D01*
X38227000Y24579967D02*
X38417476Y23865681D01*
X38417476Y23865681D02*
X38655572Y24865681D01*
X38941286Y24865681D02*
X39560333Y24865681D01*
X39560333Y24865681D02*
X39227000Y24484729D01*
X39227000Y24484729D02*
X39369857Y24484729D01*
X39369857Y24484729D02*
X39465095Y24437110D01*
X39465095Y24437110D02*
X39512714Y24389491D01*
X39512714Y24389491D02*
X39560333Y24294253D01*
X39560333Y24294253D02*
X39560333Y24056158D01*
X39560333Y24056158D02*
X39512714Y23960920D01*
X39512714Y23960920D02*
X39465095Y23913300D01*
X39465095Y23913300D02*
X39369857Y23865681D01*
X39369857Y23865681D02*
X39084143Y23865681D01*
X39084143Y23865681D02*
X38988905Y23913300D01*
X38988905Y23913300D02*
X38941286Y23960920D01*
X15093666Y65950181D02*
X15093666Y65235896D01*
X15093666Y65235896D02*
X15046047Y65093039D01*
X15046047Y65093039D02*
X14950809Y64997800D01*
X14950809Y64997800D02*
X14807952Y64950181D01*
X14807952Y64950181D02*
X14712714Y64950181D01*
X16093666Y64950181D02*
X15522238Y64950181D01*
X15807952Y64950181D02*
X15807952Y65950181D01*
X15807952Y65950181D02*
X15712714Y65807324D01*
X15712714Y65807324D02*
X15617476Y65712086D01*
X15617476Y65712086D02*
X15522238Y65664467D01*
X14450810Y63045181D02*
X14450810Y64045181D01*
X14879381Y63949943D02*
X14927000Y63997562D01*
X14927000Y63997562D02*
X15022238Y64045181D01*
X15022238Y64045181D02*
X15260333Y64045181D01*
X15260333Y64045181D02*
X15355571Y63997562D01*
X15355571Y63997562D02*
X15403190Y63949943D01*
X15403190Y63949943D02*
X15450809Y63854705D01*
X15450809Y63854705D02*
X15450809Y63759467D01*
X15450809Y63759467D02*
X15403190Y63616610D01*
X15403190Y63616610D02*
X14831762Y63045181D01*
X14831762Y63045181D02*
X15450809Y63045181D01*
X16450809Y63140420D02*
X16403190Y63092800D01*
X16403190Y63092800D02*
X16260333Y63045181D01*
X16260333Y63045181D02*
X16165095Y63045181D01*
X16165095Y63045181D02*
X16022238Y63092800D01*
X16022238Y63092800D02*
X15927000Y63188039D01*
X15927000Y63188039D02*
X15879381Y63283277D01*
X15879381Y63283277D02*
X15831762Y63473753D01*
X15831762Y63473753D02*
X15831762Y63616610D01*
X15831762Y63616610D02*
X15879381Y63807086D01*
X15879381Y63807086D02*
X15927000Y63902324D01*
X15927000Y63902324D02*
X16022238Y63997562D01*
X16022238Y63997562D02*
X16165095Y64045181D01*
X16165095Y64045181D02*
X16260333Y64045181D01*
X16260333Y64045181D02*
X16403190Y63997562D01*
X16403190Y63997562D02*
X16450809Y63949943D01*
X26958667Y59552562D02*
X26892000Y59600181D01*
X26892000Y59600181D02*
X26792000Y59600181D01*
X26792000Y59600181D02*
X26692000Y59552562D01*
X26692000Y59552562D02*
X26625334Y59457324D01*
X26625334Y59457324D02*
X26592000Y59362086D01*
X26592000Y59362086D02*
X26558667Y59171610D01*
X26558667Y59171610D02*
X26558667Y59028753D01*
X26558667Y59028753D02*
X26592000Y58838277D01*
X26592000Y58838277D02*
X26625334Y58743039D01*
X26625334Y58743039D02*
X26692000Y58647800D01*
X26692000Y58647800D02*
X26792000Y58600181D01*
X26792000Y58600181D02*
X26858667Y58600181D01*
X26858667Y58600181D02*
X26958667Y58647800D01*
X26958667Y58647800D02*
X26992000Y58695420D01*
X26992000Y58695420D02*
X26992000Y59028753D01*
X26992000Y59028753D02*
X26858667Y59028753D01*
X27292000Y58600181D02*
X27292000Y59600181D01*
X27292000Y59600181D02*
X27692000Y58600181D01*
X27692000Y58600181D02*
X27692000Y59600181D01*
X28025333Y58600181D02*
X28025333Y59600181D01*
X28025333Y59600181D02*
X28192000Y59600181D01*
X28192000Y59600181D02*
X28292000Y59552562D01*
X28292000Y59552562D02*
X28358667Y59457324D01*
X28358667Y59457324D02*
X28392000Y59362086D01*
X28392000Y59362086D02*
X28425333Y59171610D01*
X28425333Y59171610D02*
X28425333Y59028753D01*
X28425333Y59028753D02*
X28392000Y58838277D01*
X28392000Y58838277D02*
X28358667Y58743039D01*
X28358667Y58743039D02*
X28292000Y58647800D01*
X28292000Y58647800D02*
X28192000Y58600181D01*
X28192000Y58600181D02*
X28025333Y58600181D01*
X22916999Y58981134D02*
X23450333Y58981134D01*
X23183666Y58600181D02*
X23183666Y59362086D01*
X23717000Y59600181D02*
X24150333Y59600181D01*
X24150333Y59600181D02*
X23917000Y59219229D01*
X23917000Y59219229D02*
X24017000Y59219229D01*
X24017000Y59219229D02*
X24083666Y59171610D01*
X24083666Y59171610D02*
X24117000Y59123991D01*
X24117000Y59123991D02*
X24150333Y59028753D01*
X24150333Y59028753D02*
X24150333Y58790658D01*
X24150333Y58790658D02*
X24117000Y58695420D01*
X24117000Y58695420D02*
X24083666Y58647800D01*
X24083666Y58647800D02*
X24017000Y58600181D01*
X24017000Y58600181D02*
X23817000Y58600181D01*
X23817000Y58600181D02*
X23750333Y58647800D01*
X23750333Y58647800D02*
X23717000Y58695420D01*
X24450333Y58695420D02*
X24483667Y58647800D01*
X24483667Y58647800D02*
X24450333Y58600181D01*
X24450333Y58600181D02*
X24417000Y58647800D01*
X24417000Y58647800D02*
X24450333Y58695420D01*
X24450333Y58695420D02*
X24450333Y58600181D01*
X24717000Y59600181D02*
X25150333Y59600181D01*
X25150333Y59600181D02*
X24917000Y59219229D01*
X24917000Y59219229D02*
X25017000Y59219229D01*
X25017000Y59219229D02*
X25083666Y59171610D01*
X25083666Y59171610D02*
X25117000Y59123991D01*
X25117000Y59123991D02*
X25150333Y59028753D01*
X25150333Y59028753D02*
X25150333Y58790658D01*
X25150333Y58790658D02*
X25117000Y58695420D01*
X25117000Y58695420D02*
X25083666Y58647800D01*
X25083666Y58647800D02*
X25017000Y58600181D01*
X25017000Y58600181D02*
X24817000Y58600181D01*
X24817000Y58600181D02*
X24750333Y58647800D01*
X24750333Y58647800D02*
X24717000Y58695420D01*
X25350333Y59600181D02*
X25583667Y58600181D01*
X25583667Y58600181D02*
X25817000Y59600181D01*
X20308666Y58647800D02*
X20408666Y58600181D01*
X20408666Y58600181D02*
X20575333Y58600181D01*
X20575333Y58600181D02*
X20641999Y58647800D01*
X20641999Y58647800D02*
X20675333Y58695420D01*
X20675333Y58695420D02*
X20708666Y58790658D01*
X20708666Y58790658D02*
X20708666Y58885896D01*
X20708666Y58885896D02*
X20675333Y58981134D01*
X20675333Y58981134D02*
X20641999Y59028753D01*
X20641999Y59028753D02*
X20575333Y59076372D01*
X20575333Y59076372D02*
X20441999Y59123991D01*
X20441999Y59123991D02*
X20375333Y59171610D01*
X20375333Y59171610D02*
X20341999Y59219229D01*
X20341999Y59219229D02*
X20308666Y59314467D01*
X20308666Y59314467D02*
X20308666Y59409705D01*
X20308666Y59409705D02*
X20341999Y59504943D01*
X20341999Y59504943D02*
X20375333Y59552562D01*
X20375333Y59552562D02*
X20441999Y59600181D01*
X20441999Y59600181D02*
X20608666Y59600181D01*
X20608666Y59600181D02*
X20708666Y59552562D01*
X21408666Y58695420D02*
X21375333Y58647800D01*
X21375333Y58647800D02*
X21275333Y58600181D01*
X21275333Y58600181D02*
X21208666Y58600181D01*
X21208666Y58600181D02*
X21108666Y58647800D01*
X21108666Y58647800D02*
X21042000Y58743039D01*
X21042000Y58743039D02*
X21008666Y58838277D01*
X21008666Y58838277D02*
X20975333Y59028753D01*
X20975333Y59028753D02*
X20975333Y59171610D01*
X20975333Y59171610D02*
X21008666Y59362086D01*
X21008666Y59362086D02*
X21042000Y59457324D01*
X21042000Y59457324D02*
X21108666Y59552562D01*
X21108666Y59552562D02*
X21208666Y59600181D01*
X21208666Y59600181D02*
X21275333Y59600181D01*
X21275333Y59600181D02*
X21375333Y59552562D01*
X21375333Y59552562D02*
X21408666Y59504943D01*
X22042000Y58600181D02*
X21708666Y58600181D01*
X21708666Y58600181D02*
X21708666Y59600181D01*
X17752000Y58647800D02*
X17852000Y58600181D01*
X17852000Y58600181D02*
X18018667Y58600181D01*
X18018667Y58600181D02*
X18085333Y58647800D01*
X18085333Y58647800D02*
X18118667Y58695420D01*
X18118667Y58695420D02*
X18152000Y58790658D01*
X18152000Y58790658D02*
X18152000Y58885896D01*
X18152000Y58885896D02*
X18118667Y58981134D01*
X18118667Y58981134D02*
X18085333Y59028753D01*
X18085333Y59028753D02*
X18018667Y59076372D01*
X18018667Y59076372D02*
X17885333Y59123991D01*
X17885333Y59123991D02*
X17818667Y59171610D01*
X17818667Y59171610D02*
X17785333Y59219229D01*
X17785333Y59219229D02*
X17752000Y59314467D01*
X17752000Y59314467D02*
X17752000Y59409705D01*
X17752000Y59409705D02*
X17785333Y59504943D01*
X17785333Y59504943D02*
X17818667Y59552562D01*
X17818667Y59552562D02*
X17885333Y59600181D01*
X17885333Y59600181D02*
X18052000Y59600181D01*
X18052000Y59600181D02*
X18152000Y59552562D01*
X18452000Y58600181D02*
X18452000Y59600181D01*
X18452000Y59600181D02*
X18618667Y59600181D01*
X18618667Y59600181D02*
X18718667Y59552562D01*
X18718667Y59552562D02*
X18785334Y59457324D01*
X18785334Y59457324D02*
X18818667Y59362086D01*
X18818667Y59362086D02*
X18852000Y59171610D01*
X18852000Y59171610D02*
X18852000Y59028753D01*
X18852000Y59028753D02*
X18818667Y58838277D01*
X18818667Y58838277D02*
X18785334Y58743039D01*
X18785334Y58743039D02*
X18718667Y58647800D01*
X18718667Y58647800D02*
X18618667Y58600181D01*
X18618667Y58600181D02*
X18452000Y58600181D01*
X19118667Y58885896D02*
X19452000Y58885896D01*
X19052000Y58600181D02*
X19285334Y59600181D01*
X19285334Y59600181D02*
X19518667Y58600181D01*
X17232333Y39613681D02*
X16899000Y40089872D01*
X16660905Y39613681D02*
X16660905Y40613681D01*
X16660905Y40613681D02*
X17041857Y40613681D01*
X17041857Y40613681D02*
X17137095Y40566062D01*
X17137095Y40566062D02*
X17184714Y40518443D01*
X17184714Y40518443D02*
X17232333Y40423205D01*
X17232333Y40423205D02*
X17232333Y40280348D01*
X17232333Y40280348D02*
X17184714Y40185110D01*
X17184714Y40185110D02*
X17137095Y40137491D01*
X17137095Y40137491D02*
X17041857Y40089872D01*
X17041857Y40089872D02*
X16660905Y40089872D01*
X18089476Y40613681D02*
X17899000Y40613681D01*
X17899000Y40613681D02*
X17803762Y40566062D01*
X17803762Y40566062D02*
X17756143Y40518443D01*
X17756143Y40518443D02*
X17660905Y40375586D01*
X17660905Y40375586D02*
X17613286Y40185110D01*
X17613286Y40185110D02*
X17613286Y39804158D01*
X17613286Y39804158D02*
X17660905Y39708920D01*
X17660905Y39708920D02*
X17708524Y39661300D01*
X17708524Y39661300D02*
X17803762Y39613681D01*
X17803762Y39613681D02*
X17994238Y39613681D01*
X17994238Y39613681D02*
X18089476Y39661300D01*
X18089476Y39661300D02*
X18137095Y39708920D01*
X18137095Y39708920D02*
X18184714Y39804158D01*
X18184714Y39804158D02*
X18184714Y40042253D01*
X18184714Y40042253D02*
X18137095Y40137491D01*
X18137095Y40137491D02*
X18089476Y40185110D01*
X18089476Y40185110D02*
X17994238Y40232729D01*
X17994238Y40232729D02*
X17803762Y40232729D01*
X17803762Y40232729D02*
X17708524Y40185110D01*
X17708524Y40185110D02*
X17660905Y40137491D01*
X17660905Y40137491D02*
X17613286Y40042253D01*
X19600152Y33718596D02*
X20266819Y33718596D01*
X19219200Y33480501D02*
X19933485Y33242406D01*
X19933485Y33242406D02*
X19933485Y33861453D01*
X19266819Y34147168D02*
X19266819Y34813834D01*
X19266819Y34813834D02*
X20266819Y34385263D01*
X19266819Y35385263D02*
X19266819Y35480501D01*
X19266819Y35480501D02*
X19314438Y35575739D01*
X19314438Y35575739D02*
X19362057Y35623358D01*
X19362057Y35623358D02*
X19457295Y35670977D01*
X19457295Y35670977D02*
X19647771Y35718596D01*
X19647771Y35718596D02*
X19885866Y35718596D01*
X19885866Y35718596D02*
X20076342Y35670977D01*
X20076342Y35670977D02*
X20171580Y35623358D01*
X20171580Y35623358D02*
X20219200Y35575739D01*
X20219200Y35575739D02*
X20266819Y35480501D01*
X20266819Y35480501D02*
X20266819Y35385263D01*
X20266819Y35385263D02*
X20219200Y35290025D01*
X20219200Y35290025D02*
X20171580Y35242406D01*
X20171580Y35242406D02*
X20076342Y35194787D01*
X20076342Y35194787D02*
X19885866Y35147168D01*
X19885866Y35147168D02*
X19647771Y35147168D01*
X19647771Y35147168D02*
X19457295Y35194787D01*
X19457295Y35194787D02*
X19362057Y35242406D01*
X19362057Y35242406D02*
X19314438Y35290025D01*
X19314438Y35290025D02*
X19266819Y35385263D01*
X10755333Y42915681D02*
X10422000Y43391872D01*
X10183905Y42915681D02*
X10183905Y43915681D01*
X10183905Y43915681D02*
X10564857Y43915681D01*
X10564857Y43915681D02*
X10660095Y43868062D01*
X10660095Y43868062D02*
X10707714Y43820443D01*
X10707714Y43820443D02*
X10755333Y43725205D01*
X10755333Y43725205D02*
X10755333Y43582348D01*
X10755333Y43582348D02*
X10707714Y43487110D01*
X10707714Y43487110D02*
X10660095Y43439491D01*
X10660095Y43439491D02*
X10564857Y43391872D01*
X10564857Y43391872D02*
X10183905Y43391872D01*
X11136286Y43820443D02*
X11183905Y43868062D01*
X11183905Y43868062D02*
X11279143Y43915681D01*
X11279143Y43915681D02*
X11517238Y43915681D01*
X11517238Y43915681D02*
X11612476Y43868062D01*
X11612476Y43868062D02*
X11660095Y43820443D01*
X11660095Y43820443D02*
X11707714Y43725205D01*
X11707714Y43725205D02*
X11707714Y43629967D01*
X11707714Y43629967D02*
X11660095Y43487110D01*
X11660095Y43487110D02*
X11088667Y42915681D01*
X11088667Y42915681D02*
X11707714Y42915681D01*
X17787952Y42280681D02*
X17216524Y42280681D01*
X17502238Y42280681D02*
X17502238Y43280681D01*
X17502238Y43280681D02*
X17407000Y43137824D01*
X17407000Y43137824D02*
X17311762Y43042586D01*
X17311762Y43042586D02*
X17216524Y42994967D01*
X18216524Y42280681D02*
X18216524Y43280681D01*
X18311762Y42661634D02*
X18597476Y42280681D01*
X18597476Y42947348D02*
X18216524Y42566396D01*
X6397666Y32485681D02*
X6397666Y31771396D01*
X6397666Y31771396D02*
X6350047Y31628539D01*
X6350047Y31628539D02*
X6254809Y31533300D01*
X6254809Y31533300D02*
X6111952Y31485681D01*
X6111952Y31485681D02*
X6016714Y31485681D01*
X7016714Y32057110D02*
X6921476Y32104729D01*
X6921476Y32104729D02*
X6873857Y32152348D01*
X6873857Y32152348D02*
X6826238Y32247586D01*
X6826238Y32247586D02*
X6826238Y32295205D01*
X6826238Y32295205D02*
X6873857Y32390443D01*
X6873857Y32390443D02*
X6921476Y32438062D01*
X6921476Y32438062D02*
X7016714Y32485681D01*
X7016714Y32485681D02*
X7207190Y32485681D01*
X7207190Y32485681D02*
X7302428Y32438062D01*
X7302428Y32438062D02*
X7350047Y32390443D01*
X7350047Y32390443D02*
X7397666Y32295205D01*
X7397666Y32295205D02*
X7397666Y32247586D01*
X7397666Y32247586D02*
X7350047Y32152348D01*
X7350047Y32152348D02*
X7302428Y32104729D01*
X7302428Y32104729D02*
X7207190Y32057110D01*
X7207190Y32057110D02*
X7016714Y32057110D01*
X7016714Y32057110D02*
X6921476Y32009491D01*
X6921476Y32009491D02*
X6873857Y31961872D01*
X6873857Y31961872D02*
X6826238Y31866634D01*
X6826238Y31866634D02*
X6826238Y31676158D01*
X6826238Y31676158D02*
X6873857Y31580920D01*
X6873857Y31580920D02*
X6921476Y31533300D01*
X6921476Y31533300D02*
X7016714Y31485681D01*
X7016714Y31485681D02*
X7207190Y31485681D01*
X7207190Y31485681D02*
X7302428Y31533300D01*
X7302428Y31533300D02*
X7350047Y31580920D01*
X7350047Y31580920D02*
X7397666Y31676158D01*
X7397666Y31676158D02*
X7397666Y31866634D01*
X7397666Y31866634D02*
X7350047Y31961872D01*
X7350047Y31961872D02*
X7302428Y32009491D01*
X7302428Y32009491D02*
X7207190Y32057110D01*
X4165571Y23992681D02*
X3708428Y23992681D01*
X3937000Y23992681D02*
X3937000Y24992681D01*
X3937000Y24992681D02*
X3860809Y24849824D01*
X3860809Y24849824D02*
X3784619Y24754586D01*
X3784619Y24754586D02*
X3708428Y24706967D01*
X17589476Y24992681D02*
X17208524Y24992681D01*
X17208524Y24992681D02*
X17170428Y24516491D01*
X17170428Y24516491D02*
X17208524Y24564110D01*
X17208524Y24564110D02*
X17284714Y24611729D01*
X17284714Y24611729D02*
X17475190Y24611729D01*
X17475190Y24611729D02*
X17551381Y24564110D01*
X17551381Y24564110D02*
X17589476Y24516491D01*
X17589476Y24516491D02*
X17627571Y24421253D01*
X17627571Y24421253D02*
X17627571Y24183158D01*
X17627571Y24183158D02*
X17589476Y24087920D01*
X17589476Y24087920D02*
X17551381Y24040300D01*
X17551381Y24040300D02*
X17475190Y23992681D01*
X17475190Y23992681D02*
X17284714Y23992681D01*
X17284714Y23992681D02*
X17208524Y24040300D01*
X17208524Y24040300D02*
X17170428Y24087920D01*
X17551381Y31596681D02*
X17399000Y31596681D01*
X17399000Y31596681D02*
X17322809Y31549062D01*
X17322809Y31549062D02*
X17284714Y31501443D01*
X17284714Y31501443D02*
X17208524Y31358586D01*
X17208524Y31358586D02*
X17170428Y31168110D01*
X17170428Y31168110D02*
X17170428Y30787158D01*
X17170428Y30787158D02*
X17208524Y30691920D01*
X17208524Y30691920D02*
X17246619Y30644300D01*
X17246619Y30644300D02*
X17322809Y30596681D01*
X17322809Y30596681D02*
X17475190Y30596681D01*
X17475190Y30596681D02*
X17551381Y30644300D01*
X17551381Y30644300D02*
X17589476Y30691920D01*
X17589476Y30691920D02*
X17627571Y30787158D01*
X17627571Y30787158D02*
X17627571Y31025253D01*
X17627571Y31025253D02*
X17589476Y31120491D01*
X17589476Y31120491D02*
X17551381Y31168110D01*
X17551381Y31168110D02*
X17475190Y31215729D01*
X17475190Y31215729D02*
X17322809Y31215729D01*
X17322809Y31215729D02*
X17246619Y31168110D01*
X17246619Y31168110D02*
X17208524Y31120491D01*
X17208524Y31120491D02*
X17170428Y31025253D01*
X3784618Y31358681D02*
X3327475Y31358681D01*
X3556047Y31358681D02*
X3556047Y32358681D01*
X3556047Y32358681D02*
X3479856Y32215824D01*
X3479856Y32215824D02*
X3403666Y32120586D01*
X3403666Y32120586D02*
X3327475Y32072967D01*
X4279857Y32358681D02*
X4356047Y32358681D01*
X4356047Y32358681D02*
X4432238Y32311062D01*
X4432238Y32311062D02*
X4470333Y32263443D01*
X4470333Y32263443D02*
X4508428Y32168205D01*
X4508428Y32168205D02*
X4546523Y31977729D01*
X4546523Y31977729D02*
X4546523Y31739634D01*
X4546523Y31739634D02*
X4508428Y31549158D01*
X4508428Y31549158D02*
X4470333Y31453920D01*
X4470333Y31453920D02*
X4432238Y31406300D01*
X4432238Y31406300D02*
X4356047Y31358681D01*
X4356047Y31358681D02*
X4279857Y31358681D01*
X4279857Y31358681D02*
X4203666Y31406300D01*
X4203666Y31406300D02*
X4165571Y31453920D01*
X4165571Y31453920D02*
X4127476Y31549158D01*
X4127476Y31549158D02*
X4089380Y31739634D01*
X4089380Y31739634D02*
X4089380Y31977729D01*
X4089380Y31977729D02*
X4127476Y32168205D01*
X4127476Y32168205D02*
X4165571Y32263443D01*
X4165571Y32263443D02*
X4203666Y32311062D01*
X4203666Y32311062D02*
X4279857Y32358681D01*
X33448666Y48360681D02*
X33448666Y47646396D01*
X33448666Y47646396D02*
X33401047Y47503539D01*
X33401047Y47503539D02*
X33305809Y47408300D01*
X33305809Y47408300D02*
X33162952Y47360681D01*
X33162952Y47360681D02*
X33067714Y47360681D01*
X34353428Y48360681D02*
X34162952Y48360681D01*
X34162952Y48360681D02*
X34067714Y48313062D01*
X34067714Y48313062D02*
X34020095Y48265443D01*
X34020095Y48265443D02*
X33924857Y48122586D01*
X33924857Y48122586D02*
X33877238Y47932110D01*
X33877238Y47932110D02*
X33877238Y47551158D01*
X33877238Y47551158D02*
X33924857Y47455920D01*
X33924857Y47455920D02*
X33972476Y47408300D01*
X33972476Y47408300D02*
X34067714Y47360681D01*
X34067714Y47360681D02*
X34258190Y47360681D01*
X34258190Y47360681D02*
X34353428Y47408300D01*
X34353428Y47408300D02*
X34401047Y47455920D01*
X34401047Y47455920D02*
X34448666Y47551158D01*
X34448666Y47551158D02*
X34448666Y47789253D01*
X34448666Y47789253D02*
X34401047Y47884491D01*
X34401047Y47884491D02*
X34353428Y47932110D01*
X34353428Y47932110D02*
X34258190Y47979729D01*
X34258190Y47979729D02*
X34067714Y47979729D01*
X34067714Y47979729D02*
X33972476Y47932110D01*
X33972476Y47932110D02*
X33924857Y47884491D01*
X33924857Y47884491D02*
X33877238Y47789253D01*
X31497000Y46614491D02*
X31597000Y46566872D01*
X31597000Y46566872D02*
X31630333Y46519253D01*
X31630333Y46519253D02*
X31663666Y46424015D01*
X31663666Y46424015D02*
X31663666Y46281158D01*
X31663666Y46281158D02*
X31630333Y46185920D01*
X31630333Y46185920D02*
X31597000Y46138300D01*
X31597000Y46138300D02*
X31530333Y46090681D01*
X31530333Y46090681D02*
X31263666Y46090681D01*
X31263666Y46090681D02*
X31263666Y47090681D01*
X31263666Y47090681D02*
X31497000Y47090681D01*
X31497000Y47090681D02*
X31563666Y47043062D01*
X31563666Y47043062D02*
X31597000Y46995443D01*
X31597000Y46995443D02*
X31630333Y46900205D01*
X31630333Y46900205D02*
X31630333Y46804967D01*
X31630333Y46804967D02*
X31597000Y46709729D01*
X31597000Y46709729D02*
X31563666Y46662110D01*
X31563666Y46662110D02*
X31497000Y46614491D01*
X31497000Y46614491D02*
X31263666Y46614491D01*
X31963666Y47090681D02*
X31963666Y46281158D01*
X31963666Y46281158D02*
X31997000Y46185920D01*
X31997000Y46185920D02*
X32030333Y46138300D01*
X32030333Y46138300D02*
X32097000Y46090681D01*
X32097000Y46090681D02*
X32230333Y46090681D01*
X32230333Y46090681D02*
X32297000Y46138300D01*
X32297000Y46138300D02*
X32330333Y46185920D01*
X32330333Y46185920D02*
X32363666Y46281158D01*
X32363666Y46281158D02*
X32363666Y47090681D01*
X32630333Y47090681D02*
X33096999Y47090681D01*
X33096999Y47090681D02*
X32630333Y46090681D01*
X32630333Y46090681D02*
X33096999Y46090681D01*
X33297000Y47090681D02*
X33763666Y47090681D01*
X33763666Y47090681D02*
X33297000Y46090681D01*
X33297000Y46090681D02*
X33763666Y46090681D01*
X34030333Y46614491D02*
X34263667Y46614491D01*
X34363667Y46090681D02*
X34030333Y46090681D01*
X34030333Y46090681D02*
X34030333Y47090681D01*
X34030333Y47090681D02*
X34363667Y47090681D01*
X35063666Y46090681D02*
X34830333Y46566872D01*
X34663666Y46090681D02*
X34663666Y47090681D01*
X34663666Y47090681D02*
X34930333Y47090681D01*
X34930333Y47090681D02*
X34997000Y47043062D01*
X34997000Y47043062D02*
X35030333Y46995443D01*
X35030333Y46995443D02*
X35063666Y46900205D01*
X35063666Y46900205D02*
X35063666Y46757348D01*
X35063666Y46757348D02*
X35030333Y46662110D01*
X35030333Y46662110D02*
X34997000Y46614491D01*
X34997000Y46614491D02*
X34930333Y46566872D01*
X34930333Y46566872D02*
X34663666Y46566872D01*
X10755333Y46725681D02*
X10422000Y47201872D01*
X10183905Y46725681D02*
X10183905Y47725681D01*
X10183905Y47725681D02*
X10564857Y47725681D01*
X10564857Y47725681D02*
X10660095Y47678062D01*
X10660095Y47678062D02*
X10707714Y47630443D01*
X10707714Y47630443D02*
X10755333Y47535205D01*
X10755333Y47535205D02*
X10755333Y47392348D01*
X10755333Y47392348D02*
X10707714Y47297110D01*
X10707714Y47297110D02*
X10660095Y47249491D01*
X10660095Y47249491D02*
X10564857Y47201872D01*
X10564857Y47201872D02*
X10183905Y47201872D01*
X11088667Y47725681D02*
X11707714Y47725681D01*
X11707714Y47725681D02*
X11374381Y47344729D01*
X11374381Y47344729D02*
X11517238Y47344729D01*
X11517238Y47344729D02*
X11612476Y47297110D01*
X11612476Y47297110D02*
X11660095Y47249491D01*
X11660095Y47249491D02*
X11707714Y47154253D01*
X11707714Y47154253D02*
X11707714Y46916158D01*
X11707714Y46916158D02*
X11660095Y46820920D01*
X11660095Y46820920D02*
X11612476Y46773300D01*
X11612476Y46773300D02*
X11517238Y46725681D01*
X11517238Y46725681D02*
X11231524Y46725681D01*
X11231524Y46725681D02*
X11136286Y46773300D01*
X11136286Y46773300D02*
X11088667Y46820920D01*
X17787952Y46090681D02*
X17216524Y46090681D01*
X17502238Y46090681D02*
X17502238Y47090681D01*
X17502238Y47090681D02*
X17407000Y46947824D01*
X17407000Y46947824D02*
X17311762Y46852586D01*
X17311762Y46852586D02*
X17216524Y46804967D01*
X18216524Y46090681D02*
X18216524Y47090681D01*
X18311762Y46471634D02*
X18597476Y46090681D01*
X18597476Y46757348D02*
X18216524Y46376396D01*
X4405333Y10530681D02*
X4072000Y11006872D01*
X3833905Y10530681D02*
X3833905Y11530681D01*
X3833905Y11530681D02*
X4214857Y11530681D01*
X4214857Y11530681D02*
X4310095Y11483062D01*
X4310095Y11483062D02*
X4357714Y11435443D01*
X4357714Y11435443D02*
X4405333Y11340205D01*
X4405333Y11340205D02*
X4405333Y11197348D01*
X4405333Y11197348D02*
X4357714Y11102110D01*
X4357714Y11102110D02*
X4310095Y11054491D01*
X4310095Y11054491D02*
X4214857Y11006872D01*
X4214857Y11006872D02*
X3833905Y11006872D01*
X5262476Y11197348D02*
X5262476Y10530681D01*
X5024381Y11578300D02*
X4786286Y10864015D01*
X4786286Y10864015D02*
X5405333Y10864015D01*
X9056761Y13070681D02*
X8485333Y13070681D01*
X8771047Y13070681D02*
X8771047Y14070681D01*
X8771047Y14070681D02*
X8675809Y13927824D01*
X8675809Y13927824D02*
X8580571Y13832586D01*
X8580571Y13832586D02*
X8485333Y13784967D01*
X9675809Y14070681D02*
X9771047Y14070681D01*
X9771047Y14070681D02*
X9866285Y14023062D01*
X9866285Y14023062D02*
X9913904Y13975443D01*
X9913904Y13975443D02*
X9961523Y13880205D01*
X9961523Y13880205D02*
X10009142Y13689729D01*
X10009142Y13689729D02*
X10009142Y13451634D01*
X10009142Y13451634D02*
X9961523Y13261158D01*
X9961523Y13261158D02*
X9913904Y13165920D01*
X9913904Y13165920D02*
X9866285Y13118300D01*
X9866285Y13118300D02*
X9771047Y13070681D01*
X9771047Y13070681D02*
X9675809Y13070681D01*
X9675809Y13070681D02*
X9580571Y13118300D01*
X9580571Y13118300D02*
X9532952Y13165920D01*
X9532952Y13165920D02*
X9485333Y13261158D01*
X9485333Y13261158D02*
X9437714Y13451634D01*
X9437714Y13451634D02*
X9437714Y13689729D01*
X9437714Y13689729D02*
X9485333Y13880205D01*
X9485333Y13880205D02*
X9532952Y13975443D01*
X9532952Y13975443D02*
X9580571Y14023062D01*
X9580571Y14023062D02*
X9675809Y14070681D01*
X10437714Y13070681D02*
X10437714Y14070681D01*
X10532952Y13451634D02*
X10818666Y13070681D01*
X10818666Y13737348D02*
X10437714Y13356396D01*
X32686666Y28040681D02*
X32686666Y27326396D01*
X32686666Y27326396D02*
X32639047Y27183539D01*
X32639047Y27183539D02*
X32543809Y27088300D01*
X32543809Y27088300D02*
X32400952Y27040681D01*
X32400952Y27040681D02*
X32305714Y27040681D01*
X33639047Y28040681D02*
X33162857Y28040681D01*
X33162857Y28040681D02*
X33115238Y27564491D01*
X33115238Y27564491D02*
X33162857Y27612110D01*
X33162857Y27612110D02*
X33258095Y27659729D01*
X33258095Y27659729D02*
X33496190Y27659729D01*
X33496190Y27659729D02*
X33591428Y27612110D01*
X33591428Y27612110D02*
X33639047Y27564491D01*
X33639047Y27564491D02*
X33686666Y27469253D01*
X33686666Y27469253D02*
X33686666Y27231158D01*
X33686666Y27231158D02*
X33639047Y27135920D01*
X33639047Y27135920D02*
X33591428Y27088300D01*
X33591428Y27088300D02*
X33496190Y27040681D01*
X33496190Y27040681D02*
X33258095Y27040681D01*
X33258095Y27040681D02*
X33162857Y27088300D01*
X33162857Y27088300D02*
X33115238Y27135920D01*
X32017095Y26643681D02*
X32207571Y25643681D01*
X32207571Y25643681D02*
X32359952Y26357967D01*
X32359952Y26357967D02*
X32512333Y25643681D01*
X32512333Y25643681D02*
X32702810Y26643681D01*
X33464715Y25738920D02*
X33426619Y25691300D01*
X33426619Y25691300D02*
X33312334Y25643681D01*
X33312334Y25643681D02*
X33236143Y25643681D01*
X33236143Y25643681D02*
X33121857Y25691300D01*
X33121857Y25691300D02*
X33045667Y25786539D01*
X33045667Y25786539D02*
X33007572Y25881777D01*
X33007572Y25881777D02*
X32969476Y26072253D01*
X32969476Y26072253D02*
X32969476Y26215110D01*
X32969476Y26215110D02*
X33007572Y26405586D01*
X33007572Y26405586D02*
X33045667Y26500824D01*
X33045667Y26500824D02*
X33121857Y26596062D01*
X33121857Y26596062D02*
X33236143Y26643681D01*
X33236143Y26643681D02*
X33312334Y26643681D01*
X33312334Y26643681D02*
X33426619Y26596062D01*
X33426619Y26596062D02*
X33464715Y26548443D01*
X33807572Y25643681D02*
X33807572Y26643681D01*
X33807572Y26167491D02*
X34264715Y26167491D01*
X34264715Y25643681D02*
X34264715Y26643681D01*
X34455191Y25548443D02*
X35064714Y25548443D01*
X35636143Y25643681D02*
X35255191Y25643681D01*
X35255191Y25643681D02*
X35255191Y26643681D01*
X35902810Y25643681D02*
X35902810Y26643681D01*
X36283762Y25643681D02*
X36283762Y26643681D01*
X36283762Y26643681D02*
X36740905Y25643681D01*
X36740905Y25643681D02*
X36740905Y26643681D01*
X37121857Y25643681D02*
X37121857Y26643681D01*
X37579000Y25643681D02*
X37236142Y26215110D01*
X37579000Y26643681D02*
X37121857Y26072253D01*
X37921857Y26167491D02*
X38188523Y26167491D01*
X38302809Y25643681D02*
X37921857Y25643681D01*
X37921857Y25643681D02*
X37921857Y26643681D01*
X37921857Y26643681D02*
X38302809Y26643681D01*
X29473667Y27723300D02*
X29573667Y27675681D01*
X29573667Y27675681D02*
X29740334Y27675681D01*
X29740334Y27675681D02*
X29807000Y27723300D01*
X29807000Y27723300D02*
X29840334Y27770920D01*
X29840334Y27770920D02*
X29873667Y27866158D01*
X29873667Y27866158D02*
X29873667Y27961396D01*
X29873667Y27961396D02*
X29840334Y28056634D01*
X29840334Y28056634D02*
X29807000Y28104253D01*
X29807000Y28104253D02*
X29740334Y28151872D01*
X29740334Y28151872D02*
X29607000Y28199491D01*
X29607000Y28199491D02*
X29540334Y28247110D01*
X29540334Y28247110D02*
X29507000Y28294729D01*
X29507000Y28294729D02*
X29473667Y28389967D01*
X29473667Y28389967D02*
X29473667Y28485205D01*
X29473667Y28485205D02*
X29507000Y28580443D01*
X29507000Y28580443D02*
X29540334Y28628062D01*
X29540334Y28628062D02*
X29607000Y28675681D01*
X29607000Y28675681D02*
X29773667Y28675681D01*
X29773667Y28675681D02*
X29873667Y28628062D01*
X30107001Y28675681D02*
X30273667Y27675681D01*
X30273667Y27675681D02*
X30407001Y28389967D01*
X30407001Y28389967D02*
X30540334Y27675681D01*
X30540334Y27675681D02*
X30707001Y28675681D01*
X30973667Y27675681D02*
X30973667Y28675681D01*
X31440334Y28675681D02*
X31573667Y28675681D01*
X31573667Y28675681D02*
X31640334Y28628062D01*
X31640334Y28628062D02*
X31707000Y28532824D01*
X31707000Y28532824D02*
X31740334Y28342348D01*
X31740334Y28342348D02*
X31740334Y28009015D01*
X31740334Y28009015D02*
X31707000Y27818539D01*
X31707000Y27818539D02*
X31640334Y27723300D01*
X31640334Y27723300D02*
X31573667Y27675681D01*
X31573667Y27675681D02*
X31440334Y27675681D01*
X31440334Y27675681D02*
X31373667Y27723300D01*
X31373667Y27723300D02*
X31307000Y27818539D01*
X31307000Y27818539D02*
X31273667Y28009015D01*
X31273667Y28009015D02*
X31273667Y28342348D01*
X31273667Y28342348D02*
X31307000Y28532824D01*
X31307000Y28532824D02*
X31373667Y28628062D01*
X31373667Y28628062D02*
X31440334Y28675681D01*
X26898667Y28628062D02*
X26832000Y28675681D01*
X26832000Y28675681D02*
X26732000Y28675681D01*
X26732000Y28675681D02*
X26632000Y28628062D01*
X26632000Y28628062D02*
X26565334Y28532824D01*
X26565334Y28532824D02*
X26532000Y28437586D01*
X26532000Y28437586D02*
X26498667Y28247110D01*
X26498667Y28247110D02*
X26498667Y28104253D01*
X26498667Y28104253D02*
X26532000Y27913777D01*
X26532000Y27913777D02*
X26565334Y27818539D01*
X26565334Y27818539D02*
X26632000Y27723300D01*
X26632000Y27723300D02*
X26732000Y27675681D01*
X26732000Y27675681D02*
X26798667Y27675681D01*
X26798667Y27675681D02*
X26898667Y27723300D01*
X26898667Y27723300D02*
X26932000Y27770920D01*
X26932000Y27770920D02*
X26932000Y28104253D01*
X26932000Y28104253D02*
X26798667Y28104253D01*
X27232000Y27675681D02*
X27232000Y28675681D01*
X27232000Y28675681D02*
X27632000Y27675681D01*
X27632000Y27675681D02*
X27632000Y28675681D01*
X27965333Y27675681D02*
X27965333Y28675681D01*
X27965333Y28675681D02*
X28132000Y28675681D01*
X28132000Y28675681D02*
X28232000Y28628062D01*
X28232000Y28628062D02*
X28298667Y28532824D01*
X28298667Y28532824D02*
X28332000Y28437586D01*
X28332000Y28437586D02*
X28365333Y28247110D01*
X28365333Y28247110D02*
X28365333Y28104253D01*
X28365333Y28104253D02*
X28332000Y27913777D01*
X28332000Y27913777D02*
X28298667Y27818539D01*
X28298667Y27818539D02*
X28232000Y27723300D01*
X28232000Y27723300D02*
X28132000Y27675681D01*
X28132000Y27675681D02*
X27965333Y27675681D01*
X22856999Y28056634D02*
X23390333Y28056634D01*
X23123666Y27675681D02*
X23123666Y28437586D01*
X23657000Y28675681D02*
X24090333Y28675681D01*
X24090333Y28675681D02*
X23857000Y28294729D01*
X23857000Y28294729D02*
X23957000Y28294729D01*
X23957000Y28294729D02*
X24023666Y28247110D01*
X24023666Y28247110D02*
X24057000Y28199491D01*
X24057000Y28199491D02*
X24090333Y28104253D01*
X24090333Y28104253D02*
X24090333Y27866158D01*
X24090333Y27866158D02*
X24057000Y27770920D01*
X24057000Y27770920D02*
X24023666Y27723300D01*
X24023666Y27723300D02*
X23957000Y27675681D01*
X23957000Y27675681D02*
X23757000Y27675681D01*
X23757000Y27675681D02*
X23690333Y27723300D01*
X23690333Y27723300D02*
X23657000Y27770920D01*
X24390333Y27770920D02*
X24423667Y27723300D01*
X24423667Y27723300D02*
X24390333Y27675681D01*
X24390333Y27675681D02*
X24357000Y27723300D01*
X24357000Y27723300D02*
X24390333Y27770920D01*
X24390333Y27770920D02*
X24390333Y27675681D01*
X24657000Y28675681D02*
X25090333Y28675681D01*
X25090333Y28675681D02*
X24857000Y28294729D01*
X24857000Y28294729D02*
X24957000Y28294729D01*
X24957000Y28294729D02*
X25023666Y28247110D01*
X25023666Y28247110D02*
X25057000Y28199491D01*
X25057000Y28199491D02*
X25090333Y28104253D01*
X25090333Y28104253D02*
X25090333Y27866158D01*
X25090333Y27866158D02*
X25057000Y27770920D01*
X25057000Y27770920D02*
X25023666Y27723300D01*
X25023666Y27723300D02*
X24957000Y27675681D01*
X24957000Y27675681D02*
X24757000Y27675681D01*
X24757000Y27675681D02*
X24690333Y27723300D01*
X24690333Y27723300D02*
X24657000Y27770920D01*
X25290333Y28675681D02*
X25523667Y27675681D01*
X25523667Y27675681D02*
X25757000Y28675681D01*
X21728667Y22008300D02*
X21871524Y21960681D01*
X21871524Y21960681D02*
X22109619Y21960681D01*
X22109619Y21960681D02*
X22204857Y22008300D01*
X22204857Y22008300D02*
X22252476Y22055920D01*
X22252476Y22055920D02*
X22300095Y22151158D01*
X22300095Y22151158D02*
X22300095Y22246396D01*
X22300095Y22246396D02*
X22252476Y22341634D01*
X22252476Y22341634D02*
X22204857Y22389253D01*
X22204857Y22389253D02*
X22109619Y22436872D01*
X22109619Y22436872D02*
X21919143Y22484491D01*
X21919143Y22484491D02*
X21823905Y22532110D01*
X21823905Y22532110D02*
X21776286Y22579729D01*
X21776286Y22579729D02*
X21728667Y22674967D01*
X21728667Y22674967D02*
X21728667Y22770205D01*
X21728667Y22770205D02*
X21776286Y22865443D01*
X21776286Y22865443D02*
X21823905Y22913062D01*
X21823905Y22913062D02*
X21919143Y22960681D01*
X21919143Y22960681D02*
X22157238Y22960681D01*
X22157238Y22960681D02*
X22300095Y22913062D01*
X22633429Y22960681D02*
X22871524Y21960681D01*
X22871524Y21960681D02*
X23062000Y22674967D01*
X23062000Y22674967D02*
X23252476Y21960681D01*
X23252476Y21960681D02*
X23490572Y22960681D01*
X23823905Y22865443D02*
X23871524Y22913062D01*
X23871524Y22913062D02*
X23966762Y22960681D01*
X23966762Y22960681D02*
X24204857Y22960681D01*
X24204857Y22960681D02*
X24300095Y22913062D01*
X24300095Y22913062D02*
X24347714Y22865443D01*
X24347714Y22865443D02*
X24395333Y22770205D01*
X24395333Y22770205D02*
X24395333Y22674967D01*
X24395333Y22674967D02*
X24347714Y22532110D01*
X24347714Y22532110D02*
X23776286Y21960681D01*
X23776286Y21960681D02*
X24395333Y21960681D01*
X9953666Y10260681D02*
X9953666Y9546396D01*
X9953666Y9546396D02*
X9906047Y9403539D01*
X9906047Y9403539D02*
X9810809Y9308300D01*
X9810809Y9308300D02*
X9667952Y9260681D01*
X9667952Y9260681D02*
X9572714Y9260681D01*
X10858428Y9927348D02*
X10858428Y9260681D01*
X10620333Y10308300D02*
X10382238Y9594015D01*
X10382238Y9594015D02*
X11001285Y9594015D01*
X10660333Y3593300D02*
X10760333Y3545681D01*
X10760333Y3545681D02*
X10927000Y3545681D01*
X10927000Y3545681D02*
X10993666Y3593300D01*
X10993666Y3593300D02*
X11027000Y3640920D01*
X11027000Y3640920D02*
X11060333Y3736158D01*
X11060333Y3736158D02*
X11060333Y3831396D01*
X11060333Y3831396D02*
X11027000Y3926634D01*
X11027000Y3926634D02*
X10993666Y3974253D01*
X10993666Y3974253D02*
X10927000Y4021872D01*
X10927000Y4021872D02*
X10793666Y4069491D01*
X10793666Y4069491D02*
X10727000Y4117110D01*
X10727000Y4117110D02*
X10693666Y4164729D01*
X10693666Y4164729D02*
X10660333Y4259967D01*
X10660333Y4259967D02*
X10660333Y4355205D01*
X10660333Y4355205D02*
X10693666Y4450443D01*
X10693666Y4450443D02*
X10727000Y4498062D01*
X10727000Y4498062D02*
X10793666Y4545681D01*
X10793666Y4545681D02*
X10960333Y4545681D01*
X10960333Y4545681D02*
X11060333Y4498062D01*
X11760333Y3640920D02*
X11727000Y3593300D01*
X11727000Y3593300D02*
X11627000Y3545681D01*
X11627000Y3545681D02*
X11560333Y3545681D01*
X11560333Y3545681D02*
X11460333Y3593300D01*
X11460333Y3593300D02*
X11393667Y3688539D01*
X11393667Y3688539D02*
X11360333Y3783777D01*
X11360333Y3783777D02*
X11327000Y3974253D01*
X11327000Y3974253D02*
X11327000Y4117110D01*
X11327000Y4117110D02*
X11360333Y4307586D01*
X11360333Y4307586D02*
X11393667Y4402824D01*
X11393667Y4402824D02*
X11460333Y4498062D01*
X11460333Y4498062D02*
X11560333Y4545681D01*
X11560333Y4545681D02*
X11627000Y4545681D01*
X11627000Y4545681D02*
X11727000Y4498062D01*
X11727000Y4498062D02*
X11760333Y4450443D01*
X12393667Y3545681D02*
X12060333Y3545681D01*
X12060333Y3545681D02*
X12060333Y4545681D01*
X12460334Y3450443D02*
X12993667Y3450443D01*
X13160333Y3545681D02*
X13160333Y4545681D01*
X13160333Y4545681D02*
X13427000Y4545681D01*
X13427000Y4545681D02*
X13493667Y4498062D01*
X13493667Y4498062D02*
X13527000Y4450443D01*
X13527000Y4450443D02*
X13560333Y4355205D01*
X13560333Y4355205D02*
X13560333Y4212348D01*
X13560333Y4212348D02*
X13527000Y4117110D01*
X13527000Y4117110D02*
X13493667Y4069491D01*
X13493667Y4069491D02*
X13427000Y4021872D01*
X13427000Y4021872D02*
X13160333Y4021872D01*
X13860333Y4545681D02*
X13860333Y3736158D01*
X13860333Y3736158D02*
X13893667Y3640920D01*
X13893667Y3640920D02*
X13927000Y3593300D01*
X13927000Y3593300D02*
X13993667Y3545681D01*
X13993667Y3545681D02*
X14127000Y3545681D01*
X14127000Y3545681D02*
X14193667Y3593300D01*
X14193667Y3593300D02*
X14227000Y3640920D01*
X14227000Y3640920D02*
X14260333Y3736158D01*
X14260333Y3736158D02*
X14260333Y4545681D01*
X14993666Y3545681D02*
X14760333Y4021872D01*
X14593666Y3545681D02*
X14593666Y4545681D01*
X14593666Y4545681D02*
X14860333Y4545681D01*
X14860333Y4545681D02*
X14927000Y4498062D01*
X14927000Y4498062D02*
X14960333Y4450443D01*
X14960333Y4450443D02*
X14993666Y4355205D01*
X14993666Y4355205D02*
X14993666Y4212348D01*
X14993666Y4212348D02*
X14960333Y4117110D01*
X14960333Y4117110D02*
X14927000Y4069491D01*
X14927000Y4069491D02*
X14860333Y4021872D01*
X14860333Y4021872D02*
X14593666Y4021872D01*
X38885905Y47995681D02*
X38885905Y48995681D01*
X38885905Y48995681D02*
X39124000Y48995681D01*
X39124000Y48995681D02*
X39266857Y48948062D01*
X39266857Y48948062D02*
X39362095Y48852824D01*
X39362095Y48852824D02*
X39409714Y48757586D01*
X39409714Y48757586D02*
X39457333Y48567110D01*
X39457333Y48567110D02*
X39457333Y48424253D01*
X39457333Y48424253D02*
X39409714Y48233777D01*
X39409714Y48233777D02*
X39362095Y48138539D01*
X39362095Y48138539D02*
X39266857Y48043300D01*
X39266857Y48043300D02*
X39124000Y47995681D01*
X39124000Y47995681D02*
X38885905Y47995681D01*
X39790667Y48995681D02*
X40409714Y48995681D01*
X40409714Y48995681D02*
X40076381Y48614729D01*
X40076381Y48614729D02*
X40219238Y48614729D01*
X40219238Y48614729D02*
X40314476Y48567110D01*
X40314476Y48567110D02*
X40362095Y48519491D01*
X40362095Y48519491D02*
X40409714Y48424253D01*
X40409714Y48424253D02*
X40409714Y48186158D01*
X40409714Y48186158D02*
X40362095Y48090920D01*
X40362095Y48090920D02*
X40314476Y48043300D01*
X40314476Y48043300D02*
X40219238Y47995681D01*
X40219238Y47995681D02*
X39933524Y47995681D01*
X39933524Y47995681D02*
X39838286Y48043300D01*
X39838286Y48043300D02*
X39790667Y48090920D01*
X37846048Y53456634D02*
X38607953Y53456634D01*
X38227000Y53075681D02*
X38227000Y53837586D01*
X35353666Y10260681D02*
X35353666Y9546396D01*
X35353666Y9546396D02*
X35306047Y9403539D01*
X35306047Y9403539D02*
X35210809Y9308300D01*
X35210809Y9308300D02*
X35067952Y9260681D01*
X35067952Y9260681D02*
X34972714Y9260681D01*
X35734619Y10260681D02*
X36353666Y10260681D01*
X36353666Y10260681D02*
X36020333Y9879729D01*
X36020333Y9879729D02*
X36163190Y9879729D01*
X36163190Y9879729D02*
X36258428Y9832110D01*
X36258428Y9832110D02*
X36306047Y9784491D01*
X36306047Y9784491D02*
X36353666Y9689253D01*
X36353666Y9689253D02*
X36353666Y9451158D01*
X36353666Y9451158D02*
X36306047Y9355920D01*
X36306047Y9355920D02*
X36258428Y9308300D01*
X36258428Y9308300D02*
X36163190Y9260681D01*
X36163190Y9260681D02*
X35877476Y9260681D01*
X35877476Y9260681D02*
X35782238Y9308300D01*
X35782238Y9308300D02*
X35734619Y9355920D01*
X30963667Y3593300D02*
X31063667Y3545681D01*
X31063667Y3545681D02*
X31230334Y3545681D01*
X31230334Y3545681D02*
X31297000Y3593300D01*
X31297000Y3593300D02*
X31330334Y3640920D01*
X31330334Y3640920D02*
X31363667Y3736158D01*
X31363667Y3736158D02*
X31363667Y3831396D01*
X31363667Y3831396D02*
X31330334Y3926634D01*
X31330334Y3926634D02*
X31297000Y3974253D01*
X31297000Y3974253D02*
X31230334Y4021872D01*
X31230334Y4021872D02*
X31097000Y4069491D01*
X31097000Y4069491D02*
X31030334Y4117110D01*
X31030334Y4117110D02*
X30997000Y4164729D01*
X30997000Y4164729D02*
X30963667Y4259967D01*
X30963667Y4259967D02*
X30963667Y4355205D01*
X30963667Y4355205D02*
X30997000Y4450443D01*
X30997000Y4450443D02*
X31030334Y4498062D01*
X31030334Y4498062D02*
X31097000Y4545681D01*
X31097000Y4545681D02*
X31263667Y4545681D01*
X31263667Y4545681D02*
X31363667Y4498062D01*
X31663667Y3545681D02*
X31663667Y4545681D01*
X31663667Y4545681D02*
X31830334Y4545681D01*
X31830334Y4545681D02*
X31930334Y4498062D01*
X31930334Y4498062D02*
X31997001Y4402824D01*
X31997001Y4402824D02*
X32030334Y4307586D01*
X32030334Y4307586D02*
X32063667Y4117110D01*
X32063667Y4117110D02*
X32063667Y3974253D01*
X32063667Y3974253D02*
X32030334Y3783777D01*
X32030334Y3783777D02*
X31997001Y3688539D01*
X31997001Y3688539D02*
X31930334Y3593300D01*
X31930334Y3593300D02*
X31830334Y3545681D01*
X31830334Y3545681D02*
X31663667Y3545681D01*
X32330334Y3831396D02*
X32663667Y3831396D01*
X32263667Y3545681D02*
X32497001Y4545681D01*
X32497001Y4545681D02*
X32730334Y3545681D01*
X32797001Y3450443D02*
X33330334Y3450443D01*
X33497000Y3545681D02*
X33497000Y4545681D01*
X33497000Y4545681D02*
X33763667Y4545681D01*
X33763667Y4545681D02*
X33830334Y4498062D01*
X33830334Y4498062D02*
X33863667Y4450443D01*
X33863667Y4450443D02*
X33897000Y4355205D01*
X33897000Y4355205D02*
X33897000Y4212348D01*
X33897000Y4212348D02*
X33863667Y4117110D01*
X33863667Y4117110D02*
X33830334Y4069491D01*
X33830334Y4069491D02*
X33763667Y4021872D01*
X33763667Y4021872D02*
X33497000Y4021872D01*
X34197000Y4545681D02*
X34197000Y3736158D01*
X34197000Y3736158D02*
X34230334Y3640920D01*
X34230334Y3640920D02*
X34263667Y3593300D01*
X34263667Y3593300D02*
X34330334Y3545681D01*
X34330334Y3545681D02*
X34463667Y3545681D01*
X34463667Y3545681D02*
X34530334Y3593300D01*
X34530334Y3593300D02*
X34563667Y3640920D01*
X34563667Y3640920D02*
X34597000Y3736158D01*
X34597000Y3736158D02*
X34597000Y4545681D01*
X35330333Y3545681D02*
X35097000Y4021872D01*
X34930333Y3545681D02*
X34930333Y4545681D01*
X34930333Y4545681D02*
X35197000Y4545681D01*
X35197000Y4545681D02*
X35263667Y4498062D01*
X35263667Y4498062D02*
X35297000Y4450443D01*
X35297000Y4450443D02*
X35330333Y4355205D01*
X35330333Y4355205D02*
X35330333Y4212348D01*
X35330333Y4212348D02*
X35297000Y4117110D01*
X35297000Y4117110D02*
X35263667Y4069491D01*
X35263667Y4069491D02*
X35197000Y4021872D01*
X35197000Y4021872D02*
X34930333Y4021872D01*
X33508333Y65620420D02*
X33460714Y65572800D01*
X33460714Y65572800D02*
X33317857Y65525181D01*
X33317857Y65525181D02*
X33222619Y65525181D01*
X33222619Y65525181D02*
X33079762Y65572800D01*
X33079762Y65572800D02*
X32984524Y65668039D01*
X32984524Y65668039D02*
X32936905Y65763277D01*
X32936905Y65763277D02*
X32889286Y65953753D01*
X32889286Y65953753D02*
X32889286Y66096610D01*
X32889286Y66096610D02*
X32936905Y66287086D01*
X32936905Y66287086D02*
X32984524Y66382324D01*
X32984524Y66382324D02*
X33079762Y66477562D01*
X33079762Y66477562D02*
X33222619Y66525181D01*
X33222619Y66525181D02*
X33317857Y66525181D01*
X33317857Y66525181D02*
X33460714Y66477562D01*
X33460714Y66477562D02*
X33508333Y66429943D01*
X33889286Y66429943D02*
X33936905Y66477562D01*
X33936905Y66477562D02*
X34032143Y66525181D01*
X34032143Y66525181D02*
X34270238Y66525181D01*
X34270238Y66525181D02*
X34365476Y66477562D01*
X34365476Y66477562D02*
X34413095Y66429943D01*
X34413095Y66429943D02*
X34460714Y66334705D01*
X34460714Y66334705D02*
X34460714Y66239467D01*
X34460714Y66239467D02*
X34413095Y66096610D01*
X34413095Y66096610D02*
X33841667Y65525181D01*
X33841667Y65525181D02*
X34460714Y65525181D01*
X29210095Y39470681D02*
X29210095Y38661158D01*
X29210095Y38661158D02*
X29257714Y38565920D01*
X29257714Y38565920D02*
X29305333Y38518300D01*
X29305333Y38518300D02*
X29400571Y38470681D01*
X29400571Y38470681D02*
X29591047Y38470681D01*
X29591047Y38470681D02*
X29686285Y38518300D01*
X29686285Y38518300D02*
X29733904Y38565920D01*
X29733904Y38565920D02*
X29781523Y38661158D01*
X29781523Y38661158D02*
X29781523Y39470681D01*
X30781523Y38470681D02*
X30210095Y38470681D01*
X30495809Y38470681D02*
X30495809Y39470681D01*
X30495809Y39470681D02*
X30400571Y39327824D01*
X30400571Y39327824D02*
X30305333Y39232586D01*
X30305333Y39232586D02*
X30210095Y39184967D01*
X26683190Y29675920D02*
X26645094Y29628300D01*
X26645094Y29628300D02*
X26530809Y29580681D01*
X26530809Y29580681D02*
X26454618Y29580681D01*
X26454618Y29580681D02*
X26340332Y29628300D01*
X26340332Y29628300D02*
X26264142Y29723539D01*
X26264142Y29723539D02*
X26226047Y29818777D01*
X26226047Y29818777D02*
X26187951Y30009253D01*
X26187951Y30009253D02*
X26187951Y30152110D01*
X26187951Y30152110D02*
X26226047Y30342586D01*
X26226047Y30342586D02*
X26264142Y30437824D01*
X26264142Y30437824D02*
X26340332Y30533062D01*
X26340332Y30533062D02*
X26454618Y30580681D01*
X26454618Y30580681D02*
X26530809Y30580681D01*
X26530809Y30580681D02*
X26645094Y30533062D01*
X26645094Y30533062D02*
X26683190Y30485443D01*
X27026047Y29580681D02*
X27026047Y30580681D01*
X27026047Y30104491D02*
X27483190Y30104491D01*
X27483190Y29580681D02*
X27483190Y30580681D01*
X27787951Y30580681D02*
X28283189Y30580681D01*
X28283189Y30580681D02*
X28016523Y30199729D01*
X28016523Y30199729D02*
X28130808Y30199729D01*
X28130808Y30199729D02*
X28206999Y30152110D01*
X28206999Y30152110D02*
X28245094Y30104491D01*
X28245094Y30104491D02*
X28283189Y30009253D01*
X28283189Y30009253D02*
X28283189Y29771158D01*
X28283189Y29771158D02*
X28245094Y29675920D01*
X28245094Y29675920D02*
X28206999Y29628300D01*
X28206999Y29628300D02*
X28130808Y29580681D01*
X28130808Y29580681D02*
X27902237Y29580681D01*
X27902237Y29580681D02*
X27826046Y29628300D01*
X27826046Y29628300D02*
X27787951Y29675920D01*
X28587951Y30485443D02*
X28626047Y30533062D01*
X28626047Y30533062D02*
X28702237Y30580681D01*
X28702237Y30580681D02*
X28892713Y30580681D01*
X28892713Y30580681D02*
X28968904Y30533062D01*
X28968904Y30533062D02*
X29006999Y30485443D01*
X29006999Y30485443D02*
X29045094Y30390205D01*
X29045094Y30390205D02*
X29045094Y30294967D01*
X29045094Y30294967D02*
X29006999Y30152110D01*
X29006999Y30152110D02*
X28549856Y29580681D01*
X28549856Y29580681D02*
X29045094Y29580681D01*
X29273666Y30580681D02*
X29540333Y29580681D01*
X29540333Y29580681D02*
X29806999Y30580681D01*
X30226047Y30580681D02*
X30302237Y30580681D01*
X30302237Y30580681D02*
X30378428Y30533062D01*
X30378428Y30533062D02*
X30416523Y30485443D01*
X30416523Y30485443D02*
X30454618Y30390205D01*
X30454618Y30390205D02*
X30492713Y30199729D01*
X30492713Y30199729D02*
X30492713Y29961634D01*
X30492713Y29961634D02*
X30454618Y29771158D01*
X30454618Y29771158D02*
X30416523Y29675920D01*
X30416523Y29675920D02*
X30378428Y29628300D01*
X30378428Y29628300D02*
X30302237Y29580681D01*
X30302237Y29580681D02*
X30226047Y29580681D01*
X30226047Y29580681D02*
X30149856Y29628300D01*
X30149856Y29628300D02*
X30111761Y29675920D01*
X30111761Y29675920D02*
X30073666Y29771158D01*
X30073666Y29771158D02*
X30035570Y29961634D01*
X30035570Y29961634D02*
X30035570Y30199729D01*
X30035570Y30199729D02*
X30073666Y30390205D01*
X30073666Y30390205D02*
X30111761Y30485443D01*
X30111761Y30485443D02*
X30149856Y30533062D01*
X30149856Y30533062D02*
X30226047Y30580681D01*
X30987952Y30580681D02*
X31064142Y30580681D01*
X31064142Y30580681D02*
X31140333Y30533062D01*
X31140333Y30533062D02*
X31178428Y30485443D01*
X31178428Y30485443D02*
X31216523Y30390205D01*
X31216523Y30390205D02*
X31254618Y30199729D01*
X31254618Y30199729D02*
X31254618Y29961634D01*
X31254618Y29961634D02*
X31216523Y29771158D01*
X31216523Y29771158D02*
X31178428Y29675920D01*
X31178428Y29675920D02*
X31140333Y29628300D01*
X31140333Y29628300D02*
X31064142Y29580681D01*
X31064142Y29580681D02*
X30987952Y29580681D01*
X30987952Y29580681D02*
X30911761Y29628300D01*
X30911761Y29628300D02*
X30873666Y29675920D01*
X30873666Y29675920D02*
X30835571Y29771158D01*
X30835571Y29771158D02*
X30797475Y29961634D01*
X30797475Y29961634D02*
X30797475Y30199729D01*
X30797475Y30199729D02*
X30835571Y30390205D01*
X30835571Y30390205D02*
X30873666Y30485443D01*
X30873666Y30485443D02*
X30911761Y30533062D01*
X30911761Y30533062D02*
X30987952Y30580681D01*
X31521285Y30580681D02*
X32016523Y30580681D01*
X32016523Y30580681D02*
X31749857Y30199729D01*
X31749857Y30199729D02*
X31864142Y30199729D01*
X31864142Y30199729D02*
X31940333Y30152110D01*
X31940333Y30152110D02*
X31978428Y30104491D01*
X31978428Y30104491D02*
X32016523Y30009253D01*
X32016523Y30009253D02*
X32016523Y29771158D01*
X32016523Y29771158D02*
X31978428Y29675920D01*
X31978428Y29675920D02*
X31940333Y29628300D01*
X31940333Y29628300D02*
X31864142Y29580681D01*
X31864142Y29580681D02*
X31635571Y29580681D01*
X31635571Y29580681D02*
X31559380Y29628300D01*
X31559380Y29628300D02*
X31521285Y29675920D01*
X32626047Y30104491D02*
X32359381Y30104491D01*
X32359381Y29580681D02*
X32359381Y30580681D01*
X32359381Y30580681D02*
X32740333Y30580681D01*
X33387952Y30247348D02*
X33387952Y29580681D01*
X33197476Y30628300D02*
X33006999Y29914015D01*
X33006999Y29914015D02*
X33502238Y29914015D01*
X33807000Y29580681D02*
X33807000Y30580681D01*
X33807000Y30580681D02*
X34111762Y30580681D01*
X34111762Y30580681D02*
X34187952Y30533062D01*
X34187952Y30533062D02*
X34226047Y30485443D01*
X34226047Y30485443D02*
X34264143Y30390205D01*
X34264143Y30390205D02*
X34264143Y30247348D01*
X34264143Y30247348D02*
X34226047Y30152110D01*
X34226047Y30152110D02*
X34187952Y30104491D01*
X34187952Y30104491D02*
X34111762Y30056872D01*
X34111762Y30056872D02*
X33807000Y30056872D01*
X34949857Y30580681D02*
X34797476Y30580681D01*
X34797476Y30580681D02*
X34721285Y30533062D01*
X34721285Y30533062D02*
X34683190Y30485443D01*
X34683190Y30485443D02*
X34607000Y30342586D01*
X34607000Y30342586D02*
X34568904Y30152110D01*
X34568904Y30152110D02*
X34568904Y29771158D01*
X34568904Y29771158D02*
X34607000Y29675920D01*
X34607000Y29675920D02*
X34645095Y29628300D01*
X34645095Y29628300D02*
X34721285Y29580681D01*
X34721285Y29580681D02*
X34873666Y29580681D01*
X34873666Y29580681D02*
X34949857Y29628300D01*
X34949857Y29628300D02*
X34987952Y29675920D01*
X34987952Y29675920D02*
X35026047Y29771158D01*
X35026047Y29771158D02*
X35026047Y30009253D01*
X35026047Y30009253D02*
X34987952Y30104491D01*
X34987952Y30104491D02*
X34949857Y30152110D01*
X34949857Y30152110D02*
X34873666Y30199729D01*
X34873666Y30199729D02*
X34721285Y30199729D01*
X34721285Y30199729D02*
X34645095Y30152110D01*
X34645095Y30152110D02*
X34607000Y30104491D01*
X34607000Y30104491D02*
X34568904Y30009253D01*
X25947675Y37954227D02*
X25376247Y37954227D01*
X25661961Y37954227D02*
X25661961Y38954227D01*
X25661961Y38954227D02*
X25566723Y38811370D01*
X25566723Y38811370D02*
X25471485Y38716132D01*
X25471485Y38716132D02*
X25376247Y38668513D01*
X15033666Y2958181D02*
X15033666Y2243896D01*
X15033666Y2243896D02*
X14986047Y2101039D01*
X14986047Y2101039D02*
X14890809Y2005800D01*
X14890809Y2005800D02*
X14747952Y1958181D01*
X14747952Y1958181D02*
X14652714Y1958181D01*
X15414619Y2958181D02*
X16081285Y2958181D01*
X16081285Y2958181D02*
X15652714Y1958181D01*
X29972286Y1831181D02*
X29972286Y2831181D01*
X30400857Y2735943D02*
X30448476Y2783562D01*
X30448476Y2783562D02*
X30543714Y2831181D01*
X30543714Y2831181D02*
X30781809Y2831181D01*
X30781809Y2831181D02*
X30877047Y2783562D01*
X30877047Y2783562D02*
X30924666Y2735943D01*
X30924666Y2735943D02*
X30972285Y2640705D01*
X30972285Y2640705D02*
X30972285Y2545467D01*
X30972285Y2545467D02*
X30924666Y2402610D01*
X30924666Y2402610D02*
X30353238Y1831181D01*
X30353238Y1831181D02*
X30972285Y1831181D01*
X31972285Y1926420D02*
X31924666Y1878800D01*
X31924666Y1878800D02*
X31781809Y1831181D01*
X31781809Y1831181D02*
X31686571Y1831181D01*
X31686571Y1831181D02*
X31543714Y1878800D01*
X31543714Y1878800D02*
X31448476Y1974039D01*
X31448476Y1974039D02*
X31400857Y2069277D01*
X31400857Y2069277D02*
X31353238Y2259753D01*
X31353238Y2259753D02*
X31353238Y2402610D01*
X31353238Y2402610D02*
X31400857Y2593086D01*
X31400857Y2593086D02*
X31448476Y2688324D01*
X31448476Y2688324D02*
X31543714Y2783562D01*
X31543714Y2783562D02*
X31686571Y2831181D01*
X31686571Y2831181D02*
X31781809Y2831181D01*
X31781809Y2831181D02*
X31924666Y2783562D01*
X31924666Y2783562D02*
X31972285Y2735943D01*
X32162762Y1735943D02*
X32924666Y1735943D01*
X33162762Y2354991D02*
X33496095Y2354991D01*
X33638952Y1831181D02*
X33162762Y1831181D01*
X33162762Y1831181D02*
X33162762Y2831181D01*
X33162762Y2831181D02*
X33638952Y2831181D01*
X33972286Y2831181D02*
X34638952Y1831181D01*
X34638952Y2831181D02*
X33972286Y1831181D01*
X17373667Y12435562D02*
X17307000Y12483181D01*
X17307000Y12483181D02*
X17207000Y12483181D01*
X17207000Y12483181D02*
X17107000Y12435562D01*
X17107000Y12435562D02*
X17040334Y12340324D01*
X17040334Y12340324D02*
X17007000Y12245086D01*
X17007000Y12245086D02*
X16973667Y12054610D01*
X16973667Y12054610D02*
X16973667Y11911753D01*
X16973667Y11911753D02*
X17007000Y11721277D01*
X17007000Y11721277D02*
X17040334Y11626039D01*
X17040334Y11626039D02*
X17107000Y11530800D01*
X17107000Y11530800D02*
X17207000Y11483181D01*
X17207000Y11483181D02*
X17273667Y11483181D01*
X17273667Y11483181D02*
X17373667Y11530800D01*
X17373667Y11530800D02*
X17407000Y11578420D01*
X17407000Y11578420D02*
X17407000Y11911753D01*
X17407000Y11911753D02*
X17273667Y11911753D01*
X17707000Y11483181D02*
X17707000Y12483181D01*
X17707000Y12483181D02*
X18107000Y11483181D01*
X18107000Y11483181D02*
X18107000Y12483181D01*
X18440333Y11483181D02*
X18440333Y12483181D01*
X18440333Y12483181D02*
X18607000Y12483181D01*
X18607000Y12483181D02*
X18707000Y12435562D01*
X18707000Y12435562D02*
X18773667Y12340324D01*
X18773667Y12340324D02*
X18807000Y12245086D01*
X18807000Y12245086D02*
X18840333Y12054610D01*
X18840333Y12054610D02*
X18840333Y11911753D01*
X18840333Y11911753D02*
X18807000Y11721277D01*
X18807000Y11721277D02*
X18773667Y11626039D01*
X18773667Y11626039D02*
X18707000Y11530800D01*
X18707000Y11530800D02*
X18607000Y11483181D01*
X18607000Y11483181D02*
X18440333Y11483181D01*
X19681999Y11864134D02*
X20215333Y11864134D01*
X19948666Y11483181D02*
X19948666Y12245086D01*
X20482000Y12483181D02*
X20915333Y12483181D01*
X20915333Y12483181D02*
X20682000Y12102229D01*
X20682000Y12102229D02*
X20782000Y12102229D01*
X20782000Y12102229D02*
X20848666Y12054610D01*
X20848666Y12054610D02*
X20882000Y12006991D01*
X20882000Y12006991D02*
X20915333Y11911753D01*
X20915333Y11911753D02*
X20915333Y11673658D01*
X20915333Y11673658D02*
X20882000Y11578420D01*
X20882000Y11578420D02*
X20848666Y11530800D01*
X20848666Y11530800D02*
X20782000Y11483181D01*
X20782000Y11483181D02*
X20582000Y11483181D01*
X20582000Y11483181D02*
X20515333Y11530800D01*
X20515333Y11530800D02*
X20482000Y11578420D01*
X21215333Y11578420D02*
X21248667Y11530800D01*
X21248667Y11530800D02*
X21215333Y11483181D01*
X21215333Y11483181D02*
X21182000Y11530800D01*
X21182000Y11530800D02*
X21215333Y11578420D01*
X21215333Y11578420D02*
X21215333Y11483181D01*
X21482000Y12483181D02*
X21915333Y12483181D01*
X21915333Y12483181D02*
X21682000Y12102229D01*
X21682000Y12102229D02*
X21782000Y12102229D01*
X21782000Y12102229D02*
X21848666Y12054610D01*
X21848666Y12054610D02*
X21882000Y12006991D01*
X21882000Y12006991D02*
X21915333Y11911753D01*
X21915333Y11911753D02*
X21915333Y11673658D01*
X21915333Y11673658D02*
X21882000Y11578420D01*
X21882000Y11578420D02*
X21848666Y11530800D01*
X21848666Y11530800D02*
X21782000Y11483181D01*
X21782000Y11483181D02*
X21582000Y11483181D01*
X21582000Y11483181D02*
X21515333Y11530800D01*
X21515333Y11530800D02*
X21482000Y11578420D01*
X22115333Y12483181D02*
X22348667Y11483181D01*
X22348667Y11483181D02*
X22582000Y12483181D01*
X24058666Y11530800D02*
X24158666Y11483181D01*
X24158666Y11483181D02*
X24325333Y11483181D01*
X24325333Y11483181D02*
X24391999Y11530800D01*
X24391999Y11530800D02*
X24425333Y11578420D01*
X24425333Y11578420D02*
X24458666Y11673658D01*
X24458666Y11673658D02*
X24458666Y11768896D01*
X24458666Y11768896D02*
X24425333Y11864134D01*
X24425333Y11864134D02*
X24391999Y11911753D01*
X24391999Y11911753D02*
X24325333Y11959372D01*
X24325333Y11959372D02*
X24191999Y12006991D01*
X24191999Y12006991D02*
X24125333Y12054610D01*
X24125333Y12054610D02*
X24091999Y12102229D01*
X24091999Y12102229D02*
X24058666Y12197467D01*
X24058666Y12197467D02*
X24058666Y12292705D01*
X24058666Y12292705D02*
X24091999Y12387943D01*
X24091999Y12387943D02*
X24125333Y12435562D01*
X24125333Y12435562D02*
X24191999Y12483181D01*
X24191999Y12483181D02*
X24358666Y12483181D01*
X24358666Y12483181D02*
X24458666Y12435562D01*
X25158666Y11578420D02*
X25125333Y11530800D01*
X25125333Y11530800D02*
X25025333Y11483181D01*
X25025333Y11483181D02*
X24958666Y11483181D01*
X24958666Y11483181D02*
X24858666Y11530800D01*
X24858666Y11530800D02*
X24792000Y11626039D01*
X24792000Y11626039D02*
X24758666Y11721277D01*
X24758666Y11721277D02*
X24725333Y11911753D01*
X24725333Y11911753D02*
X24725333Y12054610D01*
X24725333Y12054610D02*
X24758666Y12245086D01*
X24758666Y12245086D02*
X24792000Y12340324D01*
X24792000Y12340324D02*
X24858666Y12435562D01*
X24858666Y12435562D02*
X24958666Y12483181D01*
X24958666Y12483181D02*
X25025333Y12483181D01*
X25025333Y12483181D02*
X25125333Y12435562D01*
X25125333Y12435562D02*
X25158666Y12387943D01*
X25792000Y11483181D02*
X25458666Y11483181D01*
X25458666Y11483181D02*
X25458666Y12483181D01*
X26582000Y11530800D02*
X26682000Y11483181D01*
X26682000Y11483181D02*
X26848667Y11483181D01*
X26848667Y11483181D02*
X26915333Y11530800D01*
X26915333Y11530800D02*
X26948667Y11578420D01*
X26948667Y11578420D02*
X26982000Y11673658D01*
X26982000Y11673658D02*
X26982000Y11768896D01*
X26982000Y11768896D02*
X26948667Y11864134D01*
X26948667Y11864134D02*
X26915333Y11911753D01*
X26915333Y11911753D02*
X26848667Y11959372D01*
X26848667Y11959372D02*
X26715333Y12006991D01*
X26715333Y12006991D02*
X26648667Y12054610D01*
X26648667Y12054610D02*
X26615333Y12102229D01*
X26615333Y12102229D02*
X26582000Y12197467D01*
X26582000Y12197467D02*
X26582000Y12292705D01*
X26582000Y12292705D02*
X26615333Y12387943D01*
X26615333Y12387943D02*
X26648667Y12435562D01*
X26648667Y12435562D02*
X26715333Y12483181D01*
X26715333Y12483181D02*
X26882000Y12483181D01*
X26882000Y12483181D02*
X26982000Y12435562D01*
X27282000Y11483181D02*
X27282000Y12483181D01*
X27282000Y12483181D02*
X27448667Y12483181D01*
X27448667Y12483181D02*
X27548667Y12435562D01*
X27548667Y12435562D02*
X27615334Y12340324D01*
X27615334Y12340324D02*
X27648667Y12245086D01*
X27648667Y12245086D02*
X27682000Y12054610D01*
X27682000Y12054610D02*
X27682000Y11911753D01*
X27682000Y11911753D02*
X27648667Y11721277D01*
X27648667Y11721277D02*
X27615334Y11626039D01*
X27615334Y11626039D02*
X27548667Y11530800D01*
X27548667Y11530800D02*
X27448667Y11483181D01*
X27448667Y11483181D02*
X27282000Y11483181D01*
X27948667Y11768896D02*
X28282000Y11768896D01*
X27882000Y11483181D02*
X28115334Y12483181D01*
X28115334Y12483181D02*
X28348667Y11483181D01*
X41235333Y10530681D02*
X40902000Y11006872D01*
X40663905Y10530681D02*
X40663905Y11530681D01*
X40663905Y11530681D02*
X41044857Y11530681D01*
X41044857Y11530681D02*
X41140095Y11483062D01*
X41140095Y11483062D02*
X41187714Y11435443D01*
X41187714Y11435443D02*
X41235333Y11340205D01*
X41235333Y11340205D02*
X41235333Y11197348D01*
X41235333Y11197348D02*
X41187714Y11102110D01*
X41187714Y11102110D02*
X41140095Y11054491D01*
X41140095Y11054491D02*
X41044857Y11006872D01*
X41044857Y11006872D02*
X40663905Y11006872D01*
X42140095Y11530681D02*
X41663905Y11530681D01*
X41663905Y11530681D02*
X41616286Y11054491D01*
X41616286Y11054491D02*
X41663905Y11102110D01*
X41663905Y11102110D02*
X41759143Y11149729D01*
X41759143Y11149729D02*
X41997238Y11149729D01*
X41997238Y11149729D02*
X42092476Y11102110D01*
X42092476Y11102110D02*
X42140095Y11054491D01*
X42140095Y11054491D02*
X42187714Y10959253D01*
X42187714Y10959253D02*
X42187714Y10721158D01*
X42187714Y10721158D02*
X42140095Y10625920D01*
X42140095Y10625920D02*
X42092476Y10578300D01*
X42092476Y10578300D02*
X41997238Y10530681D01*
X41997238Y10530681D02*
X41759143Y10530681D01*
X41759143Y10530681D02*
X41663905Y10578300D01*
X41663905Y10578300D02*
X41616286Y10625920D01*
X35726761Y13070681D02*
X35155333Y13070681D01*
X35441047Y13070681D02*
X35441047Y14070681D01*
X35441047Y14070681D02*
X35345809Y13927824D01*
X35345809Y13927824D02*
X35250571Y13832586D01*
X35250571Y13832586D02*
X35155333Y13784967D01*
X36345809Y14070681D02*
X36441047Y14070681D01*
X36441047Y14070681D02*
X36536285Y14023062D01*
X36536285Y14023062D02*
X36583904Y13975443D01*
X36583904Y13975443D02*
X36631523Y13880205D01*
X36631523Y13880205D02*
X36679142Y13689729D01*
X36679142Y13689729D02*
X36679142Y13451634D01*
X36679142Y13451634D02*
X36631523Y13261158D01*
X36631523Y13261158D02*
X36583904Y13165920D01*
X36583904Y13165920D02*
X36536285Y13118300D01*
X36536285Y13118300D02*
X36441047Y13070681D01*
X36441047Y13070681D02*
X36345809Y13070681D01*
X36345809Y13070681D02*
X36250571Y13118300D01*
X36250571Y13118300D02*
X36202952Y13165920D01*
X36202952Y13165920D02*
X36155333Y13261158D01*
X36155333Y13261158D02*
X36107714Y13451634D01*
X36107714Y13451634D02*
X36107714Y13689729D01*
X36107714Y13689729D02*
X36155333Y13880205D01*
X36155333Y13880205D02*
X36202952Y13975443D01*
X36202952Y13975443D02*
X36250571Y14023062D01*
X36250571Y14023062D02*
X36345809Y14070681D01*
X37107714Y13070681D02*
X37107714Y14070681D01*
X37202952Y13451634D02*
X37488666Y13070681D01*
X37488666Y13737348D02*
X37107714Y13356396D01*
X5103905Y35295681D02*
X5103905Y36295681D01*
X5103905Y36295681D02*
X5342000Y36295681D01*
X5342000Y36295681D02*
X5484857Y36248062D01*
X5484857Y36248062D02*
X5580095Y36152824D01*
X5580095Y36152824D02*
X5627714Y36057586D01*
X5627714Y36057586D02*
X5675333Y35867110D01*
X5675333Y35867110D02*
X5675333Y35724253D01*
X5675333Y35724253D02*
X5627714Y35533777D01*
X5627714Y35533777D02*
X5580095Y35438539D01*
X5580095Y35438539D02*
X5484857Y35343300D01*
X5484857Y35343300D02*
X5342000Y35295681D01*
X5342000Y35295681D02*
X5103905Y35295681D01*
X6056286Y36200443D02*
X6103905Y36248062D01*
X6103905Y36248062D02*
X6199143Y36295681D01*
X6199143Y36295681D02*
X6437238Y36295681D01*
X6437238Y36295681D02*
X6532476Y36248062D01*
X6532476Y36248062D02*
X6580095Y36200443D01*
X6580095Y36200443D02*
X6627714Y36105205D01*
X6627714Y36105205D02*
X6627714Y36009967D01*
X6627714Y36009967D02*
X6580095Y35867110D01*
X6580095Y35867110D02*
X6008667Y35295681D01*
X6008667Y35295681D02*
X6627714Y35295681D01*
X7239048Y40883634D02*
X8000953Y40883634D01*
X7620000Y40502681D02*
X7620000Y41264586D01*
D13*
%TO.C,R1*%
X13867000Y50355500D02*
X14637000Y50355500D01*
X14637000Y51725500D02*
X14637000Y48985500D01*
X14637000Y48985500D02*
X21177000Y48985500D01*
X21177000Y51725500D02*
X14637000Y51725500D01*
X21177000Y48985500D02*
X21177000Y51725500D01*
X21947000Y50355500D02*
X21177000Y50355500D01*
%TO.C,SW1*%
X4247000Y20625500D02*
X4247000Y19125500D01*
X5497000Y16625500D02*
X9997000Y16625500D01*
X9997000Y23125500D02*
X5497000Y23125500D01*
X11247000Y19125500D02*
X11247000Y20625500D01*
%TO.C,C1*%
X22502000Y32905500D02*
X22567000Y32905500D01*
X22502000Y29665500D02*
X22502000Y32905500D01*
X22502000Y29665500D02*
X22567000Y29665500D01*
X24677000Y32905500D02*
X24742000Y32905500D01*
X24677000Y29665500D02*
X24742000Y29665500D01*
X24742000Y29665500D02*
X24742000Y32905500D01*
%TO.C,J2*%
X17857000Y57400500D02*
X19187000Y57400500D01*
X17857000Y56070500D02*
X17857000Y57400500D01*
X20457000Y57400500D02*
X28137000Y57400500D01*
X20457000Y54740500D02*
X20457000Y57400500D01*
X20457000Y54740500D02*
X28137000Y54740500D01*
X28137000Y54740500D02*
X28137000Y57400500D01*
%TO.C,D1*%
X4606000Y47525500D02*
X4762000Y47525500D01*
X6922000Y47525500D02*
X7078000Y47525500D01*
X4606484Y47525500D02*
G75*
G02*
X4761939Y50756897I1235516J1560000D01*
G01*
X4762000Y48044539D02*
G75*
G02*
X4761951Y50126410I1080000J1040961D01*
G01*
X6922049Y50126410D02*
G75*
G02*
X6922000Y48044539I-1080049J-1040910D01*
G01*
X6922061Y50756897D02*
G75*
G02*
X7077516Y47525500I-1080061J-1671397D01*
G01*
%TO.C,SW3*%
X34652000Y20625500D02*
X34652000Y19125500D01*
X35902000Y16625500D02*
X40402000Y16625500D01*
X40402000Y23125500D02*
X35902000Y23125500D01*
X41652000Y19125500D02*
X41652000Y20625500D01*
%TO.C,J1*%
X16737000Y69215000D02*
X16737000Y60455000D01*
X16737000Y60455000D02*
X18157000Y60455000D01*
X18157000Y64955000D02*
X23047000Y64955000D01*
X18157000Y60455000D02*
X18157000Y64955000D01*
X19047000Y69215000D02*
X19047000Y66065000D01*
X19047000Y66065000D02*
X19547000Y66065000D01*
X19547000Y66065000D02*
X19547000Y69215000D01*
X21547000Y69215000D02*
X21547000Y66065000D01*
X21547000Y66065000D02*
X22047000Y66065000D01*
X22047000Y66065000D02*
X22047000Y69215000D01*
X24047000Y69215000D02*
X24047000Y66065000D01*
X24047000Y66065000D02*
X24547000Y66065000D01*
X24547000Y66065000D02*
X24547000Y69215000D01*
X26497000Y60765000D02*
X26797000Y61365000D01*
X26547000Y69225000D02*
X26547000Y66065000D01*
X26547000Y66065000D02*
X27047000Y66065000D01*
X26797000Y61365000D02*
X27097000Y60765000D01*
X27047000Y66065000D02*
X27047000Y69215000D01*
X27097000Y60765000D02*
X26497000Y60765000D01*
X27937000Y64955000D02*
X23047000Y64955000D01*
X27937000Y60455000D02*
X27937000Y64955000D01*
X29357000Y69215000D02*
X29357000Y60455000D01*
X29357000Y60455000D02*
X27937000Y60455000D01*
%TO.C,R6*%
X18442000Y37750500D02*
X18442000Y31210500D01*
X18442000Y31210500D02*
X21182000Y31210500D01*
X19812000Y38520500D02*
X19812000Y37750500D01*
X19812000Y30440500D02*
X19812000Y31210500D01*
X21182000Y37750500D02*
X18442000Y37750500D01*
X21182000Y31210500D02*
X21182000Y37750500D01*
%TO.C,R2*%
X13867000Y42735500D02*
X14637000Y42735500D01*
X14637000Y44105500D02*
X14637000Y41365500D01*
X14637000Y41365500D02*
X21177000Y41365500D01*
X21177000Y44105500D02*
X14637000Y44105500D01*
X21177000Y41365500D02*
X21177000Y44105500D01*
X21947000Y42735500D02*
X21177000Y42735500D01*
%TO.C,J8*%
X3877000Y30730500D02*
X16697000Y30730500D01*
X3877000Y28130500D02*
X3877000Y30730500D01*
X3877000Y25530500D02*
X3877000Y26860500D01*
X5207000Y25530500D02*
X3877000Y25530500D01*
X6477000Y28130500D02*
X3877000Y28130500D01*
X6477000Y25530500D02*
X6477000Y28130500D01*
X6477000Y25530500D02*
X16697000Y25530500D01*
X16697000Y25530500D02*
X16697000Y30730500D01*
%TO.C,J6*%
X26797000Y45275500D02*
X28067000Y45275500D01*
X26797000Y44005500D02*
X26797000Y45275500D01*
X29109929Y41845500D02*
X29507000Y41845500D01*
X29109929Y41085500D02*
X29507000Y41085500D01*
X29177000Y44385500D02*
X29507000Y44385500D01*
X29177000Y43625500D02*
X29507000Y43625500D01*
X29507000Y45335500D02*
X29507000Y40135500D01*
X29507000Y42735500D02*
X32167000Y42735500D01*
X29507000Y40135500D02*
X32167000Y40135500D01*
X32167000Y45335500D02*
X29507000Y45335500D01*
X32167000Y44385500D02*
X38167000Y44385500D01*
X32167000Y44325500D02*
X38167000Y44325500D01*
X32167000Y44205500D02*
X38167000Y44205500D01*
X32167000Y44085500D02*
X38167000Y44085500D01*
X32167000Y43965500D02*
X38167000Y43965500D01*
X32167000Y43845500D02*
X38167000Y43845500D01*
X32167000Y43725500D02*
X38167000Y43725500D01*
X32167000Y41845500D02*
X38167000Y41845500D01*
X32167000Y40135500D02*
X32167000Y45335500D01*
X38167000Y44385500D02*
X38167000Y43625500D01*
X38167000Y43625500D02*
X32167000Y43625500D01*
X38167000Y41845500D02*
X38167000Y41085500D01*
X38167000Y41085500D02*
X32167000Y41085500D01*
%TO.C,R3*%
X13867000Y46545500D02*
X14637000Y46545500D01*
X14637000Y47915500D02*
X14637000Y45175500D01*
X14637000Y45175500D02*
X21177000Y45175500D01*
X21177000Y47915500D02*
X14637000Y47915500D01*
X21177000Y45175500D02*
X21177000Y47915500D01*
X21947000Y46545500D02*
X21177000Y46545500D01*
%TO.C,R4*%
X5612000Y13525500D02*
X6382000Y13525500D01*
X6382000Y14895500D02*
X6382000Y12155500D01*
X6382000Y12155500D02*
X12922000Y12155500D01*
X12922000Y14895500D02*
X6382000Y14895500D01*
X12922000Y12155500D02*
X12922000Y14895500D01*
X13692000Y13525500D02*
X12922000Y13525500D01*
%TO.C,J5*%
X23562000Y26920500D02*
X23562000Y24260500D01*
X28702000Y26920500D02*
X23562000Y26920500D01*
X28702000Y26920500D02*
X28702000Y24260500D01*
X28702000Y24260500D02*
X23562000Y24260500D01*
X29972000Y26920500D02*
X31302000Y26920500D01*
X31302000Y26920500D02*
X31302000Y25590500D01*
%TO.C,SW2*%
X19487000Y18430500D02*
X19487000Y16930500D01*
X20737000Y14430500D02*
X25237000Y14430500D01*
X25237000Y20930500D02*
X20737000Y20930500D01*
X26487000Y16930500D02*
X26487000Y18430500D01*
%TO.C,J4*%
X11497000Y10410500D02*
X12827000Y10410500D01*
X11497000Y9080500D02*
X11497000Y10410500D01*
X11497000Y7810500D02*
X11497000Y5210500D01*
X11497000Y7810500D02*
X14157000Y7810500D01*
X11497000Y5210500D02*
X14157000Y5210500D01*
X14157000Y7810500D02*
X14157000Y5210500D01*
%TO.C,D3*%
X38896000Y50065500D02*
X39052000Y50065500D01*
X41212000Y50065500D02*
X41368000Y50065500D01*
X38896484Y50065500D02*
G75*
G02*
X39051939Y53296897I1235516J1560000D01*
G01*
X39052000Y50584539D02*
G75*
G02*
X39051951Y52666410I1080000J1040961D01*
G01*
X41212049Y52666410D02*
G75*
G02*
X41212000Y50584539I-1080049J-1040910D01*
G01*
X41212061Y53296897D02*
G75*
G02*
X41367516Y50065500I-1080061J-1671397D01*
G01*
%TO.C,J3*%
X31817000Y10410500D02*
X33147000Y10410500D01*
X31817000Y9080500D02*
X31817000Y10410500D01*
X31817000Y7810500D02*
X31817000Y5210500D01*
X31817000Y7810500D02*
X34477000Y7810500D01*
X31817000Y5210500D02*
X34477000Y5210500D01*
X34477000Y7810500D02*
X34477000Y5210500D01*
%TO.C,C2*%
X30870225Y63705000D02*
X31370225Y63705000D01*
X31120225Y63955000D02*
X31120225Y63455000D01*
X33675000Y64810000D02*
X33675000Y59650000D01*
X33715000Y64810000D02*
X33715000Y59650000D01*
X33755000Y64809000D02*
X33755000Y59651000D01*
X33795000Y64808000D02*
X33795000Y59652000D01*
X33835000Y64806000D02*
X33835000Y59654000D01*
X33875000Y64803000D02*
X33875000Y59657000D01*
X33915000Y64799000D02*
X33915000Y63270000D01*
X33915000Y61190000D02*
X33915000Y59661000D01*
X33955000Y64795000D02*
X33955000Y63270000D01*
X33955000Y61190000D02*
X33955000Y59665000D01*
X33995000Y64791000D02*
X33995000Y63270000D01*
X33995000Y61190000D02*
X33995000Y59669000D01*
X34035000Y64786000D02*
X34035000Y63270000D01*
X34035000Y61190000D02*
X34035000Y59674000D01*
X34075000Y64780000D02*
X34075000Y63270000D01*
X34075000Y61190000D02*
X34075000Y59680000D01*
X34115000Y64773000D02*
X34115000Y63270000D01*
X34115000Y61190000D02*
X34115000Y59687000D01*
X34155000Y64766000D02*
X34155000Y63270000D01*
X34155000Y61190000D02*
X34155000Y59694000D01*
X34195000Y64758000D02*
X34195000Y63270000D01*
X34195000Y61190000D02*
X34195000Y59702000D01*
X34235000Y64750000D02*
X34235000Y63270000D01*
X34235000Y61190000D02*
X34235000Y59710000D01*
X34275000Y64741000D02*
X34275000Y63270000D01*
X34275000Y61190000D02*
X34275000Y59719000D01*
X34315000Y64731000D02*
X34315000Y63270000D01*
X34315000Y61190000D02*
X34315000Y59729000D01*
X34355000Y64721000D02*
X34355000Y63270000D01*
X34355000Y61190000D02*
X34355000Y59739000D01*
X34396000Y64710000D02*
X34396000Y63270000D01*
X34396000Y61190000D02*
X34396000Y59750000D01*
X34436000Y64698000D02*
X34436000Y63270000D01*
X34436000Y61190000D02*
X34436000Y59762000D01*
X34476000Y64685000D02*
X34476000Y63270000D01*
X34476000Y61190000D02*
X34476000Y59775000D01*
X34516000Y64672000D02*
X34516000Y63270000D01*
X34516000Y61190000D02*
X34516000Y59788000D01*
X34556000Y64658000D02*
X34556000Y63270000D01*
X34556000Y61190000D02*
X34556000Y59802000D01*
X34596000Y64644000D02*
X34596000Y63270000D01*
X34596000Y61190000D02*
X34596000Y59816000D01*
X34636000Y64628000D02*
X34636000Y63270000D01*
X34636000Y61190000D02*
X34636000Y59832000D01*
X34676000Y64612000D02*
X34676000Y63270000D01*
X34676000Y61190000D02*
X34676000Y59848000D01*
X34716000Y64595000D02*
X34716000Y63270000D01*
X34716000Y61190000D02*
X34716000Y59865000D01*
X34756000Y64578000D02*
X34756000Y63270000D01*
X34756000Y61190000D02*
X34756000Y59882000D01*
X34796000Y64559000D02*
X34796000Y63270000D01*
X34796000Y61190000D02*
X34796000Y59901000D01*
X34836000Y64540000D02*
X34836000Y63270000D01*
X34836000Y61190000D02*
X34836000Y59920000D01*
X34876000Y64520000D02*
X34876000Y63270000D01*
X34876000Y61190000D02*
X34876000Y59940000D01*
X34916000Y64498000D02*
X34916000Y63270000D01*
X34916000Y61190000D02*
X34916000Y59962000D01*
X34956000Y64477000D02*
X34956000Y63270000D01*
X34956000Y61190000D02*
X34956000Y59983000D01*
X34996000Y64454000D02*
X34996000Y63270000D01*
X34996000Y61190000D02*
X34996000Y60006000D01*
X35036000Y64430000D02*
X35036000Y63270000D01*
X35036000Y61190000D02*
X35036000Y60030000D01*
X35076000Y64405000D02*
X35076000Y63270000D01*
X35076000Y61190000D02*
X35076000Y60055000D01*
X35116000Y64379000D02*
X35116000Y63270000D01*
X35116000Y61190000D02*
X35116000Y60081000D01*
X35156000Y64352000D02*
X35156000Y63270000D01*
X35156000Y61190000D02*
X35156000Y60108000D01*
X35196000Y64325000D02*
X35196000Y63270000D01*
X35196000Y61190000D02*
X35196000Y60135000D01*
X35236000Y64295000D02*
X35236000Y63270000D01*
X35236000Y61190000D02*
X35236000Y60165000D01*
X35276000Y64265000D02*
X35276000Y63270000D01*
X35276000Y61190000D02*
X35276000Y60195000D01*
X35316000Y64234000D02*
X35316000Y63270000D01*
X35316000Y61190000D02*
X35316000Y60226000D01*
X35356000Y64201000D02*
X35356000Y63270000D01*
X35356000Y61190000D02*
X35356000Y60259000D01*
X35396000Y64167000D02*
X35396000Y63270000D01*
X35396000Y61190000D02*
X35396000Y60293000D01*
X35436000Y64131000D02*
X35436000Y63270000D01*
X35436000Y61190000D02*
X35436000Y60329000D01*
X35476000Y64094000D02*
X35476000Y63270000D01*
X35476000Y61190000D02*
X35476000Y60366000D01*
X35516000Y64056000D02*
X35516000Y63270000D01*
X35516000Y61190000D02*
X35516000Y60404000D01*
X35556000Y64015000D02*
X35556000Y63270000D01*
X35556000Y61190000D02*
X35556000Y60445000D01*
X35596000Y63973000D02*
X35596000Y63270000D01*
X35596000Y61190000D02*
X35596000Y60487000D01*
X35636000Y63929000D02*
X35636000Y63270000D01*
X35636000Y61190000D02*
X35636000Y60531000D01*
X35676000Y63883000D02*
X35676000Y63270000D01*
X35676000Y61190000D02*
X35676000Y60577000D01*
X35716000Y63835000D02*
X35716000Y63270000D01*
X35716000Y61190000D02*
X35716000Y60625000D01*
X35756000Y63784000D02*
X35756000Y63270000D01*
X35756000Y61190000D02*
X35756000Y60676000D01*
X35796000Y63730000D02*
X35796000Y63270000D01*
X35796000Y61190000D02*
X35796000Y60730000D01*
X35836000Y63673000D02*
X35836000Y63270000D01*
X35836000Y61190000D02*
X35836000Y60787000D01*
X35876000Y63613000D02*
X35876000Y63270000D01*
X35876000Y61190000D02*
X35876000Y60847000D01*
X35916000Y63549000D02*
X35916000Y63270000D01*
X35916000Y61190000D02*
X35916000Y60911000D01*
X35956000Y63481000D02*
X35956000Y63270000D01*
X35956000Y61190000D02*
X35956000Y60979000D01*
X35996000Y63408000D02*
X35996000Y61052000D01*
X36036000Y63328000D02*
X36036000Y61132000D01*
X36076000Y63241000D02*
X36076000Y61219000D01*
X36116000Y63145000D02*
X36116000Y61315000D01*
X36156000Y63035000D02*
X36156000Y61425000D01*
X36196000Y62907000D02*
X36196000Y61553000D01*
X36236000Y62748000D02*
X36236000Y61712000D01*
X36276000Y62514000D02*
X36276000Y61946000D01*
X36295000Y62230000D02*
G75*
G02*
X31055000Y62230000I-2620000J0D01*
G01*
X31055000Y62230000D02*
G75*
G02*
X36295000Y62230000I2620000J0D01*
G01*
%TO.C,U1*%
X29972000Y37865500D02*
X27772000Y37865500D01*
X29972000Y37865500D02*
X32172000Y37865500D01*
X29972000Y31095500D02*
X27772000Y31095500D01*
X29972000Y31095500D02*
X32172000Y31095500D01*
X26112000Y37405500D02*
X25782000Y37165500D01*
X25782000Y37645500D01*
X26112000Y37405500D01*
G36*
X26112000Y37405500D02*
G01*
X25782000Y37165500D01*
X25782000Y37645500D01*
X26112000Y37405500D01*
G37*
%TO.C,J7*%
X16677000Y10538000D02*
X18097000Y10538000D01*
X16677000Y1778000D02*
X16677000Y10538000D01*
X18097000Y10538000D02*
X18097000Y6038000D01*
X18097000Y6038000D02*
X22987000Y6038000D01*
X18937000Y10228000D02*
X19537000Y10228000D01*
X18987000Y4928000D02*
X18987000Y1778000D01*
X19237000Y9628000D02*
X18937000Y10228000D01*
X19487000Y4928000D02*
X18987000Y4928000D01*
X19487000Y1768000D02*
X19487000Y4928000D01*
X19537000Y10228000D02*
X19237000Y9628000D01*
X21487000Y4928000D02*
X21487000Y1778000D01*
X21987000Y4928000D02*
X21487000Y4928000D01*
X21987000Y1778000D02*
X21987000Y4928000D01*
X23987000Y4928000D02*
X23987000Y1778000D01*
X24487000Y4928000D02*
X23987000Y4928000D01*
X24487000Y1778000D02*
X24487000Y4928000D01*
X26487000Y4928000D02*
X26487000Y1778000D01*
X26987000Y4928000D02*
X26487000Y4928000D01*
X26987000Y1778000D02*
X26987000Y4928000D01*
X27877000Y10538000D02*
X27877000Y6038000D01*
X27877000Y6038000D02*
X22987000Y6038000D01*
X29297000Y10538000D02*
X27877000Y10538000D01*
X29297000Y1778000D02*
X29297000Y10538000D01*
%TO.C,R5*%
X32282000Y13525500D02*
X33052000Y13525500D01*
X33052000Y14895500D02*
X33052000Y12155500D01*
X33052000Y12155500D02*
X39592000Y12155500D01*
X39592000Y14895500D02*
X33052000Y14895500D01*
X39592000Y12155500D02*
X39592000Y14895500D01*
X40362000Y13525500D02*
X39592000Y13525500D01*
%TO.C,D2*%
X4606000Y37365500D02*
X4762000Y37365500D01*
X6922000Y37365500D02*
X7078000Y37365500D01*
X4606484Y37365500D02*
G75*
G02*
X4761939Y40596897I1235516J1560000D01*
G01*
X4762000Y37884539D02*
G75*
G02*
X4761951Y39966410I1080000J1040961D01*
G01*
X6922049Y39966410D02*
G75*
G02*
X6922000Y37884539I-1080049J-1040910D01*
G01*
X6922061Y40596897D02*
G75*
G02*
X7077516Y37365500I-1080061J-1671397D01*
G01*
%TD*%
M02*
