M48
; DRILL file {KiCad 8.0.7} date 2025-01-23T14:45:09+0900
; FORMAT={-:-/ absolute / metric / decimal}
; #@! TF.CreationDate,2025-01-23T14:45:09+09:00
; #@! TF.GenerationSoftware,Kicad,Pcbnew,8.0.7
; #@! TF.FileFunction,Plated,1,2,PTH
FMAT,2
METRIC
; #@! TA.AperFunction,Plated,PTH,ViaDrill
T1C0.300
; #@! TA.AperFunction,Plated,PTH,ComponentDrill
T2C0.800
; #@! TA.AperFunction,Plated,PTH,ComponentDrill
T3C0.900
; #@! TA.AperFunction,Plated,PTH,ComponentDrill
T4C1.000
; #@! TA.AperFunction,Plated,PTH,ComponentDrill
T5C1.100
%
G90
G05
T1
X6.477Y34.48
X9.017Y34.48
X12.192Y34.48
X14.605Y39.179
X14.732Y33.846
X16.256Y39.179
X17.907Y37.655
X17.907Y27.495
X18.542Y38.291
X28.702Y32.575
X29.21Y47.307
X29.21Y45.783
X30.607Y48.45
X30.607Y36.105
X30.861Y32.067
X31.623Y31.559
X32.512Y48.45
X32.715Y24.101
X34.417Y35.115
X34.417Y32.575
T2
X4.572Y13.525
X12.827Y50.355
X12.827Y46.545
X12.827Y42.735
X14.732Y13.525
X19.812Y39.56
X19.812Y29.4
X22.987Y50.355
X22.987Y46.545
X22.987Y42.735
X23.622Y32.535
X23.622Y30.035
X31.242Y13.525
X32.425Y62.23
X34.925Y62.23
X41.402Y13.525
T3
X5.842Y50.355
X5.842Y47.816
X5.842Y40.195
X5.842Y37.655
X40.132Y52.895
X40.132Y50.355
T4
X5.207Y29.4
X5.207Y26.86
X7.747Y29.4
X7.747Y26.86
X10.287Y29.4
X10.287Y26.86
X12.827Y29.4
X12.827Y26.86
X12.827Y9.08
X12.827Y6.54
X15.367Y29.4
X15.367Y26.86
X19.187Y56.07
X19.237Y8.128
X19.297Y62.865
X21.727Y56.07
X21.737Y8.128
X21.797Y62.865
X24.237Y8.128
X24.267Y56.07
X24.297Y62.865
X24.892Y25.59
X26.737Y8.128
X26.797Y62.865
X26.807Y56.07
X27.432Y25.59
X28.067Y44.005
X28.067Y41.465
X29.972Y25.59
X33.147Y9.08
X33.147Y6.54
T5
X4.497Y22.125
X4.497Y17.625
X10.997Y22.125
X10.997Y17.625
X19.737Y19.93
X19.737Y15.43
X26.237Y19.93
X26.237Y15.43
X34.902Y22.125
X34.902Y17.625
X41.402Y22.125
X41.402Y17.625
M30
