M48
; DRILL file {KiCad 8.0.6} date 2024-12-13T17:14:21+0900
; FORMAT={-:-/ absolute / metric / decimal}
; #@! TF.CreationDate,2024-12-13T17:14:21+09:00
; #@! TF.GenerationSoftware,Kicad,Pcbnew,8.0.6
; #@! TF.FileFunction,Plated,1,2,PTH
FMAT,2
METRIC
; #@! TA.AperFunction,Plated,PTH,ViaDrill
T1C0.300
; #@! TA.AperFunction,Plated,PTH,ViaDrill
T2C0.400
; #@! TA.AperFunction,Plated,PTH,ComponentDrill
T3C0.700
; #@! TA.AperFunction,Plated,PTH,ComponentDrill
T4C0.800
; #@! TA.AperFunction,Plated,PTH,ComponentDrill
T5C0.900
; #@! TA.AperFunction,Plated,PTH,ComponentDrill
T6C1.000
; #@! TA.AperFunction,Plated,PTH,ComponentDrill
T7C1.100
; #@! TA.AperFunction,Plated,PTH,ComponentDrill
T8C2.300
%
G90
G05
T1
X21.986Y56.276
X22.225Y41.91
X23.49Y32.14
X23.495Y67.31
X23.495Y66.04
X24.13Y69.215
X24.13Y43.815
X24.765Y46.355
X24.765Y45.085
X24.765Y42.545
X27.514Y46.507
X28.575Y47.625
X28.575Y46.355
X29.21Y75.7
X29.21Y36.745
X29.845Y49.53
X30.48Y76.32
X30.531Y13.535
X30.693Y23.237
X31.115Y67.945
X32.256Y77.069
X33.655Y42.545
X33.655Y13.335
X34.29Y35.695
X34.72Y78.777
X35.56Y76.2
X36.195Y79.375
X36.195Y69.215
X36.951Y12.821
X38.1Y31.115
X39.37Y13.97
X41.275Y67.945
X41.91Y14.405
X41.915Y13.366
X42.545Y30.48
X43.18Y64.409
X43.18Y29.845
X43.815Y30.48
X45.72Y13.97
X46.355Y64.135
X47.625Y63.5
X47.625Y28.575
X48.26Y13.97
X48.895Y28.575
X50.165Y62.865
X50.8Y16.665
X50.8Y13.97
X52.014Y19.871
X52.758Y17.473
X53.34Y62.23
X55.88Y13.335
X56.515Y27.94
X58.748Y32.595
X59.055Y13.335
X60.96Y36.83
X62.23Y13.335
X63.5Y27.305
X66.099Y32.175
X68.538Y39.069
X71.12Y19.939
X71.469Y16.256
X72.39Y48.895
X72.39Y13.335
X74.241Y39.504
X74.295Y13.335
X74.915Y30.17
X75.565Y40.005
X76.835Y39.37
X76.835Y29.845
X76.835Y13.335
X77.47Y29.21
X78.74Y62.23
X81.28Y57.15
X83.83Y28.314
X84.455Y13.97
X85.09Y50.8
X86.36Y59.055
X86.36Y31.75
X86.36Y28.13
X86.677Y40.957
X86.88Y41.91
X87.63Y63.817
X89.311Y24.069
X93.98Y40.005
X93.98Y23.86
X93.98Y13.97
X95.25Y35.94
X95.885Y23.495
X95.885Y22.6
X97.386Y71.695
X97.79Y35.956
X99.06Y69.215
X100.315Y31.849
X100.965Y64.135
X101.958Y33.213
X103.662Y64.292
X104.525Y49.031
X106.68Y35.695
X107.315Y64.77
X107.916Y65.328
X107.95Y62.23
X111.125Y52.705
X112.253Y51.625
X112.649Y40.259
X116.84Y15.875
X118.745Y40.005
X120.015Y19.05
X120.65Y20.32
X120.65Y14.605
T2
X17.145Y60.96
X18.415Y44.33
X19.685Y55.245
X19.685Y50.8
X19.685Y33.655
X20.955Y53.975
X24.765Y34.925
X24.9Y27.305
X26.244Y15.24
X26.67Y16.51
X28.575Y60.96
X28.575Y53.975
X28.87Y14.007
X31.75Y50.8
X31.75Y34.925
X31.75Y33.655
X33.565Y49.074
X36.83Y53.975
X38.735Y50.8
X38.735Y33.02
X41.91Y55.245
X41.91Y50.8
X41.91Y39.688
X42.291Y35.6
X44.45Y73.025
X44.65Y34.548
X46.99Y20.955
X47.625Y34.925
X47.927Y31.558
X48.006Y36.195
X50.796Y27.614
X52.705Y34.205
X54.604Y21.625
X54.61Y55.245
X54.61Y50.8
X54.61Y35.56
X57.15Y53.975
X58.42Y74.93
X59.69Y27.305
X60.958Y20.701
X60.96Y74.93
X60.96Y53.975
X63.5Y53.975
X64.135Y71.755
X65.532Y35.141
X66.728Y70.186
X67.31Y55.245
X67.31Y50.8
X71.731Y21.59
X72.128Y20.365
X72.771Y33.909
X73.66Y20.599
X79.989Y34.733
X80.01Y55.245
X80.01Y50.165
X80.019Y21.625
X82.55Y34.036
X83.185Y70.231
X86.36Y20.855
X87.63Y12.7
X88.265Y34.733
X88.909Y20.855
X89.282Y43.18
X90.17Y12.7
X92.71Y48.26
X92.71Y34.036
X95.25Y12.7
X96.752Y70.228
X98.975Y29.21
X102.87Y34.925
X102.87Y22.86
X107.164Y70.475
X107.315Y12.7
X108.655Y70.475
X113.03Y34.925
X113.665Y62.23
X113.665Y48.26
X115.655Y62.865
X118.11Y12.7
X119.38Y21.59
X119.887Y24.002
X122.32Y35.56
X123.19Y22.86
T3
X18.415Y28.575
X18.415Y26.035
X18.415Y22.225
X18.415Y19.685
X22.225Y22.86
X22.225Y19.685
X24.765Y22.86
X24.765Y19.685
X27.94Y31.115
X27.94Y28.575
X29.21Y83.82
X31.75Y83.82
X31.75Y62.23
X31.75Y59.69
X34.29Y83.82
X36.83Y83.82
X66.675Y74.93
X66.675Y72.39
X75.565Y80.01
X75.565Y77.47
X78.74Y80.01
X78.74Y77.47
X81.915Y80.01
X81.915Y77.47
X85.09Y80.01
X85.09Y77.47
X88.265Y80.01
X88.265Y77.47
X88.265Y60.96
X88.265Y58.42
X91.44Y80.01
X91.44Y77.47
X92.71Y60.96
X95.25Y60.96
X95.25Y57.785
X95.25Y55.245
X98.425Y57.785
X98.425Y55.245
X109.805Y57.785
X109.855Y64.135
X109.855Y60.96
X109.855Y54.61
X112.345Y57.785
X112.395Y64.135
X112.395Y60.96
X112.395Y54.61
T4
X13.97Y25.4
X13.97Y20.32
X19.05Y37.465
X21.55Y37.465
X25.4Y74.93
X25.4Y72.43
X27.94Y24.13
X27.94Y21.63
X29.21Y81.28
X29.21Y66.04
X29.21Y40.005
X31.71Y40.005
X31.75Y81.28
X31.75Y66.04
X31.75Y25.4
X31.75Y17.78
X34.29Y81.28
X34.29Y66.04
X34.29Y25.4
X34.29Y17.78
X36.83Y81.28
X36.83Y66.04
X36.83Y25.4
X36.83Y17.78
X38.735Y38.1
X38.735Y35.6
X39.37Y81.28
X39.37Y66.04
X39.37Y25.4
X39.37Y17.78
X41.91Y81.28
X41.91Y66.04
X41.91Y25.4
X41.91Y17.78
X44.45Y81.28
X44.45Y66.04
X44.45Y25.4
X44.45Y17.78
X46.99Y81.28
X46.99Y66.04
X46.99Y25.4
X46.99Y17.78
X49.53Y81.28
X49.53Y66.04
X50.8Y35.56
X50.8Y33.06
X50.8Y23.495
X50.8Y20.995
X52.07Y81.28
X52.07Y66.04
X54.61Y81.28
X54.61Y66.04
X54.61Y38.1
X54.61Y30.48
X54.61Y25.4
X54.61Y17.78
X57.15Y81.28
X57.15Y66.04
X57.15Y38.1
X57.15Y30.48
X57.15Y25.4
X57.15Y17.78
X59.69Y81.28
X59.69Y66.04
X59.69Y38.1
X59.69Y30.48
X59.69Y25.4
X59.69Y17.78
X62.23Y81.28
X62.23Y66.04
X62.23Y38.1
X62.23Y30.48
X62.23Y25.4
X62.23Y17.78
X64.77Y38.1
X64.77Y30.48
X64.77Y25.4
X64.77Y17.78
X67.31Y38.1
X67.31Y30.48
X67.31Y25.4
X67.31Y17.78
X69.85Y38.1
X69.85Y30.48
X69.85Y25.4
X69.85Y17.78
X71.755Y73.66
X71.755Y66.04
X72.39Y38.1
X72.39Y30.48
X72.39Y25.4
X72.39Y17.78
X74.295Y73.66
X74.295Y66.04
X76.2Y35.56
X76.2Y33.06
X76.2Y22.86
X76.2Y20.36
X76.835Y73.66
X76.835Y66.04
X79.375Y73.66
X79.375Y66.04
X80.01Y38.1
X80.01Y30.48
X80.01Y25.4
X80.01Y17.78
X82.55Y38.1
X82.55Y30.48
X82.55Y25.4
X82.55Y17.78
X85.09Y38.1
X85.09Y30.48
X85.09Y25.4
X85.09Y17.78
X86.995Y73.66
X86.995Y66.04
X87.63Y38.1
X87.63Y30.48
X87.63Y25.4
X87.63Y17.78
X88.9Y48.26
X88.9Y45.76
X89.535Y73.66
X89.535Y66.04
X90.17Y38.1
X90.17Y30.48
X90.17Y25.4
X90.17Y17.78
X92.075Y73.66
X92.075Y66.04
X92.71Y50.8
X92.71Y43.18
X92.71Y38.1
X92.71Y30.48
X92.71Y25.4
X92.71Y17.78
X94.615Y73.66
X94.615Y66.04
X95.25Y50.8
X95.25Y43.18
X95.25Y38.1
X95.25Y30.48
X95.25Y25.4
X95.25Y17.78
X97.79Y50.8
X97.79Y43.18
X99.06Y35.56
X99.06Y33.06
X99.06Y22.86
X99.06Y20.36
X100.33Y50.8
X100.33Y43.18
X101.6Y57.745
X101.6Y55.245
X101.64Y60.96
X102.87Y50.8
X102.87Y43.18
X102.87Y38.1
X102.87Y30.48
X102.87Y25.4
X102.87Y17.78
X104.14Y60.96
X105.41Y57.745
X105.41Y55.245
X105.41Y50.8
X105.41Y43.18
X105.41Y38.1
X105.41Y30.48
X105.41Y25.4
X105.41Y17.78
X107.95Y50.8
X107.95Y43.18
X107.95Y38.1
X107.95Y30.48
X107.95Y25.4
X107.95Y17.78
X110.49Y50.8
X110.49Y43.18
X110.49Y38.1
X110.49Y30.48
X110.49Y25.4
X110.49Y17.78
X113.03Y38.1
X113.03Y30.48
X113.03Y25.4
X113.03Y17.78
X115.57Y38.1
X115.57Y30.48
X115.57Y25.4
X115.57Y17.78
X118.11Y38.1
X118.11Y30.48
X118.11Y25.4
X118.11Y17.78
T5
X118.11Y67.945
X118.11Y61.595
X118.11Y55.245
X118.11Y48.895
X120.65Y67.945
X120.65Y61.595
X120.65Y55.245
X120.65Y48.895
T6
X6.35Y43.18
X6.35Y40.68
X6.35Y38.18
X6.35Y35.68
X6.35Y24.13
X6.35Y21.63
X6.35Y19.13
X9.906Y71.12
X9.906Y68.62
X9.906Y66.62
X9.906Y64.12
X18.415Y71.12
X18.415Y68.58
X18.415Y66.04
X18.415Y63.5
X24.765Y81.28
X24.765Y78.74
X34.29Y29.845
X36.83Y60.96
X36.83Y43.18
X36.83Y29.845
X39.37Y60.96
X39.37Y43.18
X41.91Y60.96
X41.91Y43.18
X44.45Y60.96
X44.45Y43.18
X46.99Y60.96
X46.99Y43.18
X49.53Y60.96
X49.53Y43.18
X52.07Y60.96
X52.07Y43.18
X54.61Y60.96
X54.61Y43.18
X57.15Y60.96
X57.15Y43.18
X59.69Y60.96
X59.69Y43.18
X62.23Y60.96
X62.23Y43.18
X64.77Y60.96
X64.77Y43.18
X66.675Y81.28
X66.675Y78.74
X67.31Y60.96
X67.31Y43.18
X69.85Y60.96
X69.85Y43.18
X72.39Y60.96
X72.39Y43.18
X74.93Y60.96
X74.93Y43.18
X77.47Y60.96
X77.47Y43.18
X80.01Y60.96
X80.01Y43.18
X82.55Y60.96
X82.55Y43.18
X85.09Y60.96
X85.09Y43.18
X106.045Y78.74
X106.045Y76.2
X106.045Y73.66
X112.465Y83.185
X112.465Y80.645
X112.465Y78.105
X112.465Y75.565
X112.465Y73.025
X115.57Y43.053
X118.11Y43.053
X120.65Y43.053
T7
X95.1Y83.875
X95.1Y79.375
X101.6Y83.875
X101.6Y79.375
T8
X7.196Y74.19
X7.196Y61.05
M30
