%TF.GenerationSoftware,KiCad,Pcbnew,8.0.6*%
%TF.CreationDate,2024-12-13T17:14:26+09:00*%
%TF.ProjectId,S1VirtualFloppy,53315669-7274-4756-916c-466c6f707079,0.1.1*%
%TF.SameCoordinates,PX231fb30PY8f85f18*%
%TF.FileFunction,Profile,NP*%
%FSLAX46Y46*%
G04 Gerber Fmt 4.6, Leading zero omitted, Abs format (unit mm)*
G04 Created by KiCad (PCBNEW 8.0.6) date 2024-12-13 17:14:26*
%MOMM*%
%LPD*%
G01*
G04 APERTURE LIST*
%TA.AperFunction,Profile*%
%ADD10C,0.100000*%
%TD*%
G04 APERTURE END LIST*
D10*
X124460000Y87503000D02*
X124460000Y10287000D01*
X15138400Y7239000D02*
G75*
G02*
X18897600Y7239000I1879600J0D01*
G01*
X124460000Y10287000D02*
X120396000Y10287000D01*
X15138400Y81661000D02*
X15138400Y87503000D01*
X21844000Y1651000D02*
X18897600Y1651000D01*
X18897600Y7239000D02*
X18897600Y1651000D01*
X21844000Y10287000D02*
X21844000Y1651000D01*
X27686000Y0D02*
X26924000Y762000D01*
X119634000Y0D02*
X27686000Y0D01*
X18897600Y81661000D02*
X18897600Y87503000D01*
X15138400Y1651000D02*
X0Y1651000D01*
X0Y87503000D02*
X15138400Y87503000D01*
X26924000Y10287000D02*
X21844000Y10287000D01*
X120396000Y762000D02*
X119634000Y0D01*
X18897600Y87503000D02*
X124460000Y87503000D01*
X26924000Y762000D02*
X26924000Y10287000D01*
X120396000Y10287000D02*
X120396000Y762000D01*
X15138400Y7239000D02*
X15138400Y1651000D01*
X0Y1651000D02*
X0Y87503000D01*
X18897600Y81661000D02*
G75*
G02*
X15138400Y81661000I-1879600J0D01*
G01*
M02*
