M48
; DRILL file {KiCad 8.0.6} date 2024-12-13T16:59:34+0900
; FORMAT={-:-/ absolute / metric / decimal}
; #@! TF.CreationDate,2024-12-13T16:59:34+09:00
; #@! TF.GenerationSoftware,Kicad,Pcbnew,8.0.6
; #@! TF.FileFunction,Plated,1,2,PTH
FMAT,2
METRIC
; #@! TA.AperFunction,Plated,PTH,ViaDrill
T1C0.300
; #@! TA.AperFunction,Plated,PTH,ViaDrill
T2C0.400
; #@! TA.AperFunction,Plated,PTH,ComponentDrill
T3C0.700
; #@! TA.AperFunction,Plated,PTH,ComponentDrill
T4C0.800
; #@! TA.AperFunction,Plated,PTH,ComponentDrill
T5C0.900
; #@! TA.AperFunction,Plated,PTH,ComponentDrill
T6C1.000
; #@! TA.AperFunction,Plated,PTH,ComponentDrill
T7C1.100
; #@! TA.AperFunction,Plated,PTH,ComponentDrill
T8C2.300
%
G90
G05
T1
X17.78Y42.545
X18.855Y56.38
X19.013Y33.226
X19.685Y44.45
X20.32Y46.99
X20.32Y45.72
X20.32Y43.18
X22.992Y65.908
X23.069Y47.142
X23.775Y66.607
X24.13Y49.137
X24.13Y48.26
X24.13Y46.99
X25.4Y37.38
X26.086Y14.17
X26.113Y68.35
X26.375Y28.861
X29.21Y13.97
X29.225Y42.672
X29.845Y67.31
X29.845Y36.33
X30.48Y75.565
X30.48Y69.215
X31.75Y76.2
X32.506Y13.456
X32.97Y76.835
X33.85Y77.906
X34.29Y13.97
X35.56Y78.74
X35.56Y29.966
X36.195Y74.93
X36.245Y14.02
X37.465Y13.843
X39.243Y29.21
X40.202Y29.21
X41.212Y29.273
X41.275Y68.58
X41.275Y13.97
X43.116Y63.564
X43.815Y27.813
X43.815Y13.97
X45.085Y62.611
X45.57Y27.906
X46.355Y62.991
X46.476Y19.171
X46.736Y13.843
X46.811Y62.166
X46.975Y17.486
X49.53Y61.595
X50.115Y17.387
X51.435Y13.97
X54.483Y27.94
X54.61Y13.97
X56.388Y32.766
X57.785Y13.589
X59.29Y27.94
X59.296Y36.347
X60.21Y24.004
X60.325Y14.351
X62.206Y36.612
X62.865Y31.877
X64.135Y78.74
X66.98Y19.67
X67.945Y38.989
X67.945Y36.83
X68.58Y13.97
X69.85Y33.655
X69.85Y13.97
X70.612Y38.989
X71.755Y30.319
X72.39Y13.97
X74.295Y29.337
X74.644Y30.448
X74.93Y61.595
X74.945Y38.962
X77.47Y57.785
X80.01Y28.145
X80.01Y13.97
X81.915Y49.53
X81.951Y28.052
X83.185Y59.055
X83.185Y42.545
X83.185Y41.275
X83.185Y31.373
X87.63Y23.17
X89.106Y24.095
X90.805Y22.86
X91.704Y35.73
X92.075Y22.86
X93.345Y71.105
X93.98Y39.759
X95.115Y38.039
X95.504Y69.85
X95.758Y30.861
X97.155Y63.5
X97.409Y31.369
X99.695Y67.31
X100.33Y66.448
X100.965Y49.212
X102.62Y35.75
X103.383Y64.74
X103.948Y65.334
X104.256Y60.96
X106.045Y53.34
X108.839Y52.705
X110.49Y40.64
X113.48Y15.425
X113.665Y40.64
T2
X14.605Y35.56
X15.24Y59.055
X15.24Y55.245
X15.24Y52.07
X15.24Y44.965
X16.51Y54.356
X17.145Y61.595
X17.145Y33.655
X19.488Y37.276
X20.066Y61.595
X21.799Y15.969
X22.225Y17.145
X24.345Y14.381
X24.765Y61.595
X24.765Y58.42
X24.997Y54.356
X26.67Y52.07
X27.305Y35.56
X28.575Y33.655
X29.21Y49.657
X33.02Y54.356
X34.29Y51.435
X36.125Y32.061
X38.1Y55.38
X38.1Y51.435
X38.1Y40.64
X38.369Y34.926
X41.275Y33.655
X43.815Y20.955
X44.45Y73.025
X45.085Y36.703
X45.105Y34.925
X45.107Y31.358
X49.53Y34.29
X50.8Y55.88
X50.8Y51.435
X51.435Y35.56
X51.435Y21.554
X54.61Y54.61
X55.245Y20.44
X55.245Y16.764
X57.15Y74.016
X57.15Y54.61
X57.15Y35.56
X59.69Y74.016
X59.69Y54.61
X60.833Y35.066
X63.5Y55.88
X63.5Y51.435
X66.04Y71.12
X66.359Y21.314
X68.132Y20.44
X70.265Y20.44
X76.2Y55.88
X76.2Y50.165
X76.835Y34.84
X76.962Y20.955
X77.089Y75.565
X79.248Y69.469
X79.375Y33.909
X81.788Y20.066
X83.185Y13.335
X85.725Y34.84
X85.725Y20.066
X85.725Y13.335
X86.021Y61.256
X87.82Y33.846
X89.211Y46.393
X89.535Y48.26
X90.805Y13.97
X94.336Y61.116
X94.465Y28.575
X94.615Y68.58
X95.885Y13.97
X96.266Y71.12
X99.695Y34.925
X99.695Y23.495
X102.87Y71.12
X105.918Y70.612
X110.49Y48.26
X110.49Y41.91
X110.532Y62.865
X112.48Y62.865
X112.903Y41.91
X116.105Y34.925
X116.105Y23.495
X117.645Y34.925
X117.645Y23.495
T3
X14.605Y32.385
X14.605Y29.845
X14.605Y26.035
X14.605Y23.495
X17.78Y26.67
X17.78Y23.495
X20.32Y26.67
X20.32Y23.495
X22.86Y73.66
X23.495Y31.75
X23.495Y29.21
X25.4Y73.66
X26.035Y60.96
X26.035Y58.42
X71.12Y80.01
X71.12Y77.47
X74.295Y80.01
X74.295Y77.47
X77.47Y80.01
X77.47Y77.47
X80.645Y80.01
X80.645Y77.47
X83.82Y80.06
X83.82Y77.52
X85.725Y59.055
X85.725Y56.515
X86.995Y80.06
X86.995Y77.52
X89.535Y60.325
X90.17Y80.06
X90.17Y77.52
X90.17Y56.515
X90.17Y53.975
X92.075Y60.325
X93.345Y80.06
X93.345Y77.52
X93.98Y56.515
X93.98Y53.975
X106.045Y64.77
X106.045Y61.595
X106.045Y58.42
X106.045Y55.245
X108.585Y64.77
X108.585Y61.595
X108.585Y58.42
X108.585Y55.245
T4
X11.43Y31.115
X11.43Y26.035
X14.605Y38.1
X17.105Y38.1
X23.495Y70.485
X23.495Y67.985
X24.765Y40.64
X24.765Y22.225
X24.765Y19.725
X27.265Y40.64
X28.57Y25.41
X28.57Y17.79
X29.21Y80.01
X29.21Y64.77
X31.11Y25.41
X31.11Y17.79
X31.75Y80.01
X31.75Y64.77
X33.65Y25.41
X33.65Y17.79
X34.29Y80.01
X34.29Y64.77
X35.56Y38.1
X35.56Y35.6
X36.19Y25.41
X36.19Y17.79
X36.83Y80.01
X36.83Y64.77
X38.73Y25.41
X38.73Y17.79
X39.37Y80.01
X39.37Y64.77
X41.27Y25.41
X41.27Y17.79
X41.91Y80.01
X41.91Y64.77
X43.81Y25.41
X43.81Y17.79
X44.45Y80.01
X44.45Y64.77
X46.99Y80.01
X46.99Y64.77
X47.625Y35.56
X47.625Y33.06
X47.625Y22.86
X47.625Y20.36
X49.53Y80.01
X49.53Y64.77
X51.435Y38.1
X51.435Y30.48
X51.435Y25.4
X51.435Y17.78
X52.07Y80.01
X52.07Y64.77
X53.975Y38.1
X53.975Y30.48
X53.975Y25.4
X53.975Y17.78
X54.61Y80.01
X54.61Y64.77
X56.515Y38.1
X56.515Y30.48
X56.515Y25.4
X56.515Y17.78
X57.15Y80.01
X57.15Y64.77
X59.055Y38.1
X59.055Y30.48
X59.055Y25.4
X59.055Y17.78
X59.69Y80.01
X59.69Y64.77
X61.595Y38.1
X61.595Y30.48
X61.595Y25.4
X61.595Y17.78
X62.23Y80.01
X62.23Y64.77
X64.135Y38.1
X64.135Y30.48
X64.135Y25.4
X64.135Y17.78
X66.675Y38.1
X66.675Y30.48
X66.675Y25.4
X66.675Y17.78
X68.58Y73.025
X68.58Y65.405
X69.215Y38.1
X69.215Y30.48
X69.215Y25.4
X69.215Y17.78
X71.12Y73.025
X71.12Y65.405
X73.025Y35.56
X73.025Y33.06
X73.025Y22.225
X73.025Y19.725
X73.66Y73.025
X73.66Y65.405
X76.2Y73.025
X76.2Y65.405
X76.835Y38.1
X76.835Y30.48
X76.835Y25.4
X76.835Y17.78
X79.375Y38.1
X79.375Y30.48
X79.375Y25.4
X79.375Y17.78
X81.915Y38.1
X81.915Y30.48
X81.915Y25.4
X81.915Y17.78
X83.82Y73.025
X83.82Y65.405
X84.455Y38.1
X84.455Y30.48
X84.455Y25.4
X84.455Y17.78
X85.725Y48.26
X85.725Y45.76
X86.36Y73.025
X86.36Y65.405
X86.995Y38.1
X86.995Y30.48
X86.995Y25.4
X86.995Y17.78
X88.9Y73.025
X88.9Y65.405
X89.535Y50.8
X89.535Y43.18
X89.535Y38.1
X89.535Y30.48
X89.535Y25.4
X89.535Y17.78
X91.44Y73.025
X91.44Y65.405
X92.075Y50.8
X92.075Y43.18
X92.075Y38.1
X92.075Y30.48
X92.075Y25.4
X92.075Y17.78
X94.615Y50.8
X94.615Y43.18
X95.885Y36.195
X95.885Y33.695
X95.885Y22.86
X95.885Y20.36
X97.155Y50.8
X97.155Y43.18
X97.79Y56.475
X97.79Y53.975
X98.465Y60.96
X99.695Y50.8
X99.695Y43.18
X99.695Y38.1
X99.695Y30.48
X99.695Y25.4
X99.695Y17.78
X100.965Y60.96
X101.6Y56.475
X101.6Y53.975
X102.235Y50.8
X102.235Y43.18
X102.235Y38.1
X102.235Y30.48
X102.235Y25.4
X102.235Y17.78
X104.775Y50.8
X104.775Y43.18
X104.775Y38.1
X104.775Y30.48
X104.775Y25.4
X104.775Y17.78
X107.315Y50.8
X107.315Y43.18
X107.315Y38.1
X107.315Y30.48
X107.315Y25.4
X107.315Y17.78
X109.855Y38.1
X109.855Y30.48
X109.855Y25.4
X109.855Y17.78
X112.395Y38.1
X112.395Y30.48
X112.395Y25.4
X112.395Y17.78
X114.935Y38.1
X114.935Y30.48
X114.935Y25.4
X114.935Y17.78
T5
X113.665Y65.405
X113.665Y59.055
X113.665Y52.705
X113.665Y46.355
X116.205Y65.405
X116.205Y59.055
X116.205Y52.705
X116.205Y46.355
T6
X6.35Y43.18
X6.35Y40.68
X6.35Y38.18
X6.35Y35.68
X6.35Y26.035
X6.35Y23.535
X6.35Y21.035
X10.16Y71.12
X10.16Y68.62
X10.16Y66.62
X10.16Y64.12
X18.415Y71.755
X18.415Y69.215
X18.415Y66.675
X18.415Y64.135
X24.13Y80.01
X24.13Y77.47
X31.115Y30.48
X33.02Y60.325
X33.02Y42.545
X33.655Y30.48
X35.56Y60.325
X35.56Y42.545
X38.1Y60.325
X38.1Y42.545
X40.64Y60.325
X40.64Y42.545
X43.18Y60.325
X43.18Y42.545
X45.72Y60.325
X45.72Y42.545
X48.26Y60.325
X48.26Y42.545
X50.8Y60.325
X50.8Y42.545
X53.34Y60.325
X53.34Y42.545
X55.88Y60.325
X55.88Y42.545
X58.42Y60.325
X58.42Y42.545
X60.96Y60.325
X60.96Y42.545
X63.5Y60.325
X63.5Y42.545
X66.04Y60.325
X66.04Y42.545
X67.31Y80.01
X67.31Y77.47
X68.58Y60.325
X68.58Y42.545
X71.12Y60.325
X71.12Y42.545
X73.66Y60.325
X73.66Y42.545
X76.2Y60.325
X76.2Y42.545
X78.74Y60.325
X78.74Y42.545
X81.28Y60.325
X81.28Y42.545
X109.22Y71.755
X111.76Y71.755
X114.3Y71.755
T7
X98.275Y81.235
X98.275Y76.735
X104.775Y81.235
X104.775Y76.735
T8
X7.45Y74.19
X7.45Y61.05
M30
