%TF.GenerationSoftware,KiCad,Pcbnew,8.0.6*%
%TF.CreationDate,2024-12-13T16:59:30+09:00*%
%TF.ProjectId,L3VirtualFloppy,4c335669-7274-4756-916c-466c6f707079,0.1.1*%
%TF.SameCoordinates,PX2417bf0PY83885d0*%
%TF.FileFunction,Soldermask,Top*%
%TF.FilePolarity,Negative*%
%FSLAX46Y46*%
G04 Gerber Fmt 4.6, Leading zero omitted, Abs format (unit mm)*
G04 Created by KiCad (PCBNEW 8.0.6) date 2024-12-13 16:59:30*
%MOMM*%
%LPD*%
G01*
G04 APERTURE LIST*
G04 Aperture macros list*
%AMRoundRect*
0 Rectangle with rounded corners*
0 $1 Rounding radius*
0 $2 $3 $4 $5 $6 $7 $8 $9 X,Y pos of 4 corners*
0 Add a 4 corners polygon primitive as box body*
4,1,4,$2,$3,$4,$5,$6,$7,$8,$9,$2,$3,0*
0 Add four circle primitives for the rounded corners*
1,1,$1+$1,$2,$3*
1,1,$1+$1,$4,$5*
1,1,$1+$1,$6,$7*
1,1,$1+$1,$8,$9*
0 Add four rect primitives between the rounded corners*
20,1,$1+$1,$2,$3,$4,$5,0*
20,1,$1+$1,$4,$5,$6,$7,0*
20,1,$1+$1,$6,$7,$8,$9,0*
20,1,$1+$1,$8,$9,$2,$3,0*%
G04 Aperture macros list end*
%ADD10RoundRect,0.250000X-0.725000X0.600000X-0.725000X-0.600000X0.725000X-0.600000X0.725000X0.600000X0*%
%ADD11O,1.950000X1.700000*%
%ADD12R,1.600000X1.600000*%
%ADD13C,1.600000*%
%ADD14C,3.000000*%
%ADD15C,1.400000*%
%ADD16O,1.400000X1.400000*%
%ADD17R,1.800000X1.800000*%
%ADD18C,1.800000*%
%ADD19O,1.600000X1.600000*%
%ADD20R,1.700000X1.700000*%
%ADD21O,1.700000X1.700000*%
%ADD22RoundRect,0.100000X0.675000X0.100000X-0.675000X0.100000X-0.675000X-0.100000X0.675000X-0.100000X0*%
%ADD23C,2.000000*%
%ADD24C,1.700000*%
%ADD25RoundRect,0.150000X-0.150000X0.587500X-0.150000X-0.587500X0.150000X-0.587500X0.150000X0.587500X0*%
%ADD26RoundRect,0.150000X-0.587500X-0.150000X0.587500X-0.150000X0.587500X0.150000X-0.587500X0.150000X0*%
%ADD27RoundRect,0.100000X0.100000X-0.675000X0.100000X0.675000X-0.100000X0.675000X-0.100000X-0.675000X0*%
%ADD28RoundRect,0.193182X0.656818X-1.006818X0.656818X1.006818X-0.656818X1.006818X-0.656818X-1.006818X0*%
%ADD29RoundRect,0.250000X0.600000X-0.950000X0.600000X0.950000X-0.600000X0.950000X-0.600000X-0.950000X0*%
G04 APERTURE END LIST*
D10*
%TO.C,J7*%
X6350000Y26035000D03*
D11*
X6350000Y23535000D03*
X6350000Y21035000D03*
%TD*%
D12*
%TO.C,J1*%
X10160000Y71120000D03*
D13*
X10160000Y68620000D03*
X10160000Y66620000D03*
X10160000Y64120000D03*
D14*
X7450000Y74190000D03*
X7450000Y61050000D03*
%TD*%
D10*
%TO.C,J4*%
X6350000Y43180000D03*
D11*
X6350000Y40680000D03*
X6350000Y38180000D03*
X6350000Y35680000D03*
%TD*%
D15*
%TO.C,R3*%
X74295000Y80010000D03*
D16*
X74295000Y77470000D03*
%TD*%
D13*
%TO.C,C10*%
X95885000Y22860000D03*
X95885000Y20360000D03*
%TD*%
D17*
%TO.C,D2*%
X116205000Y59055000D03*
D18*
X113665000Y59055000D03*
%TD*%
D15*
%TO.C,R2*%
X92075000Y60325000D03*
D16*
X89535000Y60325000D03*
%TD*%
D12*
%TO.C,SW3*%
X83820000Y65405000D03*
D19*
X86360000Y65405000D03*
X88900000Y65405000D03*
X91440000Y65405000D03*
X91440000Y73025000D03*
X88900000Y73025000D03*
X86360000Y73025000D03*
X83820000Y73025000D03*
%TD*%
D20*
%TO.C,J6*%
X18415000Y71755000D03*
D21*
X18415000Y69215000D03*
X18415000Y66675000D03*
X18415000Y64135000D03*
%TD*%
D22*
%TO.C,U2*%
X27640000Y43430000D03*
X27640000Y44080000D03*
X27640000Y44730000D03*
X27640000Y45380000D03*
X27640000Y46030000D03*
X27640000Y46680000D03*
X27640000Y47330000D03*
X27640000Y47980000D03*
X27640000Y48630000D03*
X27640000Y49280000D03*
X21890000Y49280000D03*
X21890000Y48630000D03*
X21890000Y47980000D03*
X21890000Y47330000D03*
X21890000Y46680000D03*
X21890000Y46030000D03*
X21890000Y45380000D03*
X21890000Y44730000D03*
X21890000Y44080000D03*
X21890000Y43430000D03*
%TD*%
D15*
%TO.C,R22*%
X90170000Y77520000D03*
D16*
X90170000Y80060000D03*
%TD*%
D20*
%TO.C,J10*%
X67310000Y77470000D03*
D21*
X67310000Y80010000D03*
%TD*%
D15*
%TO.C,R15*%
X108585000Y58420000D03*
D16*
X106045000Y58420000D03*
%TD*%
D15*
%TO.C,R18*%
X71120000Y80010000D03*
D16*
X71120000Y77470000D03*
%TD*%
D15*
%TO.C,R13*%
X108585000Y64770000D03*
D16*
X106045000Y64770000D03*
%TD*%
D15*
%TO.C,R6*%
X90170000Y56515000D03*
D16*
X90170000Y53975000D03*
%TD*%
D13*
%TO.C,C12*%
X47625000Y22860000D03*
X47625000Y20360000D03*
%TD*%
D23*
%TO.C,SW1*%
X104775000Y76735000D03*
X98275000Y76735000D03*
X104775000Y81235000D03*
X98275000Y81235000D03*
%TD*%
D15*
%TO.C,R7*%
X93980000Y56515000D03*
D16*
X93980000Y53975000D03*
%TD*%
D15*
%TO.C,R10*%
X20320000Y26670000D03*
D16*
X17780000Y26670000D03*
%TD*%
D15*
%TO.C,R20*%
X83820000Y77520000D03*
D16*
X83820000Y80060000D03*
%TD*%
D15*
%TO.C,R11*%
X14605000Y26035000D03*
D16*
X14605000Y23495000D03*
%TD*%
D15*
%TO.C,R21*%
X86995000Y77520000D03*
D16*
X86995000Y80060000D03*
%TD*%
D15*
%TO.C,R12*%
X23495000Y31750000D03*
D16*
X23495000Y29210000D03*
%TD*%
D20*
%TO.C,U1*%
X33020000Y42545000D03*
D24*
X35560000Y42545000D03*
X38100000Y42545000D03*
X40640000Y42545000D03*
X43180000Y42545000D03*
X45720000Y42545000D03*
X48260000Y42545000D03*
X50800000Y42545000D03*
X53340000Y42545000D03*
X55880000Y42545000D03*
X58420000Y42545000D03*
X60960000Y42545000D03*
X63500000Y42545000D03*
X66040000Y42545000D03*
X68580000Y42545000D03*
X71120000Y42545000D03*
X73660000Y42545000D03*
X76200000Y42545000D03*
X78740000Y42545000D03*
X81280000Y42545000D03*
X81280000Y60325000D03*
X78740000Y60325000D03*
X76200000Y60325000D03*
X73660000Y60325000D03*
X71120000Y60325000D03*
X68580000Y60325000D03*
X66040000Y60325000D03*
X63500000Y60325000D03*
X60960000Y60325000D03*
X58420000Y60325000D03*
X55880000Y60325000D03*
X53340000Y60325000D03*
X50800000Y60325000D03*
X48260000Y60325000D03*
X45720000Y60325000D03*
X43180000Y60325000D03*
X40640000Y60325000D03*
X38100000Y60325000D03*
X35560000Y60325000D03*
X33020000Y60325000D03*
%TD*%
D13*
%TO.C,C2*%
X24765000Y40640000D03*
X27265000Y40640000D03*
%TD*%
D12*
%TO.C,SW2*%
X68580000Y65405000D03*
D19*
X71120000Y65405000D03*
X73660000Y65405000D03*
X76200000Y65405000D03*
X76200000Y73025000D03*
X73660000Y73025000D03*
X71120000Y73025000D03*
X68580000Y73025000D03*
%TD*%
D12*
%TO.C,U5*%
X99695000Y30480000D03*
D19*
X102235000Y30480000D03*
X104775000Y30480000D03*
X107315000Y30480000D03*
X109855000Y30480000D03*
X112395000Y30480000D03*
X114935000Y30480000D03*
X114935000Y38100000D03*
X112395000Y38100000D03*
X109855000Y38100000D03*
X107315000Y38100000D03*
X104775000Y38100000D03*
X102235000Y38100000D03*
X99695000Y38100000D03*
%TD*%
D12*
%TO.C,U8*%
X76835000Y30480000D03*
D19*
X79375000Y30480000D03*
X81915000Y30480000D03*
X84455000Y30480000D03*
X86995000Y30480000D03*
X89535000Y30480000D03*
X92075000Y30480000D03*
X92075000Y38100000D03*
X89535000Y38100000D03*
X86995000Y38100000D03*
X84455000Y38100000D03*
X81915000Y38100000D03*
X79375000Y38100000D03*
X76835000Y38100000D03*
%TD*%
D12*
%TO.C,U12*%
X51435000Y17780000D03*
D19*
X53975000Y17780000D03*
X56515000Y17780000D03*
X59055000Y17780000D03*
X61595000Y17780000D03*
X64135000Y17780000D03*
X66675000Y17780000D03*
X69215000Y17780000D03*
X69215000Y25400000D03*
X66675000Y25400000D03*
X64135000Y25400000D03*
X61595000Y25400000D03*
X59055000Y25400000D03*
X56515000Y25400000D03*
X53975000Y25400000D03*
X51435000Y25400000D03*
%TD*%
D17*
%TO.C,D1*%
X116205000Y65405000D03*
D18*
X113665000Y65405000D03*
%TD*%
D12*
%TO.C,C21*%
X14605000Y38100000D03*
D13*
X17105000Y38100000D03*
%TD*%
D20*
%TO.C,J3*%
X109220000Y71755000D03*
D21*
X111760000Y71755000D03*
X114300000Y71755000D03*
%TD*%
D13*
%TO.C,C7*%
X47625000Y35560000D03*
X47625000Y33060000D03*
%TD*%
%TO.C,C8*%
X73025000Y35560000D03*
X73025000Y33060000D03*
%TD*%
D25*
%TO.C,Q2*%
X20000000Y32052500D03*
X18100000Y32052500D03*
X19050000Y30177500D03*
%TD*%
D13*
%TO.C,C11*%
X24765000Y22225000D03*
X24765000Y19725000D03*
%TD*%
D26*
%TO.C,Q1*%
X18415000Y20000000D03*
X18415000Y18100000D03*
X20290000Y19050000D03*
%TD*%
D15*
%TO.C,R17*%
X25400000Y73660000D03*
D16*
X22860000Y73660000D03*
%TD*%
D13*
%TO.C,C23*%
X101600000Y53975000D03*
X101600000Y56475000D03*
%TD*%
D17*
%TO.C,D3*%
X116205000Y52705000D03*
D18*
X113665000Y52705000D03*
%TD*%
D12*
%TO.C,U10*%
X99695000Y17780000D03*
D19*
X102235000Y17780000D03*
X104775000Y17780000D03*
X107315000Y17780000D03*
X109855000Y17780000D03*
X112395000Y17780000D03*
X114935000Y17780000D03*
X114935000Y25400000D03*
X112395000Y25400000D03*
X109855000Y25400000D03*
X107315000Y25400000D03*
X104775000Y25400000D03*
X102235000Y25400000D03*
X99695000Y25400000D03*
%TD*%
D27*
%TO.C,U3*%
X38350000Y31415000D03*
X39000000Y31415000D03*
X39650000Y31415000D03*
X40300000Y31415000D03*
X40950000Y31415000D03*
X41600000Y31415000D03*
X42250000Y31415000D03*
X42900000Y31415000D03*
X43550000Y31415000D03*
X44200000Y31415000D03*
X44200000Y37165000D03*
X43550000Y37165000D03*
X42900000Y37165000D03*
X42250000Y37165000D03*
X41600000Y37165000D03*
X40950000Y37165000D03*
X40300000Y37165000D03*
X39650000Y37165000D03*
X39000000Y37165000D03*
X38350000Y37165000D03*
%TD*%
D20*
%TO.C,J9*%
X24130000Y80010000D03*
D21*
X24130000Y77470000D03*
%TD*%
D12*
%TO.C,U11*%
X28570000Y17790000D03*
D19*
X31110000Y17790000D03*
X33650000Y17790000D03*
X36190000Y17790000D03*
X38730000Y17790000D03*
X41270000Y17790000D03*
X43810000Y17790000D03*
X43810000Y25410000D03*
X41270000Y25410000D03*
X38730000Y25410000D03*
X36190000Y25410000D03*
X33650000Y25410000D03*
X31110000Y25410000D03*
X28570000Y25410000D03*
%TD*%
D15*
%TO.C,R4*%
X80645000Y80010000D03*
D16*
X80645000Y77470000D03*
%TD*%
D15*
%TO.C,R9*%
X17780000Y23495000D03*
D16*
X20320000Y23495000D03*
%TD*%
D12*
%TO.C,U4*%
X29210000Y64770000D03*
D19*
X31750000Y64770000D03*
X34290000Y64770000D03*
X36830000Y64770000D03*
X39370000Y64770000D03*
X41910000Y64770000D03*
X44450000Y64770000D03*
X46990000Y64770000D03*
X49530000Y64770000D03*
X52070000Y64770000D03*
X54610000Y64770000D03*
X57150000Y64770000D03*
X59690000Y64770000D03*
X62230000Y64770000D03*
X62230000Y80010000D03*
X59690000Y80010000D03*
X57150000Y80010000D03*
X54610000Y80010000D03*
X52070000Y80010000D03*
X49530000Y80010000D03*
X46990000Y80010000D03*
X44450000Y80010000D03*
X41910000Y80010000D03*
X39370000Y80010000D03*
X36830000Y80010000D03*
X34290000Y80010000D03*
X31750000Y80010000D03*
X29210000Y80010000D03*
%TD*%
D20*
%TO.C,J5*%
X31115000Y30480000D03*
D21*
X33655000Y30480000D03*
%TD*%
D12*
%TO.C,U9*%
X89535000Y43180000D03*
D19*
X92075000Y43180000D03*
X94615000Y43180000D03*
X97155000Y43180000D03*
X99695000Y43180000D03*
X102235000Y43180000D03*
X104775000Y43180000D03*
X107315000Y43180000D03*
X107315000Y50800000D03*
X104775000Y50800000D03*
X102235000Y50800000D03*
X99695000Y50800000D03*
X97155000Y50800000D03*
X94615000Y50800000D03*
X92075000Y50800000D03*
X89535000Y50800000D03*
%TD*%
D15*
%TO.C,R5*%
X77470000Y80010000D03*
D16*
X77470000Y77470000D03*
%TD*%
D13*
%TO.C,C5*%
X95885000Y36195000D03*
X95885000Y33695000D03*
%TD*%
%TO.C,C9*%
X85725000Y48260000D03*
X85725000Y45760000D03*
%TD*%
D15*
%TO.C,R1*%
X85725000Y56515000D03*
D16*
X85725000Y59055000D03*
%TD*%
D17*
%TO.C,D4*%
X116205000Y46355000D03*
D18*
X113665000Y46355000D03*
%TD*%
D15*
%TO.C,R16*%
X108585000Y55245000D03*
D16*
X106045000Y55245000D03*
%TD*%
D15*
%TO.C,R23*%
X93345000Y77520000D03*
D16*
X93345000Y80060000D03*
%TD*%
D28*
%TO.C,F1*%
X11430000Y26435000D03*
D29*
X11430000Y30715000D03*
%TD*%
D15*
%TO.C,R8*%
X14605000Y32385000D03*
D16*
X14605000Y29845000D03*
%TD*%
D12*
%TO.C,U7*%
X51435000Y30480000D03*
D19*
X53975000Y30480000D03*
X56515000Y30480000D03*
X59055000Y30480000D03*
X61595000Y30480000D03*
X64135000Y30480000D03*
X66675000Y30480000D03*
X69215000Y30480000D03*
X69215000Y38100000D03*
X66675000Y38100000D03*
X64135000Y38100000D03*
X61595000Y38100000D03*
X59055000Y38100000D03*
X56515000Y38100000D03*
X53975000Y38100000D03*
X51435000Y38100000D03*
%TD*%
D13*
%TO.C,C4*%
X23495000Y70485000D03*
X23495000Y67985000D03*
%TD*%
%TO.C,C22*%
X97790000Y53975000D03*
X97790000Y56475000D03*
%TD*%
D12*
%TO.C,U6*%
X76835000Y17780000D03*
D19*
X79375000Y17780000D03*
X81915000Y17780000D03*
X84455000Y17780000D03*
X86995000Y17780000D03*
X89535000Y17780000D03*
X92075000Y17780000D03*
X92075000Y25400000D03*
X89535000Y25400000D03*
X86995000Y25400000D03*
X84455000Y25400000D03*
X81915000Y25400000D03*
X79375000Y25400000D03*
X76835000Y25400000D03*
%TD*%
D13*
%TO.C,C1*%
X100965000Y60960000D03*
X98465000Y60960000D03*
%TD*%
%TO.C,C3*%
X35560000Y38100000D03*
X35560000Y35600000D03*
%TD*%
%TO.C,C6*%
X73025000Y22225000D03*
X73025000Y19725000D03*
%TD*%
D15*
%TO.C,R19*%
X26035000Y60960000D03*
D16*
X26035000Y58420000D03*
%TD*%
D15*
%TO.C,R14*%
X108585000Y61595000D03*
D16*
X106045000Y61595000D03*
%TD*%
G36*
X96336039Y8870315D02*
G01*
X96381794Y8817511D01*
X96393000Y8766000D01*
X96393000Y813362D01*
X96373315Y746323D01*
X96356681Y725681D01*
X95667319Y36319D01*
X95605996Y2834D01*
X95579638Y0D01*
X22530362Y0D01*
X22463323Y19685D01*
X22442681Y36319D01*
X21753319Y725681D01*
X21719834Y787004D01*
X21717000Y813362D01*
X21717000Y8766000D01*
X21736685Y8833039D01*
X21789489Y8878794D01*
X21841000Y8890000D01*
X96269000Y8890000D01*
X96336039Y8870315D01*
G37*
M02*
